<svg xmlns="http://www.w3.org/2000/svg" viewBox="0 0 4680 3120"><defs><style>.cls-1,.cls-6{fill:#fff;}.cls-2,.cls-3,.cls-5,.cls-6,.cls-7{fill-rule:evenodd;}.cls-3,.cls-4,.cls-5{stroke:#000;stroke-linecap:round;stroke-linejoin:round;}.cls-3,.cls-4{stroke-width:15.39px;}.cls-4{fill:none;}.cls-5{stroke-width:10.26px;}.cls-7{fill:#ff9600;}</style></defs><g id="_07" data-name="07"><rect class="cls-1" width="4680" height="3120"/><path class="cls-2" d="M2736.29,966.53c7.12-10.94,13.56-29.28,27.15-44.07a62.94,62.94,0,0,1,26-17.33c19.92-7,38.2-4.48,53,4.75,15.06,9.4,26.53,25.48,32.86,45.11,9.64,29.94,8.94,65.43.4,99-8.6,33.77-25.08,65.61-47.11,88-14.36,14.55-34,25.25-54.11,28.52s-40.67-1-56.4-16.49a4,4,0,0,0-5.72,5.71c17.57,17.79,40.69,23,63.49,19.56,22-3.29,43.72-14.68,59.64-30.39,23.6-23.23,41.54-56.52,51.17-92,9.7-35.7,10.91-73.6,1.15-105.77-7-23.07-20.33-41.89-37.7-53.21-18.15-11.82-40.73-15.57-65.63-7.41a78.75,78.75,0,0,0-32.89,20.9c-14.6,15.24-22,34.21-29.75,45.54a8.68,8.68,0,0,0,14.44,9.63Z"/><path class="cls-2" d="M2039.73,1005.93s-21.19-15.77-38.43-25.9c-8.5-5-16.25-8.58-20.79-9.22-24.19-3.51-49.19.86-68.82,13s-34.07,31.61-37,58.76c-3.19,29.11,5.27,60.94,20.18,89.83,14.67,28.43,35.48,54,57.28,71.05,15.46,12.15,37.71,22.59,57.06,20.71,13.24-1.28,25.26-8.09,33-23.91a2.93,2.93,0,1,0-5.25-2.62c-6.82,13.42-17,19.26-28.37,20.19-17.76,1.45-37.91-8.74-51.89-20.12-20.56-16.84-40.07-41.83-53.43-69.52-13.16-27.25-20.32-57.1-16.52-84.1,3.22-22.4,15.65-38.3,32.28-47.66,17-9.55,38.23-12.2,58.51-8.37,4.12.79,11.39,5.73,19.16,11.1,14.73,10.19,30.26,23,30.26,23a10.28,10.28,0,1,0,12.67-16.2Z"/><path class="cls-2" d="M2040.19,1199.72c13.45,15,42.66,34.83,75.54,54.27,44.74,26.45,96.31,52.1,124.43,62.48,44.39,16.44,90.28,23.51,131.34,25.22a492.12,492.12,0,0,0,67.06-1.73c32.14-3.11,56.13-9,66.41-13,75-30.38,120.1-54.66,149.56-77.82,36.59-28.75,49.18-56,63.93-91.82a2.47,2.47,0,0,0-4.55-1.9c-14.71,34.8-27,61.47-63.08,88.94-29.46,22.42-74.68,45.22-149.37,73.66-9.91,3.83-33.05,8.79-63.89,11.74a533,533,0,0,1-65.73,2.25c-40.27-1.17-85.36-7.15-129.15-22.51-28-9.87-79.62-34.35-124.23-60.13-32.53-18.79-61.32-38.27-74.62-52.9a2.46,2.46,0,1,0-3.65,3.3Z"/><path class="cls-2" d="M2710,724.7c1.43.65-.55,2.24,0,0,5.1-20.37,7.17-64.32.63-83.94-18-53.86-53.46-68.78-100.77-45.12-41,20.5-70,56.76-105.28,84.22-115.15,89.56-226.4,179-379,179-108.51,0-213.79-30-197-163.94,7.5-60,43.31-114.11,93.25-147.41,72.1-48.06,164.41-6.92,242.16-21,140.28-25.51,229.17-189.56,385-154.92C2782,401.11,2822.29,586,2752.71,690.39c-13.05,19.57-28.88,25.87-42.12,39.11"/><path class="cls-2" d="M2706.05,723.78l0,0c2.48-9.91,4.2-25.54,4.55-41.1s-.66-31.06-3.84-40.6c-8.3-24.91-20.34-41.22-35.91-48.64-16.33-7.79-36.31-5.64-59.26,5.84a197.93,197.93,0,0,0-33.35,21.52c-24.86,19.45-46.5,43-71.26,62.28-69.46,54-137.54,108-214.05,142.45-51.1,23-105.95,37.39-167.44,37.39-67.73,0-134.11-11.84-171.5-52.14-23.85-25.72-36.19-63-29.53-116.32A206,206,0,0,1,1955.79,609a222.34,222.34,0,0,1,63.7-64.87c22.27-14.84,46.42-21.44,71.47-23.75,56.6-5.21,117.95,12,172.2,2.08,98.09-17.83,170.89-103.77,259.29-141.5,38.5-16.44,79.88-23.93,127.35-13.38C2718.18,382.8,2762.73,438,2781,502.8c18,63.86,10.31,137-24.92,189.82a86,86,0,0,1-11.57,14c-10.33,10.14-21.38,16.11-31.05,25.77a4,4,0,0,1-6.65-4.09,4.72,4.72,0,0,1-.75-4.35v-.12Zm9-3.67c7.73-6.3,16-11.59,23.79-19.27a78.88,78.88,0,0,0,10.51-12.68c34-51,41.2-121.56,23.86-183.19-17.44-62-59.78-115-125.18-129.52-45.64-10.14-85.43-2.88-122.45,12.93-88.92,37.95-162.33,124.08-261,142-54.47,9.9-116.07-7.22-172.9-2-23.75,2.19-46.64,8.37-67.75,22.43a214.38,214.38,0,0,0-61.39,62.52,198,198,0,0,0-30.11,82c-8.12,65,13.12,104.88,49.83,128.38,37.21,23.83,89.83,31.05,143.23,31.05,60.28,0,114-14.11,164.14-36.69,75.94-34.21,143.47-87.83,212.42-141.46,24.75-19.25,46.38-42.83,71.24-62.27A205.75,205.75,0,0,1,2608,592c25.66-12.82,48.05-14.61,66.3-5.9,17.19,8.19,30.92,25.86,40.08,53.35,3.4,10.18,4.62,26.71,4.25,43.31a237.18,237.18,0,0,1-3.58,37.31Z"/><path class="cls-2" d="M2709,729.92c7.57,1.89,44.44,12.38,44.44,12.38s3.8,89.07-10.07,105.54c-31.72,37.63-19.26,92-19.26,116.3l.18-.23,41.92-56.62,42.86-23.95s32.6-124.39,20.79-171.55c-8.14-32.49-40.28-85.49-40.28-85.49s-68.19,110.49-81.71,103.18"/><path class="cls-2" d="M2709,723c.22-.9,2.72-1.16,4.18-2.36,7.22-5.93,17.05-17.77,27.13-31.12,22.11-29.31,45.19-65.8,45.19-65.8a4.78,4.78,0,0,1,4.12-2.29,4.83,4.83,0,0,1,4.12,2.32s14.63,24.68,26.56,50.8c5.74,12.59,10.88,25.51,13.47,36.22,4.13,16.87,2.7,43.35-.92,70.67-6.61,49.94-20.45,102.73-20.45,102.73a3.41,3.41,0,0,1-1.64,2.11L2768.62,910l-41.24,56.2-.21.29a3.84,3.84,0,0,1-6.88-2.34c-.11-16-5.5-44.65-.68-73.29,2.71-16.07,8.58-32.12,20.14-46.08,4.84-5.87,6.73-21.56,7.8-38.64,1.46-23.26.62-49.12.18-59.21l-40.29-10.67a9.59,9.59,0,0,1-1-.31l-.16-.08a7.77,7.77,0,0,1-1.54-.63A6.53,6.53,0,0,1,2709,723Zm80.58-87.43c-10.14,16.46-36.83,58.93-56.45,82.42-3.09,3.69-6,6.92-8.75,9.58l30.7,9a5.93,5.93,0,0,1,4.3,5.45s1.34,43.6-2.58,75.7c-1.86,15.11-5.12,27.76-9.77,33.17-10.7,12.45-16.22,26.92-18.9,41.45-4.11,22.3-1.7,44.74-.61,60.84l35.88-48a3.72,3.72,0,0,1,1.11-1l41.65-23.14c2.2-8.64,13.94-55.72,19.52-100.51,3.27-26.23,4.45-51.66.31-67.79-2.65-10.25-7.77-22.55-13.49-34.53-8.21-17.21-17.65-33.72-22.92-42.63Z"/><path class="cls-3" d="M2036.21,1014c0-20-10.29-80.71-10.29-80.71s25.16,10.58,30.39,15.81c3.9,3.89-5.39-83.49,2-93.34l.17-2.53s-88.93-42-96.68-31.17c-14.25,20-6.15,69.62-6,71,3.52,25.75,9.91,45.36,16.58,59.42,9.14,19.32,59.06,63,22.24,28.18"/><path class="cls-4" d="M2202.84,850.63c-4,4.49,41.94,14.28,55,21.76,15.86,9.06,30.19,18.85,46.63,27.07,3.07,1.53,19.22,14.19,19.55,13.54,18.1-36.19,11.48-47.18-12-70.69-1.88-1.89-11.18-12-15-12M2247,849.82h-5.72l45.12-10.52a44.71,44.71,0,0,1-6,3c-11.22,3.74-24.69.7-36.09,4.51-4.39,1.46-18.16,3-13.54,3,7.55,0,60.16-3.75,60.16-13.53,0-.2-17.81,6.65-19.55,7.52-4,2-22.56,4.73-22.56,9,0,2.35,46.54,1.6,49.63-1.5,2.84-2.84-44.06,2.56-37.6,9,7,7,35.1,3.64,43.62,1.51,2.43-.61,7.52,0,7.52,0s-29.86-6.24-39.11,3c-7.7,7.7,51.46,6.33,42.12-3-5.37-5.37-19.6,10.43-16.55,16.55,5.94,11.88,24-7.59,16.55-15-15.2-15.19-32.86,15.85-12,21.06,27.43,6.85,13.26-40.47,1.51-34.6-15,7.51,5,64.19,19.55,49.64,3.92-3.91,8-40.61,1.51-40.61-1,0,.68,36.92,1.5,36.1,19.23-19.23-24.07-48.6-24.07-61.67"/><path class="cls-2" d="M2836.08,972.51l-.2-.15c-2.44-2-8.81-6.45-10.85-7.1a28.9,28.9,0,0,0-13.92-.91c-7.63,1.27-14.69,4.81-22.26,7.44-12.5,4.33-23.34,20.57-29.81,38.08s-8.78,36.53-1.52,47.32c1.35,2,4.05,4,6.93,5.74a37.87,37.87,0,0,0,9.17,4.06c26.53,7.45,37.15-11.86,37.2-31.14,0-13.65-4.79-27.62-13.55-33.41-5.87-3.88-13.42-3.66-22.07,2.71a2.38,2.38,0,1,1-2.86-3.81c7.59-5.78,14.59-7.27,20.67-6.12,14.3,2.71,24.15,21.31,25.15,40.44,1.3,25.15-12.11,49.94-47.26,42.22a51,51,0,0,1-14.47-6.45,30.15,30.15,0,0,1-8.53-7.82c-8.74-13.23-7.44-36.56.76-57.67,8-20.56,22.22-38.67,37.09-43.44,8.15-2.59,15.81-6.06,24-7.19a37.46,37.46,0,0,1,18.06,1.7c2.53.87,10.5,6.41,13.5,9a5.39,5.39,0,0,1,.82,7.65,4.15,4.15,0,0,1-5.79-.83l-.24-.36Z"/><path class="cls-2" d="M1940.87,1032.16a69.44,69.44,0,0,1,20.14-.88,52.59,52.59,0,0,1,19.09,5.5c16,8.81,29.3,27,37,46.29,8.27,20.79,10.34,43,1.48,55.44-6.12,8.79-18.28,9.72-29.75,7.27a55,55,0,0,1-16.27-6.26c-5.09-3-9.48-6.6-11.85-11-12.24-22.07-8.1-38.77,3.28-47.44a35.74,35.74,0,0,1,25.58-6.66,42.11,42.11,0,0,1,24.57,11.91,1.87,1.87,0,0,0,2.65-2.65,47.91,47.91,0,0,0-20.64-12.4c-12.66-3.8-26-2-35.94,4.42-14.85,9.62-22.57,29.51-9.82,58,3,6.4,8.51,12.23,15.56,16.69a60.21,60.21,0,0,0,20.32,8c16.47,3.21,33.39-.69,41.62-13.61,9.42-15.12,6.92-40.86-4-64.55-9.3-20.11-24.23-38.74-41.72-47.3a57.83,57.83,0,0,0-20.74-5.49,75.78,75.78,0,0,0-21.25,1.1,1.88,1.88,0,0,0,.74,3.68Z"/><path class="cls-4" d="M2662.46,911.5c-8.8-5.87-22.47-14.78-33.09-16.55-28.68-4.78-60-3.11-84.23,15-39.07,29.31-45.7,107.47-34.59,151.91,4.06,16.23,12.76,56.92,39.1,48.13,22.5-7.5,28.58-39.76,28.58-61.66,0-3.69,2.49-20.07,0-22.57-7.8-7.8-33.09-1.5-33.09-1.5s10.84-6.63,13.54-12c4.13-8.27,12.3-15.31,18.05-21.06.19-.19-18.55-28.07-22.56-30.08-6-3-14.4-16.54-21.06-16.54M2117,988c-3.74,1.68,14.83-37.69,20.54-43.38,25.41-25.42,62.09-39.24,96.26-25.57,51.35,20.54,63.32,91.14,51.14,139.88-3.61,14.41-5.16,44.69-21.06,52.64-35.72,17.86-55.66-34.57-45.12-66.18,5.46-16.4,26-4,33.09-18,4.67-9.35-21.07-27.08-25.57-31.59-2-2,5-14.55,6-16.54,8.07-16.13,12.66-31.59,31.59-31.59m268,27c-2.28.74-8.84,20.3-9.31,22.66-.6,3-3.66,11.18-1.5,9s9.92-33.09,9-33.09c-4.87,0-9.12,19.06-10.53,22.56-1,2.51-3,10.22-3,7.52,0-12.33,12.2-30.78,15.05-43.62,0-.06,2.66-16.54,1.5-16.54-2.24,0-2.39,3.86-3,6-2.26,7.93-18.78,50.4-12,57.15,3.54,3.55,7-7.43,9-12,5-11.56,15-34.6,15-34.6s-4.32,8.9-6,13.54c-3.8,10.43-9.18,20.75-10.53,31.59-.5,4-5.55,12-1.5,12,6.53,0,14.55-30.12,16.54-34.59,2.46-5.54,11.8-20.83,7.52-16.55-6.81,6.81-36.6,60.16-25.57,60.16,4.87,0,11.71-16.35,13.54-19.55l6-10.53c22.42-39.22-19.07,26-13.53,31.59,1.05,1,24.07-31.6,27.07-34.6,4-4,12-17.7,12-12,0,8.17-35,41.72-28.58,48.13,4,4,25.49-26.36,21-28.58-16.54-8.27-36.09,42.12-36.09,42.12l10.53-46.63s-5.65,11.81-7.53,18c-2.39,8-22.53,48.16-15,55.65,5.35,5.35,21.63-40.82,22.57-43.62,1.65-5,6.85-19.72,4.51-15-4.25,8.49-28,54.77-19.56,63.18,2.83,2.81,20.8-28.42,22.56-31.59,3.06-5.49,13.47-21,9-16.55-7.61,7.61-35,58.27-25.57,67.69,1.27,1.27,25-40.94,27.07-45.12,3-6,13.78-22.81,9-18-13,13-20.66,37-25.57,54.15-.51,1.77-4.85,23.28,3,18,6.35-4.23,8.57-14.83,12-21,4.6-8.29,4.25-6.85,7.52-15,2.9-7.24,3.7-5.9,7.52-13.53,15.47-30.93-33.7,36.54-16.55,45.12,5,2.49,10.58-12.12,12-15,5.36-10.71,12.64-21.06,15-33.09.6-3,1.5-9,1.5-9s-4.16,11-6,16.54c-2.09,6.28-14.83,48.28-28.58,39.11-7.36-4.91-6.12-17-7.52-24.07-4.36-21.8-18-50.16-18-69.19m-249.9-38.82c2.56-3.33-24.2,12.9-16.32,20.78,1.43,1.43,23.19-29.45,16.54-36.1-6.16-6.16-30.48,29.27-27.07,36.1,5.18,10.36,34.42-29.14,22.56-33.09-12.94-4.32-36.24,37.56-18.05,42.11,9.17,2.29,34.25-22.92,30.08-27.08-3-3-21,27.15-15,33.09,4.63,4.64,21.74-11.34,19.55-13.53-8.75-8.75-14.2,25.4-13.53,24.06,6-11.9-13.92-31.76-21.06-21.06-7,10.47,17.93,34.72,19.55,33.09,4.76-4.75-9-24.77-9-18,0,2.45,5.17,38.44,12,31.58,2-2,8.25-17.32,6-19.55-.84-.83-15.18,15.18-16.55,16.54-4,4-21.06,14.65-21.06,21.06,0,1.9,10.2-7.19,10.53-7.52,1.65-1.64,13.54-12.48,13.54-15,0-5.16-9.89,3.87-13.54,7.52-3,3-27,18.11-19.55,25.57,4.61,4.6,17.9-18.2,13.54-22.56-17.05-17-28.71,30-18.05,40.61,18.43,18.43,37.17-40.08,33.09-42.11-12.82-6.41-28.56,59.15-9,52.64,8.68-2.89,25.25-48.21,13.54-51.14-18.85-4.71-41.92,71.39-9,63.17,24.84-6.21,29.14-70.73,31.58-90.24,1.5-11.95-1.5-36.1-1.5-36.1v27.07c0,16-1.92,31.07-4.51,46.63-1.11,6.6.21,24.28-4.52,19.55-5.25-5.25,1.51-34.55,1.51-42.11"/><path class="cls-2" d="M2472.22,1202.79a37.6,37.6,0,0,0-6,1.2c-16.25,5.46-50.94,19.46-81.62,30.54a2.09,2.09,0,0,1-1.46-3.92c30.48-11.73,65-26.28,81.08-32.27a58.83,58.83,0,0,1,8.93-2.85,3.67,3.67,0,0,1,4.36,2.27c9.06,24.47.11,50.23-15.74,65.42a49.19,49.19,0,0,1-26.43,13.43c-13.52,2.09-28.18-2.35-41.83-16.23a8.36,8.36,0,0,1,12.49-11.11c7,8.71,14.68,13.44,22.59,14.45,9.35,1.19,18.62-2.15,26.19-8.4a53.24,53.24,0,0,0,17.46-52.53Z"/><path class="cls-4" d="M2325.54,1334.36c.13-.08-1.53,2.74.4,12.35m182.93-19.19c-1.41,1-2.39,1.43,2.09,10.38m-193.38,13c13.26,2,16.75,46.23,113.73,39.73,79.23-5.29,82-34.09,83.31-48.49"/><path class="cls-2" d="M2771.26,1951.64a4.5,4.5,0,0,1-.75-4.25,4.54,4.54,0,0,1,5.74-2.87c.72.23,3,1.82,4.24,5.6a62.34,62.34,0,0,1,1.45,29.62c-2.2,10.53-7.94,20.91-20.07,27.11-19,9.75-41.18.74-55.44-15.42-14.63-16.59-20.3-40.27-7.46-57.78a52.4,52.4,0,0,1,56.62-18.24,6.86,6.86,0,1,1-4.35,13,39.3,39.3,0,0,0-42.32,12.68c-9.84,12.83-4.61,30.39,6,43,10.77,12.73,27.51,20.94,42.39,13.68a27,27,0,0,0,13.66-14.92c3.64-9.34,3-19.79,1.71-26.26-.46-2.34-2.08-4.44-1.44-4.94Z"/><path class="cls-2" d="M2767.31,1880.82a2.88,2.88,0,0,1,1.57-.45c7.46,0,9.18-9.25,9.66-19.8.72-15.8-3-35.31-5-41.2-11.23-33.09-10.27-77.75,6.51-111,11.73-23.23,31.12-40.91,59.25-45.76,44.51-7.67,92.06,8,130,37,37.68,28.79,65.73,70.65,72.26,115.13,7.68,52.94-3.37,110-30.18,156.74-27.21,47.45-70.63,84.17-126.88,95.49a159.25,159.25,0,0,1-45.43,2.2c-22.46-1.94-44.19-7.67-65.49-13-28.55-7.12-58.56-5.42-87.64-9.24-13-1.72-25.91-4.51-38.41-9.5-25.41-10.14-41.05-30-46.28-52.63-5.12-22.17-.2-47.12,15.7-68.34a120.66,120.66,0,0,1,94.75-47.41,109,109,0,0,1,16.59,1.33c8,1.2,15.87,3.09,23.62,5,2.68.66,5.83,2.48,8.85,4.38.91.56,2.1,1.63,3,2.3a6.44,6.44,0,0,1,3.54-1.36Zm6.52,4.38a6.41,6.41,0,0,1-.59,5.33c-2.38,4-5.74,5.19-9.8,4.59a23.81,23.81,0,0,1-8.13-3.5c-2.25-1.38-4.53-3.17-6.54-3.67-7.36-1.84-14.83-3.66-22.42-4.81a96.9,96.9,0,0,0-14.68-1.2,108,108,0,0,0-84.57,42.25c-13.49,18-17.86,39.07-13.54,57.86s17.46,35.32,38.61,43.79c11.51,4.62,23.37,7.16,35.39,8.76,29.53,3.92,60,2.35,89,9.61,20.67,5.19,41.75,10.85,63.54,12.78a146.9,146.9,0,0,0,42-1.9c52.78-10.49,93.39-45,119.07-89.43s36.5-98.8,29.4-149.3c-5.82-41.92-32.21-81.31-67.42-108.75-35.59-27.74-80.27-43.36-122.44-36.57-31.81,5.12-51.26,28.72-60.69,57.36s-8.93,62.6-.31,88.91c2.36,7.22,7,33.61,4.13,51-1.39,8.35-4.63,14.6-10,16.9Zm-9.87-2.89c.72.49,1.27.68,1.36.1s-.59-.57-1.36-.1Z"/><path class="cls-2" d="M2835.35,1712.21c-13.73.16-21.84,9.65-24.59,23.08-3,14.52.79,33.46,7.08,42.67,12.59,18.54,32.28,35.4,54.55,46.66,22.55,11.4,47.69,17.08,70.81,13.12,7.66-1.28,19.24-1.42,27.72-5.41a23.5,23.5,0,0,0,11.48-10.81c6.21-12.36-.48-29.17-15.15-45.49-24.19-26.93-68.27-54.08-83.15-59.09-3.27-1.11-9-2-15.57-2.51-14.5-1.19-33.23-1.14-33.23-1.14l0-1.08Zm.05,16.39s14.41-.16,27.45.57c6.82.37,13.24.89,16.51,2,12,4,44.58,23.57,67.71,44.95,8.66,8,16,16.25,20.23,24.05,3,5.53,4.55,10.65,2.37,15-1.46,2.92-4.34,4.31-7.46,5.31-7,2.24-15.51,2.23-21.36,3.21-20.21,3.27-42.11-2.07-61.66-12.29-19.72-10.3-37-25.63-48-42.34-3.61-5.54-5.48-16-4.71-25.17.59-7.08,2.08-14.28,8.84-14.2l.05-1.08Z"/><path class="cls-2" d="M2866.2,1359.67s-11.27,111.22-20.07,207.62c-1.31,14.31-2.49,28.31-3.58,41.56-4.5,54.89-7.57,97-7.57,97a6.07,6.07,0,1,0,12.1,1.07s4.35-42,9.54-96.87c1.25-13.24,2.54-27.22,3.76-41.54,8.22-96.45,16.6-207.92,16.6-207.92a5.41,5.41,0,1,0-10.78-1Z"/><path class="cls-2" d="M2910.78,1359c32.72-22.14,35.53-44.84,25.42-61-14.58-23.2-61.14-34.53-92.5-9.87-5.2,4-18.43,30.27-13.67,50.82,3.28,14.2,14.47,26.27,42.63,25.83a3.29,3.29,0,1,0,0-6.57c-23.15-.09-32.83-9.15-35.25-20.86-3.53-17.14,7.3-38.84,11.71-42.06,21.65-15.6,50.81-12.47,67.28-.24,7.22,5.36,11.83,12.6,11.05,20.76-.92,9.45-8.93,19.23-25.55,29.11a8.31,8.31,0,0,0,8.91,14Z"/><path class="cls-2" d="M2861.86,1285.67l269.27-133.73.17-.09,126.45-71.32a3.11,3.11,0,0,0-3-5.42l-126.94,70.43-270.43,131.1a5,5,0,1,0,4.52,9Z"/><path class="cls-2" d="M3307.79,1023.28c18,.58,25.55,14.8,24.67,32.38-1.05,20.92-15,45.6-31.84,49.72-18.25,4.45-34.23-3.63-43.25-16.8-8.89-13-11-30.87-1.71-46.12,5.68-9.36,11.28-14.32,16.67-17,6.14-3,12.14-3.19,18.21-2.72,4.67.37,9.36,1.19,14.19.23a5.28,5.28,0,0,1,3.06.28Zm-6.07,10.79c-7,.19-13.87-1.66-20.78,0-5.2,1.21-10.17,5-15.62,14.23-6.64,11.21-4.91,24.25,1.68,33.66,6.48,9.23,17.79,14.94,30.66,11.64,10.53-2.69,18.21-16.92,21-30.48,2.66-13,1.27-26.62-11.79-26.54a6.62,6.62,0,0,1-5.15-2.46Z"/><path class="cls-2" d="M2857.22,373.07c10.48.06,18.33,6,23.12,14.8,5.7,10.53,6.79,25.45,2.66,37.84-3,9-8.69,16.59-16.93,20.71-9.16,4.58-21.83,5.05-38.14-3.07-4.52-2.25-8.63-6.66-11.49-11.84a33.55,33.55,0,0,1-4.37-15.36,101.31,101.31,0,0,1,.69-15,45.73,45.73,0,0,1,2.81-10.5,56.57,56.57,0,0,1,9.47-15.67,27.41,27.41,0,0,1,11.39-8.13c2.22-.74,10.44.23,13.92.64a6.66,6.66,0,0,1,1.18,0,6.39,6.39,0,0,1,5.69,5.61Zm-17.42,6.1c-2.51,1.07-4.73,3.4-6.68,5.93a45.74,45.74,0,0,0-5.82,10.21,34.12,34.12,0,0,0-2.08,7.66,89,89,0,0,0-.6,13.18,20.46,20.46,0,0,0,2.76,9.34c1.57,2.86,3.62,5.49,6.11,6.74,11.61,5.84,20.56,6.42,27.1,3.18,5.37-2.65,8.87-7.76,10.84-13.58,3.12-9.23,2.51-20.37-1.71-28.23-2.65-5-6.85-8.56-12.73-8.57a6,6,0,0,1-5.87-4.88,8.77,8.77,0,0,1-2.24,0c-2.09-.26-8.84,1.22-9.08-1Z"/><path class="cls-2" d="M2875.33,438.44a5.68,5.68,0,0,1,2.54-9.58,5.87,5.87,0,0,1,6.15,2.21c.58.7,1.7,2.24,3.3,4.57,4.8,7,14.47,22,27.76,42.73,36.53,56.93,100.1,157.64,164,256.85,39.06,60.6,78.35,120.58,111.22,170,40.61,61,71.48,105.64,80.39,114.54a5.68,5.68,0,0,1-8.08,8c-8.94-9.15-39.76-54.84-80.5-117.13-32.48-49.67-71.24-110-110.35-170.63-64-99.16-128.71-199.13-165.73-255.74-13.38-20.46-23.19-35.21-28-42.15-1.27-1.82-3.13-3.13-2.69-3.62Z"/><path class="cls-2" d="M2226.79,452.89c0-2.26-.95-4.24-2.34-4.84h.5s-12.67-3.36-22.44-3.17c-4.89.1-9.12,1.17-11.62,3.22-10.33,8.49-15.94,22.23-14.54,32.78,1.19,9,6.9,16.12,18.71,16.75,20.7,1.12,29.63-4.1,33.18-10.95,2.22-4.29,2.48-9.47,1.78-14.84-.86-6.67-3.17-13.64-3.23-18.95Zm-6.08,4.43a89.77,89.77,0,0,0-15.42-2.83,27.78,27.78,0,0,0-6.22.08,5.36,5.36,0,0,0-2.41.74c-6.6,5.14-11,13-11.91,20.1-.49,3.82-.05,7.45,1.9,10.12,1.76,2.43,4.72,4,8.92,4.28,16.09,1.24,23.54-1.2,26.42-6.46,2.11-3.87,1.65-8.83.86-13.78-.67-4.23-1.65-8.47-2.14-12.25Z"/><path class="cls-4" d="M2230.78,459c45.73-7.62,144.11-17,190.25-22.77,79.85-10,162.73-23.35,244.89-31.87q14.65-1.51,29.29-2.82c38.34-3.39,76.43-5.51,113.86-5.51m-628.13,92.82c-55.81,60.1-152,149-211.09,205.72-50.17,48.16-99.17,96.12-148.42,145.25-27.64,27.57-55.43,55-83.71,81.84-67.94,64.54-144.47,122.82-210.26,188.61"/><path class="cls-2" d="M1536.75,1117.33a24.93,24.93,0,0,1,8,8.28c6.38,10.21,10.52,28.16,10.52,34.15,0,41.34-35.11,93.56-85.1,63.57-33-19.77-34-62-18.08-92.13,9.85-18.58,26-32,43.78-33.58,12.22-1.09,25.57,3.1,38.52,15.78a9,9,0,0,1,2.38,3.93Zm-16.93,7.73c-7.6-6.86-15.15-9.68-22.33-9-12.12,1.07-22.38,11.16-29.09,23.82-11.64,22-12.82,53.2,11.26,67.64,35,21,57.12-18.76,57.12-47.73,0-3.71-2.44-13.72-6-21.18a36.61,36.61,0,0,0-3.39-5.28,9.23,9.23,0,0,1-7.58-8.24Z"/><path class="cls-2" d="M1494.62,1230a4.82,4.82,0,0,1,7.26-6,5.53,5.53,0,0,1,1.63,2.16,23.36,23.36,0,0,1,1.21,4.92c1,6.41,2.33,19.94,3.8,38.6,6.61,83.76,17.21,272.11,28.25,382.79.74,7.38,4.35,22.53,5,34.94a45,45,0,0,1-1.1,13.85,4.8,4.8,0,0,1,4.44-.07c10.77,5.4,16.49,12.83,18.71,20.37,2.9,9.85-.12,20.14-6.58,27.37s-16.18,11.32-26.62,9.17c-7.39-1.52-15.26-6.22-22.38-15.74-5.37-7.16-5.87-13.35-4.06-18.62,2.42-7.1,9.92-12.77,17.07-17.13,3.11-1.9,6.08-3.56,8.21-5.07.69-.49,1.33-.8,1.55-1.24,1.46-2.93,1.6-7.42,1.35-12.42-.6-12.24-4.17-27.2-4.9-34.47-3.62-36.34-7.16-81-10.58-127.66-7.57-103.21-14.38-215.86-18.93-268-.92-10.49-1.74-18.52-2.46-23.48-.3-2.06-1.4-3.87-.84-4.2Zm43.54,476.23a35.07,35.07,0,0,1-7.67,5.8c-5.1,3.07-11.91,6.69-15.66,11.62-2.63,3.46-3,7.68,1,13,5.38,7.16,11.13,11,16.7,12.1a18.5,18.5,0,0,0,17.57-6.21,19.37,19.37,0,0,0,4.51-18.27c-1.62-5.46-6-10.59-13.81-14.47a4.87,4.87,0,0,1-2.61-3.56Z"/><path class="cls-2" d="M1550.84,1756.91c16.63,8.39,66.26,40.11,129.45,80.93,39.28,25.37,83.74,54.31,128.81,83.34,14.75,9.5,29.57,19,44.32,28.35,22.72,14.4,45.26,28.43,66.91,41.9,69.31,43.12,129.71,79.84,161.21,96.91a2.87,2.87,0,0,0,2.82-5c-38.6-22.5-120.87-77.51-209.82-136.46-20.7-13.72-41.8-27.58-62.8-41.29-52.38-34.22-104.07-67.58-147.32-95.18-52.49-33.5-92.8-58.35-107.51-65.65a6.79,6.79,0,0,0-6.07,12.15Z"/><path class="cls-2" d="M2155.28,2164.39c.45,2.6,1.56,7.62,3.19,14.49,7.29,30.61,24.83,97,42.63,152.37a4.42,4.42,0,1,1-8.38,2.79c-19.07-55.24-38.09-121.61-46.1-152.2-2-7.8-3.38-13.33-3.85-15.86-2.33-12.63,9.16-9.9,11.72-5.57a6.21,6.21,0,0,1,.79,4Zm-8.74,5a4.91,4.91,0,0,0,1.4.41,6.24,6.24,0,0,1-1.4-.41Zm-2.67-2.15-.33-.51a5.65,5.65,0,0,0,.33.51Z"/><path class="cls-2" d="M2247.65,2315.34a2,2,0,0,1,2.4-1.06c14.45,4.36,22.83,12.3,27.15,21.12,5.48,11.2,4.16,24.24-1.95,35.72a51.62,51.62,0,0,1-18.47,19.54,47.25,47.25,0,0,1-17.34,6.47c-9.26,1.47-19.51,0-30-4.59-23.32-11.61-26.49-30.88-18.43-48.09,6.35-13.57,19.83-25.46,34.66-29.48a36.46,36.46,0,0,1,22,.37Zm8.56,5.94a2,2,0,0,1-3,1.27c-8.75-5.56-18.43-5.8-27.21-2.49s-16.35,10-21.59,17.93c-9.5,14.3-10.24,33.26,10.84,40.88a43.77,43.77,0,0,0,22.09,3.06c12.25-1.36,22.84-7.41,29.19-16.25,6-8.41,8.81-18.68,5.32-28-2.38-6.35-7.52-12-15.64-16.42Z"/><path class="cls-2" d="M2711.51,1993.46a113.41,113.41,0,0,0-11.57,7.34c-21.74,15-66.27,48.26-118.26,88.48-38.14,29.51-80.28,62.73-120.68,94.82-88.89,70.6-169.34,135.71-180.78,143.45a6.75,6.75,0,1,1-7.49-11.23c8.6-5.64,56.27-42.46,117-89.82,36.08-28.15,76.78-60,116.58-91.23,21.21-16.65,42.14-33.17,62-48.87,36.12-28.52,68.74-54.31,93.25-73.15,18.94-14.57,33-25.06,40.17-29.62,4.28-2.74,7.34-3.52,8.41-3.53a6.75,6.75,0,0,1,1.38,13.36Z"/><path class="cls-2" d="M2415.89,1845c18.05-.18,43.3-.4,70.54-.46,55.28-.13,118.78.4,147.19.63a4.42,4.42,0,0,1,0,8.83c-32.72.25-112,1.64-171.66,2.06-41.57.3-73.58.08-73.58.08a5.4,5.4,0,0,1-2.07-10.4s96.33-37.79,134.09-52.48c6.45-2.51,11.19-4.35,13.46-5.21,4.22-1.61,6.13,3,6.13,3.09a3.4,3.4,0,0,1-2.34,2.77h0l-1.25.51c-2.24.91-6.92,2.86-13.27,5.51-25.08,10.48-76.26,32-107.21,45.06Z"/><path class="cls-2" d="M2536.65,1786.88c.55-.05,1.18-.12,1.79-.12,8.73,0,29.11-.49,36.63-.6,29.31-.45,58.61-3.55,87.69-5q11.13-.54,22.22-.69c5.46,0,20.19-2.3,29.45-1.21,4.77.56,8.44,2.18,10.51,4.23a6.61,6.61,0,0,1,1.32,8,22.56,22.56,0,0,1-5.3,6c-10.39,8.94-39,28.11-43.45,31-7.2,4.55-22.45,12.75-32.05,18.58-2.46,1.5-4.53,2.77-5.86,3.77.84,1-1.35,4.7-1.81,8.36-1.68,13.25-3.06,35.12-3.43,43l0,.35c-1.87,149.23-4.08,163.63-5.58,88.34-5.71,66.49-10,51.27-1.1-84.64l0-4.18c-.08-9.3.1-37.48,1.49-49.44.52-4.42,1.84-7.21,2.59-8a58.58,58.58,0,0,1,8.13-6.3c9.21-6.3,24-15.16,30.89-20,3.65-2.48,23.95-16.76,36.06-26.36h-.26c-8.19,0-17.49,1.19-21.55,1.15-29-.41-58.36,1.78-87.74,2.38q-11.09.24-22.17.09c-7.55-.12-28-.24-36.79-.54-2-.07-3.37-.15-4-.23a4.34,4.34,0,0,1-3.89-3.08,4.11,4.11,0,0,1,2.85-5.06,3.92,3.92,0,0,1,2-.06v0c0,.24.31.28.83.25a3.84,3.84,0,0,0-.83-.27c.13-1.22.81-.7,1.5.21l-.47,0h-.2a4.17,4.17,0,0,1,1.42,1,12.67,12.67,0,0,0-.75-1.11Zm178.75,5.82.17.17c.08.08.2.32.26.22s-.08-.32-.43-.39Z"/><path class="cls-2" d="M2384.36,1851.47l.95,149.6a3.65,3.65,0,1,0,7.29.08l4.19-149.55a6.22,6.22,0,0,0-12.43-.13Z"/><path class="cls-2" d="M2391.11,2006.42l219.89,0a3.4,3.4,0,0,0,0-6.79c-16.52,0-63.57-.06-109.93-.23-55.47-.21-109.94-.57-109.94-.57a3.78,3.78,0,1,0,0,7.56Z"/><path class="cls-2" d="M2712.56,1794.65a7.29,7.29,0,0,1-.91-1.25,9.07,9.07,0,0,1,5.38-12.5,6.75,6.75,0,0,1,5.34.87c1,.65,3.54,2.4,3.54,7.47,0,19.53,1.73,65.49-.69,84.89a6.7,6.7,0,1,1-13.29-1.66c2.18-17.41.86-56.62.63-77.82Z"/><path class="cls-4" d="M2375.13,2034c4.36-1.56,208.18-6.85,213.5-1.53,1.62,1.62-111.26,80.95-111.26,86.84"/><path class="cls-2" d="M2271.8,2119.6l108.33-78.31a8.43,8.43,0,1,0-9.88-13.67l-108.34,78.31a8.44,8.44,0,0,0,9.89,13.67Z"/><path class="cls-2" d="M2268.65,2116.57a4.27,4.27,0,0,1-.44.3,4.9,4.9,0,0,1-6.74-1.61,5.11,5.11,0,0,1-.18-5.38,6.56,6.56,0,0,1,3.69-3c2.48-.91,8.7-1.59,17.5-1.88,39.29-1.25,134.73,3.25,161,3.14,3.81,0,21.76,1,28.69,2.78a10.58,10.58,0,0,1,5.62,3.12,6.09,6.09,0,0,1,1.33,3.83,5.78,5.78,0,0,1-9.67,4.28l-.15-.05c-6.23-1.62-22.39-2.64-25.82-2.65-26.2-.12-121.45-5.44-160.69-4.51-6.6.15-12.55,2.69-14.11,1.59Zm1.75-5.05v0Zm-.15-.49a1.55,1.55,0,0,0,.08.23v0l-.09-.29v0Zm-.17-.4.08.17,0-.09,0-.08Zm-.11-.23.05.09,0-.06v0Z"/><path class="cls-2" d="M2259.47,2114.32l-4.64,149.26a9,9,0,1,0,18,0c-.5-17.95-1.24-46.9-1.79-74.57-.74-38.59-1.19-74.61-1.19-74.61a5.19,5.19,0,0,0-10.37-.08Z"/><path class="cls-2" d="M2473.64,2123.41a6.21,6.21,0,0,1,11.65-3.79,9.88,9.88,0,0,1,.75,4.55c-.06,2.42-.37,7.45-.84,14.37-2.12,30.91-7.52,100.29-7.81,140.76a5.09,5.09,0,1,1-10.17,0c-.12-17.44.63-40.24,1.65-63.05,1.54-34.29,3.69-68.62,4.48-84.7.2-4,.31-6.76.3-8.12v0Z"/><path class="cls-2" d="M2583.79,2034.61l1.11,96.77a4.26,4.26,0,1,0,8.52,0l3.44-96.77a6.54,6.54,0,0,0-13.07,0Z"/><path class="cls-4" d="M2263.7,2277c3.27-1.73,42.65,2.37,56.28,2.37,50.82,0,105.75,5.43,153.32,5.43"/><path class="cls-2" d="M2547.54,2171.59a43.66,43.66,0,0,0,6.26,1c11.75,1.26,27-.25,34,.6,13.27,1.77,40.62,3,68,3.53s54.75.41,68.13-1.08a2.94,2.94,0,1,1,.73,5.83c-13.51,1.88-41.21,2.93-68.93,3s-55.52-.92-69-2.5c-7-.9-22.19.51-33.88-.86-7-.82-12.84-2.75-16-6a4,4,0,0,1-.07-5.88,9,9,0,0,1,1.08-.94c1-.79,3.25-2.38,6.3-4.49,17.11-11.85,60.94-41.08,62.38-42.14a3.55,3.55,0,0,1,4.26,5.68c-1.43,1.09-44.88,31.12-61.88,43.24l-1.36,1Z"/><path class="cls-2" d="M2794.81,2124.33c-3-.15-6.92-.29-10.73-.28-42.84.1-145.5,5.74-174.52,5.68a4.61,4.61,0,1,1,0-9.22c29-.06,131.65-6.24,174.48-6.43,9,0,15.51.23,18.39.78,6.3,1.21,6,6.11,5.05,8-4.7,9.39-15.19,19.73-27.12,29.07-17.91,14-38.91,26-45.93,29.91l-2.9,98.89a4.22,4.22,0,1,1-8.43,0l1.9-101.91a4.74,4.74,0,0,1,2.5-4s25.55-13.92,46.72-30.65c8.12-6.42,15.64-13.2,20.59-19.79Z"/><path class="cls-2" d="M2542.1,2176.39c.51.29-.39,1.93-.57,3.72-.85,8.88-1.29,28-1.34,47.15-.08,26.38.53,52.72.53,52.72a7.6,7.6,0,1,1-15.2-.39s1.72-23,3.64-47.49c1.39-17.8,2.86-36.38,4.22-47.56a71.08,71.08,0,0,1,1.67-10.05,5.21,5.21,0,0,1,2.09-3,3.61,3.61,0,0,1,5,4.93Z"/><path class="cls-2" d="M2802.71,2121c.15,7.8.15,16.08,0,24.67-.47,32.79-2.42,69.75-1.91,99.61a4.48,4.48,0,1,0,9,0c.12-7.82.41-16.13.84-24.71,1.6-32.83,4.84-69.74,5.37-99.57a6.64,6.64,0,1,0-13.28,0Z"/><path class="cls-2" d="M2679,2295.23c-11.37-.8-29.48-1.43-50.2-2-62.14-1.64-147.12-1.61-150.36-1.7a7.39,7.39,0,0,1,.69-14.77c2.17.14,41.36,1.77,85.66,3.72,29.5,1.29,61.25,2.73,85.87,4.15,24.18,1.4,41.71,3,44.44,4.42a4.12,4.12,0,0,1,2.25,2.79,4.07,4.07,0,0,1-.72,3.68,4.15,4.15,0,0,1-1.26,1.14,14,14,0,0,1-1.27.7c-1.65.83-5.13,2.52-9.88,4.79-27.59,13.2-98.32,46.37-98.32,46.37a3.83,3.83,0,0,1-3.28-6.92s68-32.48,96.38-46.39Z"/><path class="cls-2" d="M2583.18,2354.44c-2.65-1-7.95-2.21-15.17-3.5-19.49-3.49-51.83-7.88-84.33-11.72s-65-7.06-84.93-9.84c-10-1.39-17-2.64-19.5-3.67a4.78,4.78,0,0,1-3.16-3.3c-.27-1.31-.12-3.39,2.67-4.57,6.56-2.82,52.66-19.42,80-28.89,8.41-2.91,15.06-5.16,18.26-6.12a9.1,9.1,0,0,1,4.51-.43,4,4,0,0,1-1,7.72l-.31.08c-1.52.39-4.65,1.36-8.88,2.75-19,6.21-59.89,20.49-79.54,27.64a55.91,55.91,0,0,0,7.95,1.75c19.92,2.68,52.36,6,84.79,8.8,32.8,2.84,65.53,5.2,85.32,7.46,8.69,1,15,2,18.1,2.92a10.94,10.94,0,0,1,4.35,2.43,7,7,0,0,1-9.09,10.49Z"/><path class="cls-2" d="M2580.55,2349.94a6.38,6.38,0,0,1,0-3c.83-3.45,13.45-8.35,13.1,3.79-.11,3.84-.56,12.1-1.21,23.41-1.57,27.26-4.6,72.39-7,116-2.81,51.66-4.77,101.14-4.72,115.76a5.83,5.83,0,0,1-11.66,0c.06-14.69,3-64.38,5.61-116.33,2.18-43.58,4-88.76,5.12-116,.44-11.13.7-19.26.72-23,0-.2,0-.39,0-.58Z"/><path class="cls-2" d="M2687.2,2298.49l-4,126.31a4.42,4.42,0,1,0,8.84.36l6.48-126.21a5.68,5.68,0,0,0-11.35-.46Z"/><path class="cls-2" d="M2722.17,2279c2.47-2.61,13-6.16,26-10,27.82-8.32,66.52-16.95,66.52-16.95a5.28,5.28,0,1,0-2.58-10.25s-38.49,10.79-66.14,20.41c-14.2,4.94-25.59,9.78-28.22,12.79a3,3,0,1,0,4.46,4Z"/><path class="cls-2" d="M2728.14,2284.88a4.74,4.74,0,0,1-2.3-.11,4.86,4.86,0,0,1-3.27-6.05c.13-.48,1.71-3.74,6.3-3.56,2.23.1,6.91.54,13.31,1.22,30.64,3.26,101.88,12.08,129.29,12a5.41,5.41,0,0,1,0,10.82c-27.66-.1-99.47-9.5-130.36-13-6.09-.69-10.54-1.15-12.66-1.25l-.31,0Z"/><path class="cls-2" d="M2812.79,2240.49c.31-.46.75-.27,1.21.22a5.13,5.13,0,0,1,1.39.63c2.35,0,6-.11,10.22,0,38,.69,137.84.85,144.89.89a4.59,4.59,0,0,1,2.76.88,4.39,4.39,0,0,1,1.76,2.67,4.34,4.34,0,0,1-.67,3.6,6.69,6.69,0,0,1-2.07,1.83c-1.37.84-4.56,2.47-9,4.59-21.89,10.46-75.47,34-86.34,38.8l-4.6,84a2.62,2.62,0,0,1-5.24-.23l3-86.28a3.5,3.5,0,0,1,2.06-3s52.3-24.2,79.9-37.63c-32.29.3-97.46.87-126.54.68-9.21-.07-15.12-.37-15.92-.59a5.18,5.18,0,0,1-3.78-3.59,5.52,5.52,0,0,1,3.12-6.8,11.41,11.41,0,0,1,3.12-.61,6.6,6.6,0,0,1,.77,0,1.5,1.5,0,0,0-.22.49c-.07.23.64.32,1.93.35l-.21-.3-.29-.32a5.49,5.49,0,0,0-1.21-.22Z"/><path class="cls-2" d="M2716.9,2279.91a6.31,6.31,0,0,1,.91-5.33,6,6,0,0,1,6.25-2.62,6.81,6.81,0,0,1,5.45,6.54c.14,1.86.12,6-.06,11.62-.4,12.86-1.73,34.17-2.55,54.71-1,25.09-1.35,49-1.31,54.43a5.06,5.06,0,0,1-10.11,0c0-5.49,1.4-29.48,2-54.73.49-20.44.37-41.68.12-54.47-.1-4.75-1.94-9.52-.71-10.15Zm7.06,4.49a5.3,5.3,0,0,0,4.1-2.57,6.26,6.26,0,0,1-4.1,2.57Z"/><path class="cls-2" d="M2959.27,2248.11s-3.38,50.47-5.28,89.56c-.79,16.38-1.35,30.77-1.21,38.68a4.58,4.58,0,0,0,9.16,0c.16-9.79,1.67-29.61,3.57-50.71,3.26-36.27,7.63-76.31,7.63-76.31a7,7,0,0,0-13.87-1.22Z"/><path class="cls-2" d="M2791.63,2366.77c-7.67,2.11-45,22.12-77.6,42.05-21.25,13-40.48,25.88-48,33.7a4.75,4.75,0,1,0,6.72,6.72c7.48-7.21,26.34-18.83,47.16-30.41,31.78-17.67,68.15-35.23,75.54-36.89a7.82,7.82,0,0,0-3.79-15.17Z"/><path class="cls-2" d="M2985.08,2385.17c-25.65.08-80.46.14-125.7-.67-25.58-.46-48.1-1.1-60.81-2.55a8.89,8.89,0,0,1,2.52-17.6c15.45,2.64,46.11,5.19,78.8,7,56.93,3.1,119.8,4.26,119.8,4.26a4.78,4.78,0,0,1,4.74,4.77c0,.46-.24,2.69-2.87,4.74-1.8,1.41-5.76,4.12-11.19,7.75-13,8.7-34.85,22.69-55.62,36.22-23.55,15.35-45.8,30-53,34.81,0,12,.1,61.19-1.1,99-.67,21.2-1.9,38.94-3.85,45.49a8.89,8.89,0,1,1-16.87-5.62c2.66-7.21,5.09-30,7-55.12,3-40.46,4.43-86.6,4.43-86.6a5.28,5.28,0,0,1,2.41-4.33s27.34-16.75,56.15-35.17c20.78-13.29,42.29-27.5,55.21-36.32Z"/><path class="cls-2" d="M2660.35,2449.4c-1.08,11.43-2.25,27.87-3.47,45.76-3.27,48.08-6.59,106.66-6.59,106.66a7.92,7.92,0,0,0,15.84.54s.47-47,1.58-91.42c.59-23.49,1.39-46.22,2.25-60.8a4.82,4.82,0,0,0-9.61-.74Z"/><path class="cls-2" d="M3001.92,2381.61,2987.58,2559a7.28,7.28,0,0,0,14.53,1l9.53-177.67a4.87,4.87,0,1,0-9.72-.66Z"/><path class="cls-2" d="M2996.58,2558l.27-.09a6.07,6.07,0,0,1,2.16-.37,3,3,0,0,1,2.19,1.12,2.92,2.92,0,0,1,.14,3.91,4.09,4.09,0,0,1-1.26,1.1c-1.18.71-5.69,2.81-12.42,5.8-33.32,14.78-122.47,52.24-122.47,52.24a5.27,5.27,0,0,1-2.42.37s-27.82-1.89-63.24-4.6c-62.07-4.76-147.47-11.85-147.47-11.85a4.67,4.67,0,0,1,.7-9.32s85.5,5.67,147.59,10.18c31.12,2.27,56.35,4.28,62,4.74,10.86-4.19,91.21-35.22,122.64-48,5.76-2.34,10.25-5.45,11.56-5.24Z"/><path class="cls-2" d="M3003.27,2088.53c-7.16,3.23-44.68,20.18-72.6,33.82-14.86,7.26-27,13.44-29.9,16.14a3.13,3.13,0,0,1-4.34-4.51c3-3,15.37-10.2,30.75-18.44,30.53-16.34,72.85-37,72.85-37a5.18,5.18,0,0,1,2.42-.49s13.74.19,33.51,1.06c42.2,1.86,111.77,6.31,133.94,6.82a2.22,2.22,0,0,1,0,4.43c-19.47.48-75.5.6-117.53-.23-24.46-.49-44.15-1.34-49.1-1.57Z"/><path class="cls-2" d="M3075.83,2141.35c8-4.43,39.39-21.64,63.48-34,15.32-7.85,28-13.56,30.59-13.49a3.54,3.54,0,0,1,0,7.07c-2.36.07-13.05,6.37-26.32,14.19-26.82,15.81-62.82,38.82-62.82,38.82a6.78,6.78,0,0,1-3.7.95s-15.14,0-36.3-.85c-7.45-.28-15.64-.71-24.17-1.25-32.36-2.06-69.67-5.31-90.59-7.67a145.91,145.91,0,0,1-15.55-2.3c-5.75-1.48-4.69-6.32-3.67-7.48a4.17,4.17,0,0,1,5.2-1l-.07.17c0,.1.24.05.41.08h.1l.25.2a4.34,4.34,0,0,1,.53.52c-.14-.23-.28-.46-.43-.66l-.35-.06-.09-.06-.35-.2c.19-.31.49-.08.79.32,2.49.42,7.4.75,14,1.11,20.93,1.12,58.2,1.7,90.48,2.63,8.53.25,16.71.55,24.14.91,16.87.83,29.87,1.72,34.43,2ZM2913.68,2140l-.08.13,0-.06,0-.07Zm.44-2.82a4.22,4.22,0,0,1-.39,2.74,3.58,3.58,0,0,0,.39-2.74Z"/><path class="cls-2" d="M3081.25,2156.62a35.89,35.89,0,0,0-1.72,5c-1.77,10.55-3.42,28.71-4.8,46.57-1.52,19.68-2.72,38.94-4,47.41a3.3,3.3,0,0,1-6.54-.82c1.47-16.34.4-72.3,2.29-94.78a41.47,41.47,0,0,1,1.86-10.35,9,9,0,0,1,2-3,7.6,7.6,0,0,1,10.79.06,7.07,7.07,0,0,1,.17,9.86Zm-8.13,1.57a7.06,7.06,0,0,1-2-1.39,5.43,5.43,0,0,0,2,1.39Z"/><path class="cls-2" d="M2897.63,2136.58l0,109.4a4.15,4.15,0,1,0,8.3,0c.16-6.21,1-24,2.19-43.5,1.82-30.69,4.23-65.39,4.23-65.39a7.39,7.39,0,1,0-14.77-.51Z"/><path class="cls-2" d="M3171.64,2089c3.46-1.22,7.94-.66,7.13,5.93-.22,1.78-.77,5.6-1.54,10.88-3.44,23.63-11.34,77-14.37,107.45a3.6,3.6,0,0,1-7.18-.6c2.06-30.65,8.31-84.39,10.94-108.21.57-5.19,1-8.93,1.11-10.68v0a5.49,5.49,0,0,1,.19-1.92,2.23,2.23,0,0,1,.47-.8,3.24,3.24,0,0,1,3.24-2Z"/><path class="cls-2" d="M3063.43,2253.57l95-48.25a4.18,4.18,0,1,1,3.85,7.42l-95.65,50.4a5,5,0,0,1-2.85.52s-60.73-6.31-84.5-8.1c-3.8-.28-7.88.87-8-.39l-.17,0a5.79,5.79,0,0,1-6.5-5,5.36,5.36,0,0,1,4-6.31,8.24,8.24,0,0,1,2.67-.36c1.5,0,4.66.23,9,.63,21.64,2,73.79,8.24,83.21,9.37Z"/><path class="cls-2" d="M2651.52,2603.18a7.93,7.93,0,0,1,1.86-5,8,8,0,0,1,11.32-1c2.39,2.09,5.06,7.41.64,13.91-2.44,3.6-7.91,9.12-13.18,14.09,19.87,1.43,55.29,3.86,95.65,6.13,24,1.34,49.82,2.67,75.11,3.54,21.72.74,43.08,1.13,62.62,1.28,24.69.19,46.46-.21,62.48-.71a8,8,0,1,1,0,16.06c-19.45-.56-47.28-2.38-78.52-4-24.84-1.32-51.8-2.63-78.32-3.75-33.86-1.44-67-2.45-94-3.38-37.14-1.29-62.7-2-62.7-2a7.18,7.18,0,0,1-4.38-12.55s16.31-15,21.42-22.53Zm2.14,5.6a5.5,5.5,0,0,0,.74.7,7.08,7.08,0,0,1-.74-.7Z"/><path class="cls-2" d="M3054.57,2571.44l-60.24-.71a3.56,3.56,0,1,1,0-7.12l75.58-.35a4.18,4.18,0,0,1,2.11,7.78l-114.31,69.26,3.56,116a7.93,7.93,0,0,1-15.85,0l.63-119.1a5.76,5.76,0,0,1,2.85-5.07l105.64-60.69Z"/><path class="cls-2" d="M2635.68,2762.53c21.82-.55,109.12-2.71,190-4.06,52.85-.88,102.93-1.36,130.17-1.15a3.18,3.18,0,0,1,0,6.35c-21.52.16-57.32,1.06-97.48,2.13-100.22,2.69-227.52,6.78-227.52,6.78a5,5,0,0,1-5.11-5s.41-65.94,1.59-103.77c.34-11,.76-19.61,1.23-23.72.39-3.34,1.59-5.13,2-5.56a5.17,5.17,0,0,1,8.4,5.69v.05c-.32,1.85-.59,5.73-.86,11-1.41,27.81-2.18,92.55-2.37,111.24Z"/><path class="cls-2" d="M3069.89,2571a1.86,1.86,0,0,1,2.56-1.93,3.64,3.64,0,0,1,1.15,3.12c-.07,2-.36,6.15-.71,11.82-2,33.08-7.37,117.54-7.37,117.54a5.86,5.86,0,0,1-3.18,4.67s-9.26,5.05-22.59,11.8c-15.31,7.75-36,17.63-53.15,26.73-14.44,7.66-26.44,14.46-30.64,18.37a2.62,2.62,0,0,1-3.71-3.71c5-5.39,21.9-16.49,40.81-27.95,12.83-7.77,26.46-15.85,38-22.17,10.45-5.73,19.05-10.11,23.24-12.19,2.1-15.85,11.16-84.44,14.43-113.46.63-5.58,1-9.69,1.15-11.66,0-.48-.09-1,0-1Z"/><path class="cls-2" d="M2319,2468.71c6.2-.23,26.88-.66,52.28-.84,43.43-.32,100.48-.11,122.5-.67a3.15,3.15,0,1,0,0-6.3c-13.66-.29-40.82-1.25-69.81-2.7-45.18-2.25-94.73-5.43-105-5.77a8.14,8.14,0,0,0,0,16.28Z"/><path class="cls-2" d="M2236.28,2496.51c18.61.74,43.76,1.81,65.26,3,17.42,1,32.46,2.09,39.81,3.2,3.81.57,23.33,2.7,40.46,4.15,12.54,1.06,23.71,2,25.71,1.34,9.11-3,27.48-11.05,45.17-19.5,20.07-9.58,39.32-19.53,42.8-23a3.18,3.18,0,0,1,4.49,4.5c-3.07,3.11-18,11.5-35.32,20.27-20.33,10.31-43.92,21.26-54.72,24.94-1.87.64-10.83.55-21.91-.14-18.6-1.14-43.52-3.45-47.9-4.05-7.21-1-22-1.8-39-2.5-39.8-1.62-92.11-2.44-92.11-2.44a5.43,5.43,0,0,1-1.82-10.5l104.1-41.55a6.54,6.54,0,0,1,4.85,12.14l-79.83,30.05Z"/><path class="cls-2" d="M2412.93,2514.4c1.18,1.06-1.47,6.18-2,11.8-3.11,30.62-5.66,104.17-5.13,127.81a6.32,6.32,0,1,1-12.64,0c.54-23.85,6.62-97.88,11-128.63.94-6.67,1.82-11.4,2.57-13.34a4.35,4.35,0,0,1,2.92-2.95,3.24,3.24,0,0,1,3.29,1.06,3.19,3.19,0,0,1,.07,4.25Zm-3.9.74h0l-.06,0,0,0Zm-.17-.1h0l-.18-.11.17.11Zm-.35-.25,0,0-.08-.07,0,0Zm-.16-.14-.18-.18.18.18Z"/><path class="cls-2" d="M2203.77,2501.38c-.07,8.89-.5,20.16-1.13,32.74-2.17,43-6.64,101.25-6.92,131.85a5.79,5.79,0,0,0,11.57,0c-.09-8.9.14-20.16.54-32.71,1.4-43.18,4.85-101.48,4.59-131.88a4.33,4.33,0,0,0-8.65,0Z"/><path class="cls-4" d="M2203,2665.26c-.37-1.21,146.68,2,191.1,2"/><path class="cls-2" d="M2492,2466.4c-2.66,22.17-7.81,66.41-11.46,103-1.78,17.87-3.25,33.89-3.66,44.76a8.89,8.89,0,0,0,17.78,0c-.5-13.52-.18-35.3.76-58.54,1.34-33.16,3.76-69.15,5-88.46a4.21,4.21,0,1,0-8.39-.76Z"/><path class="cls-4" d="M2393.68,2667.55c32-18.2,63.77-38.56,96.09-54.72"/><path class="cls-2" d="M2488.76,2621.19c11.08-.41,29.5-1.85,50.49-3.15,16-1,33.46-2.13,50.23-2.7,11.78-.39,23.21-.44,33.51-.36,13.75.1,25.44.67,33.32,1.11a7.82,7.82,0,0,0,0-15.64c-9.56.49-24.59,1.88-42.09,3.15-5.38.39-11,.75-16.75,1-8.19.4-16.66.71-25.13.93-14.41.37-28.82.52-41.9.56-17.3.07-32.22-.22-41.68-.58a7.82,7.82,0,0,0,0,15.64Z"/><path class="cls-2" d="M2567.93,2666.66c4.56-3.33,21.87-16,38.94-29,19.92-15.19,39.47-30.77,39.47-30.77a7.71,7.71,0,1,1,9,12.55s-21.08,13.45-41.89,27.38-41.26,28.26-41.26,28.26a4.59,4.59,0,0,1-2.65.87s-12.26,0-30.17.24c-13,.17-28.87.47-45.24.84-28.06.64-57.42,1.45-75.52,1.64-9,.1-15.38,0-17.7-.23a7.71,7.71,0,0,1,2.19-15.27c5.32.92,33.93,2.09,65.89,2.83,16.78.4,34.46.69,50.23.79,23.84.16,43.33,0,48.74-.1Z"/><path class="cls-2" d="M2562.15,2677.11c-1.46,12.93-2.45,33.93-3,56.33-.83,31.5-.93,65.79-1.1,84.11a5.89,5.89,0,0,0,11.78,0c-.21-21-.84-63.19-.45-97.93.18-16.66.56-31.6,1.43-41.65a4.33,4.33,0,0,0-8.62-.86Z"/><path class="cls-2" d="M2564.35,2815.74c5-4.23,26.28-22.31,42.48-35.87,9.66-8.08,17.54-14.56,19.24-15.7a3.85,3.85,0,0,1,4.27,6.41c-1.64,1.09-9.25,7.38-18.58,15.18-18.44,15.44-43.49,36.77-43.49,36.77a3.82,3.82,0,0,1-2.47.92s-39.49.19-80,.19c-18.86,0-38,0-53.4-.23-14.13-.22-25.26-.61-30.55-1.31-3.53-.47-5.5-1.68-6.14-2.3a7.84,7.84,0,0,1-1.93-4.12,109.62,109.62,0,0,1-1.06-13.77c-1.32-34.18-.27-118.48-.53-129.54a8.57,8.57,0,0,1,17.14,0c-.19,7.6-2.82,49.66-4.38,86.41-.93,21.92-1.47,41.9-1.06,51.32a9.7,9.7,0,0,0,.18,1.36,21.91,21.91,0,0,0,3.95.92c14.08,1.4,44.28,2.48,74.51,3,37.11.61,74.24.43,81.82.38Z"/><path class="cls-2" d="M2280.74,2714.41c5.64-2.3,38.86-15.86,69.37-29.06,18.71-8.09,36.36-16.11,46.14-20.94a1.9,1.9,0,1,1,1.7,3.4c-7.72,3.89-20.41,9.7-34.54,16.2-35.71,16.42-80.9,36.8-80.9,36.8a3.35,3.35,0,0,1-1.6.25s-56.49-3.45-112.93-7.89-112.76-9.88-112.76-9.88a5.5,5.5,0,0,1-1.48-10.62s58.53-21.92,101.54-36.53c17.67-6,32.75-10.75,40.2-12.37,3.36-.72,5.66-.73,6.63-.47a4.35,4.35,0,0,1-1.74,8.5h0c0-.59-1.59.22-3,.54-7.24,1.7-21.86,6.65-39,12.77-25.92,9.26-57.53,21.24-78.35,29.22,21.68,1.84,55.3,4.8,88.88,8.1,52.53,5.17,105,11.19,111.81,12Zm-80.37-62.61c0,.17-.35-.06-.47-.09a3.55,3.55,0,0,0,.47.09Z"/><path class="cls-2" d="M2281.68,2724.85h0c1.22.28-.73,3.79-1.31,7.4-2.47,15.48-7.07,49.23-9.88,77.46-1.49,15-2.47,28.41-2.36,36.56a6.22,6.22,0,1,1-12.43,0c.2-15,4.43-47.08,8.66-74.95,2.91-19.18,5.79-36.34,7.36-44.39.46-2.37.82-4,1.05-4.79a5.22,5.22,0,0,1,1.9-2.95,4.65,4.65,0,0,1,7,5.66Z"/><path class="cls-4" d="M2058.93,2706.86c2.13,1.42.44-10.25.44-7.68,0,49.23-2.66,98.19-2.66,147.45"/><path class="cls-2" d="M2059.82,2854.67a6.23,6.23,0,0,1-5.84-1.93,5.8,5.8,0,0,1-1-6.83,6,6,0,0,1,3.73-3.31,10.3,10.3,0,0,1,3.31-.36c2.78.09,9.57.84,11.33.84l30.56,0,89,1.37c11.25,0,35.83,4.27,55.28,4.3,8.32,0,15.6-.5,19.71-3.23,17.09-11.39,69.2-36.76,102.62-55.66,10.37-5.86,18.88-11.05,23.78-15a6,6,0,1,1,7.53,9.41c-5.23,4.19-14.29,9.8-25.36,16.07-33.14,18.79-84.85,44-101.8,55.3-5.55,3.7-15.23,5.32-26.49,5.31-19.44,0-44-4.25-55.27-4.24l-89-1.29-30.56,0c-1.78,0-8.5-.71-11.5-.82Zm4.91-7.1a5.87,5.87,0,0,0-1.51-3.14,6.23,6.23,0,0,1,1.51,3.14Z"/><path class="cls-2" d="M2204.68,2039.58c-5.61-8.41-49.23-63.71-86.35-78.85-10.15-4.14-19.93-5.44-28.59-3s-16.32,8.25-22.21,19.32a230.18,230.18,0,0,0-20.05,51.19,213.42,213.42,0,0,0-6.72,54.59c.06,10.72,1.41,22.62.12,33.67-.78,6.64-2.51,13-6.49,18.33a43.51,43.51,0,0,1-22.69,16.37c-14.66,4.75-30.9,4.44-47.5,11.19a58.59,58.59,0,0,0-27.66,23.13c-9.26,14.29-13.42,32.33-15.47,49.39-4.62,38.05,7.22,82.67,30.16,119.5,23.27,37.37,57.91,66.65,98,73.25a72.2,72.2,0,0,0,20.84.27c25.73-3.2,49.31-18.68,74.66-13.62a33,33,0,0,1,7.11,2.38c10.79,4.88,20.34,13.5,31.18,16.23,18.71,4.72,37,8.65,55.55,9.92a165.4,165.4,0,0,0,38.12-1.64,79.45,79.45,0,0,0,21.4-7,149.82,149.82,0,0,0,27.55-17.79,50.31,50.31,0,0,0,12.84-15.58c4.56-8.35,7.25-17.9,9.18-27.31,1.4-6.87,4-16.79,4.77-25.67a40.73,40.73,0,0,0-.68-12.65c-5.57-22.83-18.11-36.29-33.7-45.47-17.77-10.47-39.8-15-59.67-22-18.39-6.46-34.92-15-42.61-34.64-3.27-8.36-4.34-20.07-4.33-32.38a272.48,272.48,0,0,1,5.4-51.28c4.58-21.83,6.29-45,3.19-66.48-2.28-15.76-7.2-30.57-15.39-43.32Zm-14.32,9.4c8.9,13.27,13.4,29.39,14.88,46.4,1.46,16.73,0,34.3-3.17,51a288.59,288.59,0,0,0-4.79,54.33c.22,14.26,1.92,27.74,5.86,37.36,9.59,23.45,29,34.15,51.15,41.59,19.23,6.46,40.57,10.42,57.81,20.3,13.18,7.55,23.81,18.77,28.7,37.9.9,3.5.7,7.87.15,12.39-.92,7.5-2.91,15.35-4,21a97,97,0,0,1-6,20.63,42.16,42.16,0,0,1-11.82,16.18,148.16,148.16,0,0,1-21,14.41c-7.35,4.06-15.12,7.25-23,8.6a154.46,154.46,0,0,1-35.8,1.75c-18-1.12-35.7-4.92-53.85-9.41-10.32-2.57-19.31-11-29.57-15.58a42.62,42.62,0,0,0-9.19-3,64.56,64.56,0,0,0-21-.52c-24.46,3.1-48.16,18.2-74.83,13.74-37.43-6.32-69.46-34.07-91-69.07-21.44-34.84-32.48-76.95-27.88-112.79,2-15.36,5.67-31.67,14.13-44.48a47.34,47.34,0,0,1,22.44-18.49c19.6-7.72,38.58-5.73,55.21-13.67a55.51,55.51,0,0,0,20.72-17.22c5.4-7.12,8-15.48,9.18-24.34,1.49-11.55.33-24,.39-35.24a200.09,200.09,0,0,1,6.91-51,215.82,215.82,0,0,1,19.45-47.76c10.27-18.63,27.65-13.36,44.94-2,30.28,20,60.59,60.1,65,66.93Z"/><path class="cls-2" d="M2526,1343.53l.24.1c1.4.58,4.4,1.62,8.68,3,17.12,5.66,54,17.11,89.83,30.38,24.25,9,48,18.8,65.17,28,12.44,7,23.85,13.47,34.15,19.82,12.44,7.66,23.34,15,33,21.75,41.82,29.16,60.85,48.79,73.61,59.61,7.23,6.14,12,9.37,18.33,9.49a3.49,3.49,0,1,1,0,7c-6.87.14-12.55-2.4-20.09-7.88-15-10.87-38.62-33.68-100.33-71.13-13.32-8.09-28.29-17.1-45.43-26.66-12.61-7.32-29.06-15-46.57-22.6-38.63-16.68-82.37-32.48-102.6-39.94-5.17-1.9-8.84-3.27-10.54-4-2.55-1.12-3.16-2.86-3.23-3.21a3.68,3.68,0,0,1,2.82-4.37,3.63,3.63,0,0,1,2.92.61Z"/><path class="cls-2" d="M2838,1518.42a10.65,10.65,0,0,1,6.52-4.71c8.83-1.71,12.21,3.24,13.27,5.58s2.43,6.17-.31,10.57a30.14,30.14,0,0,1-5.74,6.12c-2.47,2.06-5.92,4.41-7.22,6.17l-18.76,23.34c-4.62,5.89-22.5,26.38-44.12,51.47-13.89,16.11-29.32,34.07-43.82,51.18-27.46,32.38-51.67,61.48-56.76,67.59l14,44.82a2.68,2.68,0,1,1-5.11,1.61L2675.11,1736a2.8,2.8,0,0,1,.51-2.67s18.56-23,41.87-52.73c13.05-16.63,27.58-35.33,41.24-53.24,25.64-33.64,48.23-64.31,53.28-71.8l16.16-24.26c1.75-2.92,6.44-12.26,9.79-12.85Zm9.61,16.39a6.57,6.57,0,0,0,2-.29,10.72,10.72,0,0,1-2,.29Z"/><path class="cls-2" d="M2841,1539.16l.33.39c3.07,3.49,10.13,10.1,20.19,19.08,43.43,38.75,140.61,120.33,216.82,189.46,44.49,40.35,81.95,76.44,97.32,98,8.11,11.28,18.13,27.53,23.64,44.15,4,12,5.56,24.15,2.9,35-6.62,27.3-26.55,54-52.08,72.14-25.94,18.43-57.62,27.86-87.12,20.79-8.21-2-29.44,0-50.62,3.28-20.37,3.18-40.72,7.75-49.44,12.25a8.57,8.57,0,1,1-7.67-15.32c9.76-4.73,32.29-9.55,54.87-12.51,23.64-3.09,47.3-4.15,56.38-1.76,25.63,6.67,53.36-1.53,76.27-17.23,23.36-16,41.83-39.85,48.16-64.45,2.27-8.89.81-18.87-2.37-28.7-5-15.54-14.35-30.71-21.86-41.28-15.17-21.15-51.93-56.68-96-95.86-76.91-68.32-175.76-147.82-220-185.67-11-9.41-18.71-16.34-22.08-20s-4-6.77-4-8a8.57,8.57,0,0,1,16.38-3.84Z"/><path class="cls-2" d="M3047.44,1886.23a9.1,9.1,0,0,1-15.09,3.62c-2.16-2.59-4.23-5.88-2-10.27a21,21,0,0,1,7-7.31c12.6-8.6,47.23-26.63,51-27.59a4.43,4.43,0,1,1,2.81,8.41c-3.35,1.4-32.85,22.59-43.07,32.41a3.41,3.41,0,0,0-.57.73Zm-1-7.81a5.37,5.37,0,0,0-1.18-1.44,9.91,9.91,0,0,1,1.18,1.44Z"/><path class="cls-2" d="M1876,1717.72c15.61,14.81,53.75,38.44,92.94,60.42,17.45,9.77,35,19.32,51.13,27.38,22.35,11.19,41.67,19.67,52.77,23.5a2.6,2.6,0,0,1-1.65,4.93c-10.95-3.53-29.68-11.62-51.78-21.67-23.36-10.63-50.49-23.4-75.66-36.45-36-18.65-68-37.64-80.72-49.72a9.23,9.23,0,0,1-2.69-6.08c-.25-3,1.47-8.82,5.18-15.76,9.19-17.23,29.84-45,31.21-46.89,24-33.29,52.16-65.15,82.71-94.63a958.78,958.78,0,0,1,95.94-80.61c31.46-23.16,87.63-59.73,142.21-90.17,37.56-21,74.36-39,101.91-47.82a4.35,4.35,0,1,1,2.72,8.26c-26.95,9.1-62.85,27.45-99.45,48.68-53.56,31.07-108.57,68.31-139.33,91.8a976.25,976.25,0,0,0-93.32,80.81c-29.56,29.14-57.08,60.33-80.29,93-1.51,2.07-27.2,35.66-33.52,50.37a5.76,5.76,0,0,1-.31.6Zm-.23.4c-.4.66-.74,1.25-.31,1.33.93.18.8-.48.31-1.33Z"/><path class="cls-2" d="M1882.45,1743.34c-12.29,18-29.41,49.19-46.73,83-24.3,47.4-49.11,99.84-62.14,126.76-3.73,7.79-2.53,25,2.09,43.27,5.9,23.42,16.12,48.9,20.87,56.14,15.44,23.53,42,67.48,69.15,99.41,13.36,15.7,26.85,28.58,39.55,34.75,1.75.87,6.35,4.24,11.32,8.08,7,5.44,14.81,11.8,16.54,13.52a2.73,2.73,0,0,0,3.86-3.86c-1.77-1.78-9.75-8.39-17-14.06-5.33-4.18-10.29-7.84-12.17-8.8-15.32-7.91-31.72-26.3-47-47.65-21.9-30.55-41.48-67.11-53.82-87.9-4.11-6.91-12.21-31-16.85-53-2.95-14-5.12-26.92-2.09-32.72,13.68-26.5,39.87-78.06,65.22-124.72,17.62-32.45,34.79-62.5,47.12-79.71a10.92,10.92,0,1,0-17.9-12.53Z"/><path class="cls-2" d="M2082.85,1816.43c-5.73,19.94-10.82,36.92-15.49,52.33-5.78,19.07-10.54,35.83-13.92,53.28-4.23,21.87-6.41,44.61-5.17,74.16a9,9,0,1,0,17.89-1.82c-4.51-27.9-5.56-49.8-3.46-71,1.72-17.37,5.33-34.15,10.16-53.11,4-15.61,9-32.6,14.33-52.66a2.25,2.25,0,0,0-4.34-1.2Z"/><path class="cls-2" d="M2041.22,1826.38c-9.31,16.77-24.64,42.22-36.14,64.87a269,269,0,0,0-13.2,29.9,36.88,36.88,0,0,0-.91,21.16,47.32,47.32,0,0,0,9.41,17.48c16.8,20.56,51.27,34.73,52.46,54.54a2.79,2.79,0,1,0,5.57,0c.33-9.81-6.76-19.08-15.89-28.85-10-10.73-22.24-22.32-30-34.45-4.82-7.54-7.56-15.42-4.21-24.41,3.13-10.26,9-23.88,15.38-38.2,9.19-20.67,19.46-42.67,26.19-57.73a4.83,4.83,0,0,0-8.65-4.31Z"/><path class="cls-4" d="M2287.66,1369.51c-7.66-8.2,18.83,45,72.63,51.36,158.21,18.83,177.54-50.79,189-62.21"/><path class="cls-2" d="M2195.52,1832.18a7.64,7.64,0,0,1,2.86-2.08,7.83,7.83,0,0,1,10.61,5,7.31,7.31,0,0,1-.3,5.22,9.18,9.18,0,0,1-2.56,3.37c-1.16,1-3.74,3.14-7.33,6-19.94,15.88-71.71,55.8-71.71,55.8a5.85,5.85,0,0,1-7.32-9.13s50.08-41.76,69.32-58.38c3.11-2.69,5.41-6.62,6.43-5.81Zm3.66,12.62a6.78,6.78,0,0,0,5.27-.29,7.75,7.75,0,0,1-5.27.29Z"/><path class="cls-2" d="M2366,1833a5.18,5.18,0,0,1,1.72-.29,5.42,5.42,0,0,1,5.42,5.42c0,.65-1,5.2-6.56,5.73-2.54.24-7.93.42-15.28.55-32.23.55-103.16.09-134.06-.73-6.65-.18-11.5-.38-13.82-.58a9.87,9.87,0,0,1-5.76-2.15,7.5,7.5,0,0,1,7.13-12.75l.14,0c2.16.25,6.68.55,12.89.88,30.74,1.62,101.32,3.88,133.42,4.1,6.94,0,12,0,14.43-.18l.33,0Z"/><path class="cls-2" d="M2294.48,1891.42c8.45-7.66,26.12-21.39,42-32.94,11.56-8.41,22.14-15.66,27.5-18.64,2.5-1.39,4.32-1.92,5.08-1.9a3.41,3.41,0,0,1,.56,6.77c.07.22-.41,0-.56,0a2.54,2.54,0,0,0,.56,0h0c-.19-.57-1.48.81-2.75,1.65-6.4,4.23-19,14.36-31.81,25.08-13.59,11.42-27.27,23.52-33.34,30-.51.53-2.63,1.93-6.61,2.4-4.7.55-14.61,1.16-27.2,1.33-13.74.19-30.73-.08-47.55-.48-32.48-.76-64.33-2.25-71.15-2.44l-23-.62c-.52,0-.95,0-1.22,0h0l-.32,0a3.4,3.4,0,0,1,.3-6.78h0l6.37-.18a.76.76,0,0,0,.23-.17,3.18,3.18,0,0,1,4.49,0l.07.07,13-.35c6.82-.19,38.7-.95,71.19-1.5,16.76-.28,33.66-.57,47.35-.71,12.09-.12,21.61-.05,26.14-.42l.59,0Z"/><path class="cls-2" d="M2292.17,1904.47a3.93,3.93,0,0,1,.1-2.8,4,4,0,0,1,5.28-2.19,5.22,5.22,0,0,1,2.7,4.39c.2,1.72.4,5.35.62,10.32,1.06,24,2.29,80.29,2.41,100.73a4.7,4.7,0,1,1-9.39,0c.12-20.37-.43-76.44-1.22-100.42-.15-4.7-.3-8.13-.47-9.76l0-.27Z"/><path class="cls-4" d="M2122.07,1904.72c-2.69-4.63-3.37,55.46,1.9,68.12"/><path class="cls-2" d="M2362.63,1844.6a6,6,0,0,1,2.22-6.29,6,6,0,0,1,9.33,2.91,9,9,0,0,1,.39,3c0,1.91-.34,6-.85,11.49-2.42,26.55-9.3,88.89-9.67,110a3.81,3.81,0,0,1-7.62,0c-.37-21.26,4.39-84.12,5.82-110.87.26-4.85.4-8.46.38-10.32Zm6.43,4.48a5.43,5.43,0,0,0,3-1.16,6,6,0,0,1-3,1.16Z"/><path class="cls-4" d="M2186.39,2023.05c2.09-.69,31.34,2.39,37.51,2.39,24,0,47.61,1,71.53,1"/><path class="cls-2" d="M2354.48,1963.61a4.92,4.92,0,0,1,1.55-3,5,5,0,0,1,7,.27c1.07,1.14,2.34,4.37-.22,8.23-2.8,4.21-11.94,13.11-14.07,15.6-3.21,3.73-18.89,16.91-31.45,28.79a147.33,147.33,0,0,0-12,12.44,5.79,5.79,0,0,1-8.89-7.41,161,161,0,0,1,13.3-13.25c12.47-11.34,28.06-23.83,31.25-27.41,2-2.28,10.7-10.27,13.52-14.23Z"/><path class="cls-2" d="M1763.78,2400.57c21.36.83,53.89,1.76,88.1,2.73,51.39,1.46,106.52,3.09,133.26,3.43a5.3,5.3,0,0,1,0,10.6c-24.23.31-71.75.51-118.71.1-28.33-.24-56.45-.66-79.13-1.3-20.82-.6-37.08-1.42-44.82-2.11a41.11,41.11,0,0,1-5.57-.79,8,8,0,0,1-3.76-2.06,6.74,6.74,0,0,1-1.54-8,8.91,8.91,0,0,1,3.49-3.87,118.75,118.75,0,0,1,10.67-5.53c26.79-12.72,95.07-41.65,101-45.12a7.55,7.55,0,0,1,3.09-.91c1.47-.14,4.49-.23,8.63-.27,18.84-.17,62,.57,81.55,0,4-.11,7.91-1.76,8.37-.63l.18-.08a4,4,0,0,1,5.17,2.17c.48,1.09.77,4.82-3.7,5.82a78.93,78.93,0,0,1-9.66.93c-19.53,1.12-62.79,1.69-81.64,2.44-3.52.14-7.16,1.62-7.63.62-9.61,5.14-58.16,27.6-87.39,41.85Zm-19.19,9c-1.25.59-2,1.13-1.57,1.7.68,1,1.26-.63,1.57-1.7Zm201.72-58.07v0l-.06-.22,0,.2Zm0-2.2a3.5,3.5,0,0,0-.11,1.87,3.93,3.93,0,0,1,.11-1.87Z"/><path class="cls-2" d="M1732.89,2411c.19,8.83-1.33,78.46-1.74,120-.16,15.64-.17,27.36.19,30.66a5,5,0,1,0,9.9-.9c-.31-4.17.47-22.24,1.65-44.43,2.22-41.61,5.9-97.46,6.06-105.33a8,8,0,1,0-16.06,0Z"/><path class="cls-2" d="M1980.37,2412.94l-2.79,65.86-4.12,91.45a7.5,7.5,0,0,0,15,0c-.25-8.45-.5-21.44-.65-36.42-.17-17-.22-36.45-.28-54.8l.07-66.09a3.62,3.62,0,0,0-7.23,0Z"/><path class="cls-2" d="M1738.83,2566.79c11.49.15,100.66,2.92,166.53,6.78,23.35,1.36,43.75,2.9,56.66,4.42,6.07.71,10.17,1.17,11.51,1.87a7.28,7.28,0,1,0,6.51-13,34.26,34.26,0,0,0-9.22-2.11c-11.84-1.46-36.2-2.52-64.93-3.35-66.11-1.92-155.54-2.55-167.06-2.4a3.91,3.91,0,1,0,0,7.82Z"/><path class="cls-2" d="M2047.87,2526.36c.12-4.81.39-13.32.92-23.37,1.15-21.33,3.57-49.48,4.74-64.39.35-4.47.6-7.75.78-9.31a4.25,4.25,0,0,1,4.26-3.93,3.27,3.27,0,0,1,2.31,4h0a2.09,2.09,0,0,1,0,.38c0,1.53,0,4.73,0,9.09.26,14.92,1.52,43.11,1.84,64.43.25,15.69,0,27.61,0,27.61a7.51,7.51,0,0,1-4.05,6.53s-9.37,4.56-21.76,10.7c-10,5-22,10.8-32.37,16.61-9.11,5.1-17,10-21.22,13.81a3.4,3.4,0,0,1-4.81-4.81c5.12-5.68,16.17-13.87,28.3-22,15.8-10.55,33.33-20.9,41-25.37Z"/><path class="cls-2" d="M1627.2,2360.58,1548.06,2405a6.32,6.32,0,0,1-6.15-11l80.8-44.74a6.05,6.05,0,0,1,3.06-.77s62.5,1.32,119.53,2.3c32.55.56,63.31,1,79.63,1.06a5.53,5.53,0,1,1,0,11.06c-16.35,0-47.18-.25-79.79-.64-51.61-.61-107.7-1.46-117.94-1.62Z"/><path class="cls-2" d="M1547.58,2405.09l-.1.06a3.68,3.68,0,0,1-4.8-2c-.65-1.56-.72-3.52,1.85-4.83a8.81,8.81,0,0,1,3-.63c2.78-.19,8.71-.13,16.82.06,42.11,1,144.47,6.24,164,4.09a5.4,5.4,0,0,1,1.08,10.74c-19.75,1.78-122.88-5.45-165.34-7.22-7.77-.32-13.46-.46-16.13-.32l-.43,0Z"/><path class="cls-2" d="M1549.42,2553.14c14.86.91,64.15,3.87,109.17,5.9,32.16,1.45,62.14,2.31,75.78,2.37a2.36,2.36,0,0,1,0,4.71l-189.81-4.28a4.5,4.5,0,0,1-4.31-4.56s-.22-38.82-.8-77.66c-.57-38.57-1.5-77.09-1.52-77.6a9.43,9.43,0,0,1,18.85.18c0,.52-2.24,39.05-4.12,77.64-1.51,31.09-2.79,62.17-3.24,73.3Z"/><path class="cls-2" d="M1929.38,2647.34c26.69-13.75,71.4-36.21,115.18-58,27.88-13.84,55.36-27.41,77.77-38,20.58-9.71,36.93-16.93,45.56-19.71a28.81,28.81,0,0,1,7.64-1.56,8.57,8.57,0,0,1,0,17.14c-1.31,0-3.92.77-7.65,2-17.14,5.55-51.22,19.78-89.1,36.73-53.12,23.77-113.59,52.8-146.48,68.71a28.85,28.85,0,0,1-7.06.52c-8.07-.06-24.91-.53-47.81-1.2-25.53-.75-58.61-1.83-95.43-2.93-44.47-1.33-94.41-2.78-143.16-4.1-119.22-3.26-231.31-6.15-239.32-7.41a5.57,5.57,0,0,1-5-5.09,5.84,5.84,0,0,1,2.4-5.82,20,20,0,0,1,1.81-1.19c2.08-1.27,6.53-3.82,12.61-7.26,35.1-19.9,125.31-69.89,125.31-69.89a8.57,8.57,0,0,1,8.06,15.13s-85.38,43.66-123.38,63.68c22.9,1.42,63.37,3.5,111.83,5.71,40.46,1.84,86.46,3.74,132.46,5.49,36.23,1.38,72.47,2.68,106,3.71,63.64,1.94,117.52,3.09,143.09,3.36,7,.08,11.82.06,14.16,0l.53,0Z"/><path class="cls-2" d="M2053.41,2532.56c9.49-1,22.72-1.3,37.27-1.06,30.89.51,67.65,3.18,87.71,3.57a4.52,4.52,0,1,0,0-9c-20,.4-56.83-.43-87.7-.11-14.78.15-28.21.48-37.84,1.61a2.53,2.53,0,1,0,.56,5Z"/><path class="cls-2" d="M1923.54,2656.22c-.49,8.69-.76,20.61-1,34.26-.71,44.61-.45,107.72-1.07,136.19a8.46,8.46,0,0,0,16.92,0c-.57-25-3.15-76.76-4.45-119.24-.62-20.48-.92-38.78-.67-50.84a4.88,4.88,0,1,0-9.75-.37Z"/><path class="cls-2" d="M1392.53,2633.69s.52,54.5.44,104.84c0,27.87-.32,54.44-.7,69.76a8.25,8.25,0,1,0,16.49,0l-7.29-174.84a4.47,4.47,0,0,0-8.94.24Z"/><path class="cls-2" d="M1935.51,2826.15l111.82-70.56a7.39,7.39,0,1,1,7.76,12.58l-114.7,69.34a6.1,6.1,0,0,1-3.46.91s-43.87-2.22-106.44-4.87c-31.77-1.35-68.36-2.79-106.47-4.16-109.27-3.9-231-7.49-287.51-8.66-13.87-.29-23.77-.39-28.52-.32-1,0-2,.4-2.1.09a7.39,7.39,0,0,1-4.35-13.95c.4-.2,3.32-.92,8.56-.85,8.13.1,25.08.69,48.13,1.55,66.86,2.53,185.16,7.83,287.51,12.06,27.09,1.12,53.06,2.12,76.67,3,59.23,2.15,103.53,3.56,113.1,3.86Z"/><path class="cls-2" d="M2179.19,2536.77a2.52,2.52,0,0,1-.24-2.15,2.61,2.61,0,0,1,1.38-1.65,2.33,2.33,0,0,1,3.4,1,4.65,4.65,0,0,1,.48,1.83c.16,1.59.22,5.29.2,10.46-.09,24.06-1.79,80.82-1.79,101.95a2.55,2.55,0,0,1-5.09,0c0-21.14,1.7-77.9,1.8-102,0-4.48,0-7.8-.14-9.49Zm4.46-.24-.05.09,0-.06v0Zm0-.07.09-.2-.09.2Z"/><path class="cls-2" d="M1842.65,2187.21l39-20.13a9.32,9.32,0,0,1,7.92,16.88l-41.09,18.19a12.07,12.07,0,0,1-4.28,1.08,120.21,120.21,0,0,1-15.3-.61c-34-2.78-112.91-13.13-139.94-13.73-7.89-.13-20,1-30.13,0-5.28-.49-10.09-1.53-13.77-3.44a4,4,0,0,1-2.43-3.86,5.25,5.25,0,0,1,2.52-4.07c3.7-2.51,16.64-6.59,18.26-7,4.58-1.19,25.53-8.39,51.23-17.57,47.51-17,111.22-40.51,119.52-43.25a2.34,2.34,0,0,1,1.48,4.43l-170.39,63.12c-.61.18-3.25,2-6.23,3.76,1.46.1,3,.14,4.48.16,9,.1,18.75-1.05,25.46-1.16,7.35-.14,18.52.33,31.61,1,36.69,2,88.55,6.05,112.25,6.58,4.5.09,9.18-1.78,9.81-.43Z"/><path class="cls-2" d="M1837.54,2200.88l-.16,125.47a4,4,0,0,0,8.08,0c.18-12,.73-30.73,1.46-50.1,1.26-33.88,3-69.71,3.07-75.37a6.23,6.23,0,1,0-12.45,0Z"/><path class="cls-2" d="M1640.83,2186.2s1.31,14.75,2.59,34.78c.68,10.63,1.34,22.68,1.86,34.78s.89,24.15,1.13,34.79c.43,19.95.39,34.78.39,34.78a2,2,0,1,0,3.91,0s-.06-14.82.34-34.78c.22-10.63.57-22.7,1.08-34.78s1.14-24.16,1.8-34.79c1.25-20,2.53-34.78,2.53-34.78a7.82,7.82,0,0,0-15.63,0Z"/><path class="cls-2" d="M1837.63,2329.26,1916,2279.7a5.25,5.25,0,0,1,5.61,8.87L1841.88,2339a5.3,5.3,0,0,1-2.92.81s-30.75-.36-67.28-1.71c-36-1.33-77.44-3.79-100.87-5.09-8.11-.45-14.06-.8-16.88-1-1-.09-1.65-.16-1.93-.22a2.29,2.29,0,0,1-1.89-2.9,2.11,2.11,0,0,1,1.5-1.54,2.24,2.24,0,0,1,1.23,0c.11-.13.71.09,1.39.12,2.8.12,8.7.23,16.75.3,23.45.23,65-.14,100.94.24,31.69.34,59,1.13,65.71,1.34Zm-184.23,2.16-.08,0,0,0,0,0Zm.84-.83a2.09,2.09,0,0,1-.79.8,1.93,1.93,0,0,0,.79-.8Z"/><path class="cls-4" d="M1546.26,1958c11.76,0,125.13,6.87,125.13,6.87s73.44-32.72,73.23-33.14c-1.16-2.31-122.82-2.62-122.82-2.62s-82.57,28.89-75.54,28.89Zm125.91,8.21c2.74-1.54-3.24,86.83-7.72,109.19m-122.29-117.46c4,9.22.88,120.48,4.93,124.53s86.44,1.18,113.75,1.18m84.92-141.38c-2.3-2.38.68-13.2.68-9.89,0,10.29-7.82,114.59-7.82,114.59l-70.93,35.77"/><path class="cls-2" d="M2970.38,1219.47a103.39,103.39,0,0,0-58.14-19.42c-25.78-.7-47.91,7.48-59.91,11.51-29.17,9.78-55.23,30.9-71.79,57.5s-23.59,58.57-14.92,90.16c8,29,30.94,54.9,59.49,70.89,28.17,15.78,61.72,22,91.44,12.31,40.13-13,64.58-34.61,78.16-60.06,16-29.92,16.87-65.23,10.21-98.33a2.42,2.42,0,1,0-4.74,1c6.36,32,5.57,66.13-9.93,95-13.1,24.41-36.74,45-75.33,57.39-28.35,9.11-60.28,3-87.08-12.11-27.15-15.32-49.08-39.9-56.58-67.58-8.12-30-1.26-60.24,14.5-85.37,15.87-25.31,40.77-45.39,68.61-54.62,11.57-3.83,32.88-11.73,57.68-11a96.67,96.67,0,0,1,54.31,18.38,3.46,3.46,0,0,0,4-5.64Z"/><path class="cls-2" d="M3341.91,939.82a139.72,139.72,0,0,0-39.4-4.87,154.33,154.33,0,0,0-39.12,6.1c-15.83,4.46-31.26,10.13-44.71,18.81A90.76,90.76,0,0,0,3194.73,982a77,77,0,0,0-12.4,25.06c-3.75,13-4.38,26.67-4.35,41.22a111,111,0,0,0,8.76,43.46c6.06,14,15.27,26.28,27.73,34.58,19.73,13.23,39.74,22.28,60.45,24.94,20.47,2.62,41.65-1,64-13.22a103.48,103.48,0,0,0,43.18-44.08c9.29-17.94,13.83-38.63,14.12-60.4.15-9.34.24-19.43-2.11-28.6a39.62,39.62,0,0,0-9.78-18.06,4.72,4.72,0,1,0-6.67,6.67,30.45,30.45,0,0,1,8,13.72c2.45,8.37,2.53,17.67,2.67,26.27.27,20.63-3.43,40.38-11.83,57.57a97.31,97.31,0,0,1-40,42.42c-21.22,12-41.42,15.77-61,13.44-20.13-2.39-39.57-11.22-58.79-24-11.83-7.88-20.57-19.54-26.3-32.86a106.59,106.59,0,0,1-8.34-41.89c0-14.14.65-27.46,4.34-40a72.54,72.54,0,0,1,11.84-23.62c8.16-10.81,18.36-18.73,29.7-24.84s24-10.45,36.81-14a149.34,149.34,0,0,1,37.88-5.57,134.06,134.06,0,0,1,37.82,5.07,2.84,2.84,0,0,0,1.5-5.48Z"/><path class="cls-2" d="M3363.24,879.34c-11.72-6-24.87-9.35-38.45-11.07-19.91-2.51-40.78-1.38-59.41.61-29.64,3.2-64,13.83-94.51,30.6-31,17-57.92,40.45-72.25,68.67a151.73,151.73,0,0,0-9.46,24,320.8,320.8,0,0,0-8.55,37.07c-6.24,35.19-.3,66.89,14.1,93.77a159.43,159.43,0,0,0,41.08,48.73c40,32.15,95.59,48.59,148.4,44.21,18.51-1.53,36.88-4.56,54-10.14,17.72-5.76,34.15-14.21,48.08-26.63,14.59-12.91,26.76-25.67,36.91-40.06a182.32,182.32,0,0,0,24.22-48.75,1.49,1.49,0,0,0-1-1.9,1.52,1.52,0,0,0-1.9,1c-6.26,18.68-14.14,34.07-24,47.83-10.11,14.1-22.3,26.48-36.82,39-13.69,11.77-29.73,19.69-47,24.92-16.87,5.11-34.89,7.62-53,8.71-50.92,3.05-103.85-14.07-141.88-45.63-15.67-13-28.8-28.46-38.15-46.08-13.31-25.06-19-54.46-13.23-87.22a311.66,311.66,0,0,1,8-36,143.18,143.18,0,0,1,8.67-22.53c13.24-26.89,38.65-49.16,67.78-65.67,29.37-16.64,62.55-27.41,91.25-30.88,18.13-2.2,38.43-3.62,57.87-1.42,12.9,1.46,25.42,4.51,36.62,10a2.87,2.87,0,1,0,2.57-5.13Z"/><path class="cls-2" d="M2885,311.4a123.22,123.22,0,0,0-48.35,4.36c-15,4.4-29.32,11.47-43.54,20.62-36.31,23.33-48.79,63.62-42.43,101.54,6.28,37.56,31,72.73,69,86.38,50.95,18.33,101.32-6.18,129.48-45.34,28.6-39.81,34.24-94.59-5.76-134.39a2.17,2.17,0,0,0-3.07,3.07c38,38.19,32.24,90.5,4.71,128.33-27,37.09-75,60.41-123.3,42.65-35.65-13.12-58.64-46.43-64.26-81.81-5.58-35.15,6.06-72.44,39.85-93.73,13.63-8.58,27.34-15.21,41.61-19.25a114.77,114.77,0,0,1,45.05-3.6,4.44,4.44,0,0,0,1-8.83Z"/><path class="cls-2" d="M2299.85,367.68a4.57,4.57,0,0,1,.8-9.06c1.21,0,4.17,1,8,3.83,8.44,6.2,24.65,21.41,39.09,39.22,14.57,18,27.11,38.64,28.92,55.48,5.35,50.69-21.61,96.3-61.61,123.2-39.76,26.73-92.22,34.79-137.83,12-50-25.39-72.73-72.36-70.18-118.57,2.5-45.49,29.52-90.28,79.13-112.4A125.33,125.33,0,0,1,2225,350.88c12.83-1.32,25.89-.74,39.89,1.11a3.71,3.71,0,1,1-.92,7.36c-13.39-1.58-25.87-2-38.1-.56a116.91,116.91,0,0,0-36.19,10.33c-45.72,21.18-70.36,62.92-72.11,105.13-1.75,42.06,19.37,84.55,65.12,107.07,41.55,20.76,89.15,12.9,125.47-11.25,36.66-24.38,62.06-65.48,57.68-111.83-1.15-12.39-9.06-27-18.86-40.88-14.46-20.45-33.24-39.19-43-46.84a47.75,47.75,0,0,0-4.13-2.84Z"/><path class="cls-2" d="M2356.09,285.64c-9-4.17-17.09-11.13-27.19-16.12a58.87,58.87,0,0,0-13.1-4.78c-84.92-19.69-181.89,12.87-248.72,73.12-67.83,61.14-104.59,150.76-66.65,243.63,5.78,14.19,15.17,28.46,26.22,42,16,19.67,35.56,37.81,52.36,51.92,53.43,45,121,57.28,184.68,45.44,64.7-12,125.31-49.05,163-102.2,18.52-26.06,32.28-51.63,38.61-78.52,6.42-27.3,5.24-56-6.48-88a6.75,6.75,0,0,0-12.64,4.74c11.2,29.17,12.77,55.43,7.26,80.54-5.63,25.6-18.49,50-35.71,75C2382.13,664,2324.2,700.22,2262.1,712.5c-61.4,12.15-126.85.85-178.93-42.1-16.64-13.76-36-31.42-52-50.66-10.78-13-20-26.68-25.68-40.35-37.62-90.63-1.86-178.5,64.24-238.57,65.72-59.72,161.43-92,245.28-72.77a56.31,56.31,0,0,1,12.36,4.5c10.13,5,18.22,12,27.28,16.15a1.68,1.68,0,1,0,1.41-3.06Z"/><path class="cls-2" d="M1601.35,1035.62c-60.92-63-145.67-38.54-202.71,17.61-56.63,55.75-85.63,142.39-35.81,203.2,33.66,41.18,83.29,64.19,132.91,67,51,2.89,101.93-15.54,135.45-57.59,17.4-21.78,39.27-63.4,44.92-102.81,3.88-27.07.1-53.09-17.87-71.06a.94.94,0,0,0-1.33,0,1,1,0,0,0,0,1.33c17.56,17.56,21.13,43,17.31,69.46-5.64,39-27.4,80.23-44.67,101.77-33.17,41.32-83.44,59.35-133.66,56.29-48.79-3-97.52-25.86-130.41-66.55-48-59.54-18.85-143.62,36.75-197.36,55-53.14,136.15-76.91,193.7-16.11a3.75,3.75,0,0,0,5.42-5.18Z"/><path class="cls-2" d="M1267.09,1021.25c22.69-44,44.34-77.13,72.7-101.45s63.66-39.87,113.29-48.92c119.66-21.78,218.65,64.76,263.22,175.6,43.4,107.9,35.37,239.24-56,317.81-20.75,17.83-45.55,29.34-72,36.77-39.76,11.17-83.27,13.14-122.73,13.19a3.82,3.82,0,1,0,0,7.63c40.14,0,84.4-1.91,124.87-13.17,27.62-7.68,53.49-19.68,75.18-38.23,94.46-80.75,103.61-216,59.18-327.39-46-115.24-149.14-204.44-273.47-182.18-51.84,9.28-88.55,25.51-118.33,50.89-29.36,25-52,59-75.57,104.43a5.47,5.47,0,0,0,9.71,5Z"/><path class="cls-2" d="M1246.93,1097.9a4.4,4.4,0,0,1,1-1.93,4.21,4.21,0,0,1,4.89-1.18,4.67,4.67,0,0,1,2.47,6c-.33.9-1.19,2.93-2.38,5.85-4.3,10.58-13,33.64-13.23,58-.32,28.65,3.48,55.89,12.53,81.27a190.3,190.3,0,0,0,43.64,69.69,1.54,1.54,0,1,1-2.18,2.17,193.69,193.69,0,0,1-46.46-70c-9.93-25.83-14.41-53.72-14.74-83.13-.24-21.33,5.63-41.89,10-54.61,1.66-4.78,3.1-8.43,3.93-10.58-.75-1.11-1-2,.44-1.57a4.63,4.63,0,0,0-.12.73l-.32.84c.13.21.29.41.45.63a4.3,4.3,0,0,1-.13-1.47l0-.14c.09-.24.33-.52.2-.56l-.13,0Zm4.3,5.46a3.79,3.79,0,0,0,3.17-1.4,4.4,4.4,0,0,1-3.17,1.4Z"/><path class="cls-2" d="M1573.48,1639a97.68,97.68,0,0,0-43.91-6c-15.15,1.38-29.91,6.21-41.73,14.75-9.2,6.64-16.57,16.52-22,28.26a120.44,120.44,0,0,0-9.54,34.08c-2.66,19.74-1.1,40.61,4.92,58.25,4.58,13.43,11.74,25,21.56,32.86,50.22,40.29,99.68,26.07,130.74-5.48,37.34-37.93,47.68-100.9,1-124.71a1.74,1.74,0,0,0-1.59,3.1c44.48,22.79,33.67,82.92-2.09,119-29.86,30.14-77.38,43.5-125.32,4.65-11.27-9.14-18.64-23.58-22.44-40a129.91,129.91,0,0,1-1.72-47,115,115,0,0,1,9.4-32.49c5.06-10.75,11.87-19.82,20.39-25.84,11.06-7.81,24.82-12.11,38.89-13.22a90.89,90.89,0,0,1,40.86,6,3.39,3.39,0,0,0,2.52-6.29Z"/><path class="cls-2" d="M2153.49,2026.9c-10.79-15.12-24.85-16-38.19-8.09-13,7.7-25.41,24.94-31.82,45.16-9.21,29.09-6.07,63.91,23.46,84.35,28.94,20,48.48,14.95,60,.06,15.5-20.12,15.72-62.14,3.53-90.09a5.48,5.48,0,1,0-10.06,4.36c10.6,24.49,11.27,61.3-2.36,78.87-8.57,11.05-23.06,12.41-44.57-2.57-24.86-17.32-26.68-46.91-18.83-71.44,5.49-17.13,15.67-32,26.71-38.5,7.85-4.62,16.12-4.08,22.42,4.82a6,6,0,1,0,9.75-6.93Z"/><path class="cls-5" d="M2459.56,908.93c-1.44-1.45.68-11.6.89-12.95,1.74-11,4.25-28.35,12.5-36.6l.08.2c8-8.05,28.55-25.24,37.86-31.89,25.81-18.43,55.77-32.28,85.24-43.74,6.06-2.35,38.73-13.66,43.74-11.16,10.93,5.47,14.5,58.15,14.5,66.36,0,.87-34.9,3.34-47.08,6-36.05,7.72-71.75,27.27-104,44.63-9.24,5-32.9,14.46-42.5,18.57"/><path class="cls-4" d="M2558.48,972.63c1.47,2.27,1.5,6.19-.41,8.1-.61.61-2.26-3.94-3.38-3.94-.69,0-1.12,5.06-1.12,5.06m18.16,54.95c-1.51,1.46-4.78,5.17-1.29,6.91m-328.53,26.75c.11.21-3.46,1.47-3.8,2.49-.41,1.24-1.48,5.41-2.25,6.19-1,1-2.07-2.16-3.37-2.81s-7.37-1.54-3.38,1.12m50-205.48c0,2.51,20.06,7.54,25.88,7.54m-16.26-5c-1-1.1,2,1.51,2.2,1.63,2.83,1.62,6,3.87,9,5.06,6.46,2.58,17.68,11.25,24.18,11.25"/><path class="cls-6" d="M2445.64,438.39c1.78-.9,11.42-1.81,23.47-2.95,20.91-2,48.73-4,58.5-5.05,17-1.82,39.69-4,63.67-6.85,14-1.66,28.35-3.62,42.37-5.68,26.64-3.91,51.88-8.38,70.06-13.29a1.3,1.3,0,0,0,1-1.58,1.32,1.32,0,0,0-1.59-1c-14.15,3.28-32.51,6.17-52.46,8.63-15.93,2-32.87,3.53-49.45,5.14-27.89,2.71-54.78,5.19-74.32,7-11.14,1.09-45.79,3.4-66.86,5.56-9.45,1-16.35,2.09-17.93,2.88a4,4,0,0,0,3.58,7.16Z"/><path class="cls-6" d="M1923.72,742.05s24.14-23.75,56.88-55.59c17.41-16.92,37.25-36.13,57.17-55.29,53.54-51.52,107.5-102.82,115.13-109.51a4.28,4.28,0,1,0-5.73-6.37c-6.61,6.12-48.52,48.44-94.51,94.72-21.11,21.24-43.08,43.32-62.87,63.11-37.83,37.83-67.63,67.34-67.63,67.34a1.13,1.13,0,0,0,0,1.58,1.11,1.11,0,0,0,1.57,0Z"/><path class="cls-6" d="M2166.72,570.53c15.16,22.07,35.57,32.85,58,36.5,20,3.25,41.6.82,62.45-4.52a298.45,298.45,0,0,0,39.5-13.44c16.41-7,31.91-17,43.25-29.94,11.57-13.22,18.85-29.48,18.57-48.67a1.58,1.58,0,0,0-3.16,0c-.27,18.16-7.65,33.3-18.9,45.54s-26.11,21.41-41.94,27.84a304,304,0,0,1-38.69,13.39c-20.14,5.38-41,8.2-60.4,5.36-21.45-3.14-41.1-13.14-55.92-34a1.67,1.67,0,0,0-2.74,1.91Z"/><path class="cls-6" d="M2006,574.67a1.11,1.11,0,0,1-.85-1.27,1.19,1.19,0,0,1,.8-1,1.52,1.52,0,0,1,1.41.27,26.29,26.29,0,0,1,3.73,4.09c3.83,4.73,9.83,13,15.7,20.88,7.18,9.69,14.08,18.83,15.61,21.16a3.86,3.86,0,0,1-6.7,3.83c-1.2-2.46-6.51-12.38-12.58-22.55-5-8.39-10.48-16.91-14-21.81-1.29-1.81-3.12-3-3.12-3.59Z"/><path class="cls-6" d="M2057.23,654.17c5.31,7.2,19.3,22.11,32.65,34.86,9.68,9.25,19,17.36,24.64,20.61,23.77,13.91,44.79,21.1,65.05,24.65,23.18,4.05,45.37,3.29,69.57,2.2a225.75,225.75,0,0,0,80.18-18.9,285.94,285.94,0,0,0,29.36-15c13.8-8,27.29-17.22,41-27a236.44,236.44,0,0,0,35.83-31.37c11-11.94,20.43-25.19,26.65-39.5,6.64-15.09,10.94-31.39,13.62-48a300.63,300.63,0,0,0,3.69-49.58,1.29,1.29,0,1,0-2.58,0,285.5,285.5,0,0,1-4.17,49,188.7,188.7,0,0,1-14.51,46.71c-6.45,13.59-16,26.09-27,37.23a229.13,229.13,0,0,1-35.87,29.23c-13.81,9.26-27.42,17.77-41.17,25.41-9.43,5.23-18.94,10-28.66,14.27-23.55,10.32-48.44,17.47-76.91,19.37-23.64,1.72-45.32,3.12-68.11-.23-19.8-2.89-40.42-9.36-63.92-22.25-6.59-3.64-18.58-14-30.05-24.9s-22.46-22.53-27.06-28.56a1.43,1.43,0,0,0-2.29,1.72Z"/><path class="cls-2" d="M2671.9,2461.43a6.29,6.29,0,0,1-5.5-10.46,6,6,0,0,1,3.64-2,46.74,46.74,0,0,1,5.71-.1c25.78.58,154.23,6.48,199.94,6.48a6.29,6.29,0,0,1,0,12.58c-45.77,0-174.4-5.9-200.22-6.47-1.64,0-3.12,0-3.57,0Z"/><path class="cls-2" d="M2383.3,2329.7a103.32,103.32,0,0,0-1.17,10.63c-2.12,27-4.27,90.87-4.27,112.31a3.15,3.15,0,0,1-6.29,0c0-21.54,2.16-85.72,4.29-112.81a102,102,0,0,1,1.33-11.64c.88-3.85,4.12-3.59,5-3.19a3.14,3.14,0,0,1,1.45,4.2,2.29,2.29,0,0,1-.3.5Zm-1.62,1.14a3.07,3.07,0,0,1-2.28-.17,2.84,2.84,0,0,0,2.28.17Z"/><path class="cls-7" d="M2064.29,1973.58s-3.63-84.72,19.61-140.33c23-55.16,29.51-84.4,35.12-102.34,67.46-215.78,180.2-315.26,180.2-315.26,90.57,67.83,228.8,1.12,228.8,1.12s43.35,43.47,77.15,90.1c26.91,37.11,52.79,80.9,61.69,100.34,19.5,42.58,20.86,95.32,20.86,95.32l-15.86,36.36,19.59,45s-132,2.74-154.92,4.3l-153.27,56.14-8.71-9.15s-165.64-10.31-176.33.38c-13.23,13.24-51.09,36.36-51.09,36.36-27.37,18.63-38.09,50.84-32.15,85.28,0,0-13-5-19.09-3-8.45,2.72-31.6,19.36-31.6,19.36Z"/><path class="cls-7" d="M2502,1436.14s83.41,69.17,112.59,113.87c30,46,67.41,161.89,67.41,161.89s59.09-78,68.38-90.81c41.6-57.29,74.29-96.08,74.29-96.08s-75.28-61-144.86-94.7c-53-25.66-117.78-52.86-117.78-52.86l-60,58.69Z"/><path class="cls-7" d="M2146.33,1677.46c37.33-18.53-4.83,73.5,10.87,61.08,26.51-21,69.63-150.89,79.79-167.71,7.89-13.07-21-47.84-12.76-67.93,13-31.71,36-60.28,36-60.28l33.72-34.95-17.83-26.83c-4.32-2.65-160.8,95.93-179.72,112.9-36.71,32.94-119.31,106-146.31,142-8.51,11.34-58.83,77.9-58.83,77.9s95.26,61.11,116.89,72.3c11.74,6.08,63.73,30.93,63.73,30.93s58.42-131.5,74.46-139.45Z"/><path class="cls-7" d="M2882.71,1748.6c-8.91-3.7-26.36-15.1-43.05,1.12-1.27,1.24,8.87,21.21,19.68,29.9,18.34,14.73,45.27,43.7,66.18,20.87,3.86-4.21-.86-34.45-42.81-51.89Z"/><path class="cls-7" d="M2754.86,1943.16s-21.23-16.3-37.11,3.32c-11.14,13.76,10.24,50.39,31.81,44.49,31.54-8.65,12.76-40.39,5.3-47.81Z"/><path class="cls-7" d="M2133.6,2040.16c2.5-7.72-15.69,6.2-21.94,21.45-7.32,17.85-11.28,41.51,2.17,54.95,4.23,4.23,15.54,28.89,32.27,18.14,16.21-10.43,7.43-50.08,6.92-65-.57-16.69-19.42-29.51-19.42-29.51Z"/><path class="cls-7" d="M2249.35,2328.91c-.91,1.34-11.44.16-13.27.62-6.54,1.63-10.37,5.1-15.74,9.14-9.36,7-6.12,21.8,4.06,26.9,9.23,4.61,18.4,1.28,27.41-1.52,14.45-4.5,11.51-33.58-1.53-34"/><path class="cls-7" d="M2861.78,1298s-8.47,13.48-9.12,16.08c-1.73,6.91-2.23,20.07,5.16,25,14.32,9.55,36.46,2.78,44.77-9.68,2-3,10-20.58,2.48-27.28-17.11-15.23-39.71-4.12-43.29-4.12Z"/><path class="cls-7" d="M3293.94,1046.51c1.17-.35-2.53-.07-3.62-.61-2.66-1.33-6.12.07-8.25,2.19-6.26,6.27-10,19.74,0,24.73,8.35,4.17,14.75-.37,18.14-7.14.66-1.33,4-7.5,2.19-9.34-1-1-4.39-5.64-4.39-7.15"/><path class="cls-7" d="M1496.9,1123s-16.23,12.52-18.16,16.38c-2.69,5.38-8.69,20.44-7.72,27.7,2.12,15.85,17.37,44.26,35.77,35.06,24-12,29.65-46.67,13.78-62.54-3.66-3.65-5.59-14.17-23.67-16.6Z"/><path class="cls-6" d="M2733.24,664.07c8-9.39,15.58-23.65,20.65-38.86,5-14.89,7.51-30.69,5.66-43.73-1.6-11.24-.54-32.36-20.19-46.69-10-7.31-25.54-12.87-49.76-14.29-26.55-1.53-48.63,2.82-67.9,11.22-21.32,9.29-39.2,23.54-55.95,40.18-8.68,8.7-17.4,18-26,27.56-35.68,39.8-70.12,84.84-98.9,114.13a1.09,1.09,0,0,0,0,1.53,1.1,1.1,0,0,0,1.54,0c29.32-28.77,64.82-73,101-112.35,8.66-9.43,17.33-18.62,26-27.19,16.26-16.24,33.61-30.13,54.31-39.27,18.62-8.22,39.94-12.6,65.64-11.3,23.13,1.14,38,6.18,47.63,13.07,18.6,13.32,17.39,33.36,19,43.93,1.89,12.54-.49,27.79-5.17,42.18C2746,639,2738.67,653,2731,662.17a1.48,1.48,0,1,0,2.26,1.9Z"/><path class="cls-6" d="M1963.44,779.88a1.82,1.82,0,0,1-.88-.58,1.8,1.8,0,0,1,2.08-2.79,5.62,5.62,0,0,1,1.42.9c2.12,1.69,6.92,6.38,8,7.06,5.11,3.35,10.42,7.16,15.87,10.55a83.47,83.47,0,0,0,10.92,5.88c18.35,8,36.14,16.46,54.71,23a194,194,0,0,0,37.85,9.54c19.76,2.79,40.65,2.44,62.07-.13a403.87,403.87,0,0,0,61.15-12.7c12.57-3.54,25.17-7.52,37.64-12A674,674,0,0,0,2339,771.89c17.55-9.13,34-18.8,49.16-28.28a1.12,1.12,0,0,1,1.21,1.89c-15,9.77-31.5,19.57-48.86,29.21-26.31,14.61-54.67,28.8-84,40.23-12.5,4.87-25.16,9.29-37.87,13a363.83,363.83,0,0,1-62.42,12.71c-22.06,2.41-43.57,2.24-63.85-1a201.11,201.11,0,0,1-38.79-10.63c-18.54-7-36.27-15.85-54.58-24.21a90.72,90.72,0,0,1-11.36-6.38c-5.4-3.51-10.68-7.43-15.75-10.87-1.06-.73-6-5.63-8.12-7.42l-.38-.29Z"/><path class="cls-2" d="M2908.13,2144.16c7.63,0,143.32,98.33,155,107.68,3.46,2.77-157.77-13.6-157.77-13.6s2.17-77.58,2.17-99.73"/><path class="cls-2" d="M2912.23,2140.66c.23.1.46.22.7.34,3.19,1.6,8.66,4.95,15.69,9.54,39.12,25.54,128.08,90.14,137.45,97.64a4.57,4.57,0,0,1,1.8,3.35,4.45,4.45,0,0,1-2.09,4.34,5.1,5.1,0,0,1-2.05.81,24.92,24.92,0,0,1-4.28.14c-23.65-.63-154.54-13.92-154.54-13.92a4.68,4.68,0,0,1-4.21-4.79s2.16-77.48,2.16-99.6a4.69,4.69,0,0,1,9.37,0v2.15Zm-.12,10.77c-.39,25.29-1.55,68.77-1.92,82.58,20,2,104.19,10.44,138.49,12.83-27.33-20.17-93.11-67.51-125.18-88.45-4.22-2.76-8.37-5.22-11.39-7Z"/><path class="cls-2" d="M2695.06,2288.65S2542.55,2178.24,2542.55,2180c0,7.92-8.84,92.22-7.39,93.68s159.9,15,159.9,15Z"/><path class="cls-2" d="M2694.79,2291.86a3.22,3.22,0,0,0,2.16-5.81s-123.61-89.48-148.33-106.12c-2.13-1.43-3.58-2.35-4.21-2.69a4.23,4.23,0,0,0-1.29-.46,3.13,3.13,0,0,0-2.38.53,3.05,3.05,0,0,0-1.4,2.66c0,7.12-7.17,76.06-7.54,90.84a18.23,18.23,0,0,0,.14,3.35,3.53,3.53,0,0,0,.95,1.76,3.36,3.36,0,0,0,1.27.8,42.5,42.5,0,0,0,5.43.87c26.69,3.21,155.2,14.27,155.2,14.27Zm-149.35-106.32c-1.22,16.08-5.56,59.42-6.87,78.79-.16,2.5-.25,5-.3,6.6.63.1,1.34.19,2.08.28,21.76,2.62,111.27,10.45,143.42,13.24-29.12-21-117.05-84.53-138.33-98.91Z"/><path class="cls-2" d="M2376.52,2322.62a3.23,3.23,0,1,1,6.42.57c-.11,1-1.4,6-1.6,8-.68,6.8-.56,13.73-.56,20.6v93a3.22,3.22,0,1,1-6.43,0v-93c0-7.07-.1-14.23.6-21.24.18-1.77,1.37-7,1.57-7.89Zm.5,1.74a2.94,2.94,0,0,0,2,1.42,3.2,3.2,0,0,1-2-1.42Z"/><path class="cls-2" d="M2382.09,2329.74c-.6-.62-6.82,123.15-6.82,123.15s119.53,9,121.8,10.09c4.47,2.24-2.7,128.3-5,137.53-.57,2.25,80.39,1.31,80.39,1.31l-72.39-264.11-118-8Z"/><path class="cls-2" d="M2494.6,2465.87c-2.21-.26-6.54-.74-11.36-1.18-31.75-2.87-108.21-8.59-108.21-8.59a3.22,3.22,0,0,1-3-3.37s5-100.32,6.49-119.93a25,25,0,0,1,.53-4.2,3,3,0,0,1,2.36-2,3.39,3.39,0,0,1,1.27,0l117.57,8a3.22,3.22,0,0,1,2.88,2.35l72.39,264.1a3.21,3.21,0,0,1-3.06,4.07s-65.92.75-78.69-.75a8.13,8.13,0,0,1-3.7-1.14,3.12,3.12,0,0,1-1.16-3.41c1.84-7.33,6.71-88.95,6.34-122.44-.06-4.69-.47-9.36-.68-11.42Zm.62,135.24,0,.18c0-.06,0-.12,0-.18Zm-110.25-268v.11c-1.3,17.53-5.46,99.56-6.32,116.65,16.78,1.27,96,7.27,114.82,9.31a26.39,26.39,0,0,1,5.05.87,4.43,4.43,0,0,1,2.12,2.79c.61,2,1,7.13,1.07,14.33.35,31.13-3.87,103.29-6,120.75,1.26.12,2.92.25,4.65.33,16.88.75,55.21.47,67.9.34l-70.68-257.87-112.6-7.61Zm-5-1a2.94,2.94,0,0,0,2.17.85h-.22a3.28,3.28,0,0,1-1.95-.84Z"/><path class="cls-2" d="M2389.12,1851.7s206.73,84.41,214.93,92.61c2.38,2.38-1.42,25.07-1.42,29.69,0,6.56,9,24.25,6.36,26.87-1.89,1.9-221.35,2.76-222.69,1.41-1-1,2.82-145.5,2.82-150.58Z"/><path class="cls-2" d="M2390.34,1848.72a3.22,3.22,0,0,0-4.43,3c0,4.57-3.12,122.08-3,146.27a38.63,38.63,0,0,0,.22,5,3.15,3.15,0,0,0,.89,1.59,4.22,4.22,0,0,0,2.69,1c3.81.33,22.66.51,47.91.54,58.65.08,152-.58,171.1-1.68a28.14,28.14,0,0,0,3.8-.39,3.43,3.43,0,0,0,1.74-.93,5,5,0,0,0,1.35-2.89,16.87,16.87,0,0,0-.74-5.93c-1.06-4-3.08-9.18-4.52-13.74a25.31,25.31,0,0,1-1.51-6.58c0-3.71,2.43-19,2.18-26.24-.1-2.94-.93-4.94-1.71-5.72-1.71-1.71-11.6-6.73-26.45-13.44-57.15-25.82-189.53-79.88-189.53-79.88Zm1.91,7.73c-.52,23-3,119.78-2.91,141.49,0,.47,0,.94,0,1.37,6.43.25,23.42.37,45.28.41,52.05.07,131.49-.44,161.87-1.33,4-.11,7.49-.31,9.56-.44a19.65,19.65,0,0,0-.4-2c-1.8-6.76-6.25-17.21-6.25-22,0-3.25,1.86-15.4,2.16-23.22a36.56,36.56,0,0,0-.17-4.49c-.5-.36-1.34-.82-2.44-1.43-4.24-2.32-11.85-5.93-21.75-10.4-50.94-23-161.73-68.5-185-78Z"/><path class="cls-6" d="M2609.36,1462.38c14.82,13,29.77,26.32,43.65,40.21,23.25,23.25,48.66,45.67,70.08,70.65,4.18,4.88,19.95,13.66,28.19,10.92,11.36-3.79,11.65-20.62,13-31.2,3.19-25.48-17.92-48.55-38.27-65.5-19.43-16.2-81.24-41.81-94.79-46.33-6-2-24.36-8.35-29.87-3.45-9.79,8.72,3.6,20.82,8,24.7Z"/><path class="cls-2" d="M2129,1899.26c-.72,1,4.64,5.11,6.15,6.32,7.46,6,14.8,12.15,22.28,18.13,31.52,25.22,63,52.32,98.47,72,10.22,5.67,20.34,13.31,29.55,20.22,2.19,1.64,5.81,4.87,8.29,5.7a21.48,21.48,0,0,1,4.14,2.59c-2.34,1.17-7-.65-9.33-1-6-1-14.77-1.71-20.73-.51-10.39,2.07-28.15,2.67-38.86,0-7.51-1.88-15.91.91-23.33-1.56-4.75-1.59-11.13,1.69-15.54-.52-1.8-.9-5.4-8.86-6.74-10.88-6.35-9.52-14.89-15.93-22.81-23.85-6.09-6.09-15.13-10.93-22.28-14.5-3.48-1.75-10-2.74-12.44-5.19-1.85-1.85-.52-10.58-.52-13.47,0-13.31,1-26.15,1-39.39,0-3.25-.49-14,3.11-14"/><path class="cls-2" d="M2126.78,1897a3.6,3.6,0,0,1,5.9,2.11c1.25,1.14,3.73,3.37,4.5,4,7.47,6,14.81,12.16,22.29,18.15,31.37,25.09,62.68,52.09,98,71.74,10.33,5.74,20.59,13.46,29.91,20.45,2,1.48,5.15,4.48,7.38,5.22a32.67,32.67,0,0,1,5.26,3.2,3.18,3.18,0,0,1,1,1.6,3,3,0,0,1-.29,2.38,3.14,3.14,0,0,1-1.38,1.34,9.66,9.66,0,0,1-5.53.55c-2.1-.31-4.35-1.06-5.76-1.3-5.63-.94-14-1.66-19.58-.54-10.76,2.16-29.18,2.75-40.27,0-3.47-.86-7.14-.6-10.8-.46-4.35.17-8.69.2-12.76-1.16-2.46-.82-5.41,0-8.21.31a14.1,14.1,0,0,1-7.76-1,10.2,10.2,0,0,1-3.27-3.51c-1.75-2.76-3.77-7.06-4.71-8.46-6.22-9.33-14.64-15.59-22.4-23.35-5.86-5.86-14.58-10.47-21.45-13.91-2-1-5-1.72-7.66-2.65a15.55,15.55,0,0,1-5.61-3.14,8.4,8.4,0,0,1-1.87-5.22c-.24-3.46.41-8.45.41-10.52,0-13.31,1-26.15,1-39.39,0-2.48-.17-8.93,1-12.58a7,7,0,0,1,2.61-3.81Zm3.08,8.36c-.11.65-.19,1.3-.23,1.87-.13,2.46-.05,4.89-.05,6.16,0,13.24-1,26.08-1,39.39,0,1.73-.48,5.56-.46,8.75a22.1,22.1,0,0,0,.26,2.65,13.83,13.83,0,0,0,4.34,1.87,58.81,58.81,0,0,1,7,2.51c7.43,3.71,16.79,8.78,23.13,15.11,8.06,8.07,16.73,14.63,23.2,24.33.83,1.25,2.5,4.68,4.09,7.43.54.94,1.42,2.16,1.66,2.48,1.63.69,3.59.32,5.56.06,3.23-.4,6.51-.77,9.32.17,3.34,1.11,6.91,1,10.49.84,4.27-.17,8.55-.36,12.6.65,10.32,2.58,27.44,2,37.46,0,4.94-1,11.75-.76,17.5-.11l-1.18-.9c-9.09-6.82-19.09-14.37-29.18-20-35.66-19.81-67.26-47-98.91-72.33-7.48-6-14.83-12.18-22.29-18.15-.67-.53-2-1.6-3.31-2.76Z"/><path class="cls-2" d="M2630.06,1849.75c.07-9.24,6.48-4.2,6.44,0v.11a107.27,107.27,0,0,1-2.33,20.53c-2.08,10.36-1.08,22.27-1.08,32.93a3.22,3.22,0,0,1-6.43,0c0-11.07-1-23.43,1.2-34.19a115.07,115.07,0,0,0,2.05-14.47,3.2,3.2,0,0,1,0-3.71l.14-1.23Z"/><path class="cls-2" d="M2634.26,1855.94c1.48,1.9,3.4-3.41,5.27-4.92,4.95-4,9.61-8.63,14.79-12.51,13.49-10.12,30.54-23.93,46.07-30.15,4.25-1.7,9.26-6,13.09-8.53,2.23-1.48,5.68-8.37,5.68-5.69,0,4.48-4,10.09-4.55,14.79-1.71,13.65-2.85,30.7-.56,44.37.42,2.54,2.63,19,1.13,20.47-.65.66-10.41-2.13-12.51-1.7-7,1.4-13.45,5.65-20.48,6.82-6.42,1.07-13.11-1.35-19.34,1.14-8.21,3.28-18.64,9.54-25,15.93-2.72,2.71-6.26,9.66-6.26,9.66s1.18-4.16,1.71-6.25c1.21-4.85,1.3-9.91,2.27-14.79,2.56-12.79,0-25.69,0-37.54"/><path class="cls-2" d="M2638.77,1847.5c4.52-3.75,8.85-8,13.62-11.56,13.7-10.28,31-24.25,46.81-30.56,4.07-1.63,8.83-5.78,12.49-8.22,1-.7,2.3-2.88,3.3-4.21a8,8,0,0,1,2.46-2.31,3.22,3.22,0,0,1,3.56.4,3.66,3.66,0,0,1,1.37,3.1,19.75,19.75,0,0,1-1.66,7c-1.1,2.77-2.59,5.63-2.92,8.22-1.67,13.37-2.82,30.05-.58,43.44.34,2.11,1.86,13.42,1.67,18.66a7.4,7.4,0,0,1-1.44,4.62,3.44,3.44,0,0,1-1.5.87,6.76,6.76,0,0,1-2.52.07c-1.78-.22-4.92-.93-7.51-1.4-1.08-.19-2.52-.33-2.73-.35-7,1.43-13.44,5.65-20.47,6.82-3.44.57-6.95.25-10.43.08-2.79-.14-5.57-.2-8.24.87-7.86,3.15-17.85,9.11-24,15.22-2.48,2.47-5.67,8.85-5.67,8.85a3.21,3.21,0,0,1-5.95-2.33s1.16-4.1,1.68-6.16c1.2-4.8,1.27-9.81,2.24-14.64,1.68-8.38,1.09-16.81.51-25a4.62,4.62,0,0,1-1.18-1.07,3.23,3.23,0,0,1,.55-4.52l.26-.18c-.12-2.09-.2-4.15-.2-6.19a3.22,3.22,0,0,1,6.43,0v.46Zm73.69-43c-3.46,2.51-7.42,5.5-10.87,6.87-15.3,6.13-32.05,19.78-45.34,29.74-5.15,3.86-9.79,8.52-14.71,12.45a12.22,12.22,0,0,0-1.68,2.35c-.23.36-.46.69-.7,1,.6,9.19,1.45,18.79-.46,28.32-.42,2.11-.68,4.26-.94,6.4a89.06,89.06,0,0,1,23.9-14.56c3.56-1.43,7.23-1.52,11-1.33,3,.15,6.07.5,9,0,7-1.16,13.4-5.41,20.38-6.81a14.16,14.16,0,0,1,4.2.22c1.67.27,4.14.73,6,1.07-.32-4.48-1.07-14.7-1.35-16.38-2.32-14-1.19-31.35.56-45.29a19.84,19.84,0,0,1,1-4.06Z"/><path class="cls-2" d="M2723.9,2277.15c.57,1.23,7.13,4.79,9.65,6.9a197.85,197.85,0,0,0,29.92,20.32c24.93,13.85,50.4,32.87,72.81,50.8,8,6.42,17.48,8.83,25.41,14.11.58.39,6.77,3.91,6.77,4,0,.42-19.34-2.48-21.45-2.83-14.51-2.42-31.16,3-45.15-1.69-6.34-2.11-12,4.3-16.94,6.77-14.25,7.13-28,19.85-43.46,23.71-2.71.67-19,9.2-19.76,8.46-3.84-3.83-1.13-14.64-1.13-19.18,0-18.19,2.83-37,2.83-55.32,0-14.38-.57-28.13-.57-42.34,0-1.46,1.08-11.29,2.26-11.29"/><path class="cls-2" d="M2721.46,2279.26a4,4,0,0,1-.48-.78,3.21,3.21,0,0,1,5.58-3.13c.61.39,6.94,4.47,9.05,6.23a194.46,194.46,0,0,0,29.42,20c25.08,13.93,50.71,33.06,73.26,51.1,8,6.36,17.33,8.71,25.18,14,.51.34,5.48,3.17,6.47,3.76a3.29,3.29,0,0,1,1.73,2.87,3.11,3.11,0,0,1-1,2.35,3.92,3.92,0,0,1-2.91.89c-3.21-.17-19.34-2.57-21.27-2.9-7-1.17-14.57-.41-22.05,0-8.14.48-16.21.61-23.59-1.85-2.25-.75-4.34.22-6.35,1.39-2.88,1.68-5.6,3.94-8.13,5.21-14.45,7.22-28.46,20-44.13,23.94-2.42.62-15.85,7.57-19,8.42a3.8,3.8,0,0,1-3.76-.79c-2-2-3-5.47-3-9.34,0-4.4.93-9.39.93-12.12,0-18.19,2.82-37,2.82-55.32,0-14.38-.57-28.13-.57-42.34a60.53,60.53,0,0,1,1.75-11.3c0-.09.07-.18.1-.26Zm5.53,4.17a59.62,59.62,0,0,0-.95,7.39c0,14.21.57,28,.57,42.34,0,18.3-2.82,37.13-2.82,55.32,0,2.71-1,7.68-.94,12.05a14.91,14.91,0,0,0,.28,3.25c4.24-2,15.58-7.21,17.55-7.7,15.23-3.81,28.75-16.44,42.8-23.46,3-1.5,6.25-4.41,9.74-6a12.64,12.64,0,0,1,9.65-.9c6.62,2.21,13.87,2,21.18,1.53,8-.48,16-1.2,23.49,0,.62.11,2.79.44,5.51.84-6.25-3.11-12.88-5.69-18.77-10.4-22.28-17.82-47.6-36.74-72.37-50.5a200.64,200.64,0,0,1-30.41-20.66,52.3,52.3,0,0,0-4.51-3.09Zm-1.18-.76a5,5,0,0,1-.54.07,2.72,2.72,0,0,0,.55-.06Z"/><path class="cls-2" d="M2661.91,2454.67c-.13-.93-.44-3.13-.5-3.57a3.24,3.24,0,0,1,1.07-3,3,3,0,0,1,3.75-.37,3.36,3.36,0,0,1,1.43,1.61c1.81,3.62,1.92,9,1.1,14.71-1.06,7.46-3.56,15.67-4.06,20.71-2.73,27.3-3.27,54.91-3.27,82.59a3.21,3.21,0,0,1-6.42,0c0-27.9.55-55.72,3.3-83.23.51-5.1,3-13.42,4.09-21,.18-1.3.33-2.57.42-3.78a3.21,3.21,0,0,1-.91-4.74Z"/><path class="cls-2" d="M2668.79,2455c3.07-2.26-.71,7.6-.71,11.42,0,9.93-1.65,19.57-1.65,29.55,0,27.77-1.64,55.58-1.64,82.91,0,2.86-3.71,22.56-1.64,24.63,1,1,9.43-2.15,10.67-2.46,9.67-2.42,22.46,1.27,32,2.46,15.12,1.89,30.92,1.14,46,3.29,26.14,3.73,53,10.25,79.63,4.92,9.22-1.84,20.13-2.46,29.55-2.46,1.91,0,8.91,1.07,9.86-.82,6.86-13.72-.82-42-.82-56.64,0-21.93-4.93-43.67-4.93-64.86,0-3.42,2.36-21.45,0-23.81-1.65-1.66-11.55.43-13.14.82-12.19,3.05-142.31-4.45-155.27-8.77-7.42-2.48-26.26-1.9-31.9-1.9"/><path class="cls-2" d="M2665.94,2456.49h-1.15a3.21,3.21,0,0,1,0-6.42c5.82,0,25.26-.49,32.92,2.06s57.23,6.19,98.21,8.09c27.11,1.25,50.47,1.82,55.27.62a60.22,60.22,0,0,1,10.58-1.55c2.68-.05,4.73.7,5.6,1.57a5.58,5.58,0,0,1,1.32,2.3,20.54,20.54,0,0,1,.66,5.45c.12,6.34-1,15.93-1,18.33,0,21.19,4.93,42.93,4.93,64.86,0,8.75,2.76,22.37,3.49,34.81.52,9-.06,17.36-3,23.27a5.84,5.84,0,0,1-4.63,2.76c-2.64.35-6.69-.17-8.1-.17-9.22,0-19.9.6-28.92,2.41-27,5.39-54.22-1.12-80.71-4.9-15.05-2.15-30.82-1.39-45.92-3.28-9.21-1.15-21.52-4.86-30.84-2.53-1,.26-6.87,2.4-9.72,2.71a4.89,4.89,0,0,1-4-1.1c-.73-.72-1.52-2.57-1.57-5.29-.11-6.21,2.27-19.32,2.27-21.61,0-27.33,1.64-55.14,1.64-82.91,0-10,1.64-19.62,1.64-29.55a64,64,0,0,1,1.57-9.24l-.22-.27a3.3,3.3,0,0,1-.27-.42Zm7.2-.08q-.06.78-.21,1.68c-.48,2.57-1.64,6.33-1.64,8.33,0,9.93-1.65,19.57-1.65,29.55,0,27.77-1.63,55.58-1.63,82.91,0,2-1.83,12.37-2.22,19.12,0,.71,0,1.49,0,2.16.4-.09.81-.19,1.18-.3,2.6-.74,5.41-1.76,6.08-1.93,10-2.5,23.28,1.16,33.2,2.4,15.13,1.89,30.94,1.13,46,3.28,25.78,3.69,52.27,10.22,78.54,5,9.41-1.88,20.56-2.52,30.18-2.52,1.17,0,6,.09,7.37.11,2.18-5,2.38-11.88,1.95-19.17-.73-12.58-3.5-26.35-3.5-35.19,0-21.93-4.92-43.67-4.92-64.86,0-2.38,1.15-11.91,1-18.21a23.71,23.71,0,0,0-.28-2.94,28,28,0,0,0-3.1.1,61.64,61.64,0,0,0-6.8,1.18c-5,1.24-29.1.86-57.12-.43-41.72-1.94-92.11-5.8-100-8.41-4.9-1.63-14.92-1.85-22.54-1.82Z"/><path class="cls-2" d="M2650,2627.18c-.57,3.05-8.89,2.76-8.89,2.76h4.06c2.6,0,5.16,1.18,7.75,1.47,6.93.78,279.74,8.08,285.62,8.08,1,0,12.48.93,13.14,2.26,1.36,2.73-.5,11.37-1.11,14.41-2.6,13-4,29.94-1.84,43.2,2.45,14.7,2.58,29.35,2.58,44.69,0,3.63,2.84,11.31,1.11,14.77-.41.82-3.29.37-4.06.37-4.83,0-9.29-.31-14-.74-18.4-1.67-268.31,6.74-282.13,8.13-6.9.69-13.11,3.78-19.21.73-2.29-1.14-1.11-6.58-1.11-8.49V2732.6c0-35.33,5.17-71.52,5.17-105.62"/><path class="cls-2" d="M2653.07,2628.2l.22,0c6.91.77,279.38,8.06,285.26,8.06a82,82,0,0,1,12.47,1.63,5.72,5.72,0,0,1,3.55,2.4,11.81,11.81,0,0,1,.81,5.28,78.15,78.15,0,0,1-1.64,11.2c-2.54,12.68-4,29.13-1.84,42.05,2.48,14.86,2.63,29.69,2.63,45.21,0,2.07,1,5.54,1.45,8.69.39,2.94.25,5.67-.67,7.52a4,4,0,0,1-2.43,2,18.12,18.12,0,0,1-4.51.16c-4.93,0-9.48-.31-14.33-.75-18.36-1.67-267.73,6.74-281.53,8.12-3.39.34-6.61,1.28-9.73,1.75-3.84.58-7.55.51-11.23-1.33a5.75,5.75,0,0,1-3-4.2c-.49-2.32.07-5.7.07-7.17V2732.6c0-35.33,5.17-71.52,5.17-105.62a3.21,3.21,0,0,1,6.42-.14,3.43,3.43,0,0,1,.86-.12h1.29a18.24,18.24,0,0,0,3.51-.38,8.09,8.09,0,0,0,1.12-.39,3.21,3.21,0,0,1,6.13,1.82c0,.14-.06.28-.1.43Zm-11.26,5H2641a3,3,0,0,1-.79-.13c-.53,32.31-5.11,66.33-5.11,99.58v26.22c0,1-.3,2.8-.31,4.55a9.94,9.94,0,0,0,.12,1.29,12.34,12.34,0,0,0,6.91.51c3.23-.49,6.56-1.44,10-1.79,13.87-1.39,264.31-9.81,282.76-8.13,4.64.42,9,.73,13.74.73l1.41.05v-.41a22.1,22.1,0,0,0-.41-3.57,60.11,60.11,0,0,1-1.25-8c0-15.16-.12-29.64-2.54-44.16-2.27-13.62-.82-31,1.86-44.36a85.06,85.06,0,0,0,1.43-8.69,19.39,19.39,0,0,0,.16-2.69c-2.44-.36-9.83-1.45-10.47-1.45-5.89,0-279-7.32-286-8.09-2.48-.28-4.91-1.46-7.4-1.46Z"/><path class="cls-2" d="M2402.08,2672.63a3.22,3.22,0,0,1,5.17,3.77,1.91,1.91,0,0,1-.14.21,3.21,3.21,0,0,1-6.24-1.07,3.26,3.26,0,0,1,.87-2.59,3.6,3.6,0,0,1,.34-.32Zm.14-.1c.3-.22.6-.41.6-.41a2.83,2.83,0,0,0-.6.41Z"/><path class="cls-2" d="M2405.38,2671.06c.15-.68-.48,4.85-.63,5.8-.52,3.38-.71,6.86-1,10.27-.83,10,.06,20.13-.66,30.14-.62,8.69,1.7,17.53,2.32,26.16,1.06,14.93,2.46,32.46.33,47.36a145.34,145.34,0,0,0-1.65,20.53c0,1.08-.76,5.54-.34,6,.82.81,5.82,0,7,.33,8.68,2.17,17,3.82,26.16,3,29-2.63,59.62-6.55,88.76-3.64,9.59,1,18.89.67,28.48.67,1.87,0,9.54.39,10.93-1,.92-.92-137.12-137.28-151-140.75-2.77-.69-6.06-3.64-8.61-3.64"/><path class="cls-2" d="M2402.16,2671.2a3.46,3.46,0,0,1,.08-.84c.76-3.43,4.25-2.4,4.55-2.25a2.9,2.9,0,0,1,1.53,1.5,15.83,15.83,0,0,1,1.9.85,25.08,25.08,0,0,0,4.58,2.29,15.88,15.88,0,0,1,4.25,2.1,162.41,162.41,0,0,1,15.09,11.8c36.12,30.74,112.1,105.42,129.59,123.68a40.78,40.78,0,0,1,4.16,4.76,3,3,0,0,1-.58,3.81,8.13,8.13,0,0,1-4.49,1.74,72,72,0,0,1-8.71.19c-9.7,0-19.11.29-28.8-.68-28.94-2.89-59.37,1-88.14,3.65-9.53.86-18.1-.79-27.09-3a49.36,49.36,0,0,1-5.82,0,4.91,4.91,0,0,1-2.78-1.23,4.25,4.25,0,0,1-1.07-2.9c0-1.41.46-4.47.46-5.34a148.63,148.63,0,0,1,1.69-21c2.1-14.69.7-32-.35-46.68-.63-8.78-2.95-17.78-2.32-26.62.71-10-.17-20.17.66-30.18.29-3.47.49-7,1-10.48.11-.7.49-4,.59-5.18Zm5.87,5.37c-.05.35-.08.63-.1.78-.51,3.31-.69,6.72-1,10.05-.83,10,.05,20.1-.66,30.09-.61,8.54,1.71,17.23,2.32,25.71,1.08,15.14,2.46,32.93.3,48.05a141.7,141.7,0,0,0-1.62,20.07c0,.44-.12,1.84-.25,3.07l2.19,0a9.82,9.82,0,0,1,2.25.16c8.33,2.08,16.27,3.7,25.09,2.9,29.18-2.65,60-6.58,89.37-3.64,9.48.94,18.68.64,28.16.64.8,0,2.68.08,4.66,0-18-18.75-93-92.46-128.79-122.91-5.31-4.51-9.74-8.07-13-10.32a16,16,0,0,0-3.78-2.24,23.34,23.34,0,0,1-5.17-2.38l0,0Z"/><path class="cls-2" d="M2210.52,2506.92c-1.11,1.73.6-6.15.6-6.15v10.53c0,7,.81,14,.81,21,0,18.22-.17,39.9-3.24,58.31-3,17.94-5.67,36.77-5.67,55.07,0,3.6-3,14.78,0,17.82,1.89,1.89,9.54.8,12.15.8,11.82,0,23.11,1.62,34.82,1.62,29.51,0,65.08-5,93.94.82,12.16,2.43,24.07-.82,35.63-.82,4,0,11.54,2.73,15.39.82,7.37-3.69,5.21-30.47,6.47-38.07,6.18-37,11.34-77.07,11.34-114.19,0-.84-10.54-.8-11.34-.8-10.86,0-27.07-3.47-38.06-5.67-20.05-4-41.72,5.06-62.35,1.62-12.88-2.15-26.91.93-39.68-1.62-17.71-3.54-35.56-8.1-52.64-8.1"/><path class="cls-2" d="M2207.46,2502.93a3.22,3.22,0,0,1,1.23-6.19c17.29,0,35.35,4.58,53.27,8.17,12.74,2.55,26.73-.54,39.58,1.6,10,1.67,20.27.25,30.46-1,10.85-1.38,21.63-2.64,32-.56,10.8,2.16,26.74,5.6,37.42,5.6.79,0,10.24.1,12.12.77a3.34,3.34,0,0,1,2.44,3.25c0,37.29-5.18,77.5-11.39,114.72-.88,5.34-.1,20.12-2.08,29.77-1.1,5.32-3.26,9.21-6.12,10.64a14.39,14.39,0,0,1-7.72.86c-3.26-.36-6.79-1.34-9.11-1.34-11.77,0-23.89,3.23-36.26.75-28.67-5.73-64-.75-93.31-.75-11.71,0-23-1.61-34.82-1.61-1.9,0-6.35.52-9.53.18a8.31,8.31,0,0,1-4.89-1.93c-1.37-1.37-2.18-3.75-2.28-6.68-.15-4.59,1.33-10.87,1.33-13.41,0-18.47,2.7-37.48,5.72-55.6s3.2-39.73,3.2-57.78c0-7.07-.81-14.08-.81-21v-1.84a3.48,3.48,0,0,1-.95-2.14,24.93,24.93,0,0,1,.5-4.39Zm6.87.4v8c0,7,.81,14,.81,21,0,18.38-.19,40.26-3.28,58.84-3,17.77-5.63,36.42-5.63,54.54,0,2.19-1.09,7.15-1.31,11.44a14.69,14.69,0,0,0,.1,3.16,2.88,2.88,0,0,0,.17.8,19.45,19.45,0,0,0,2.28.31c2.83.09,6.16-.3,7.7-.3,11.82,0,23.11,1.62,34.82,1.62,29.7,0,65.52-4.94,94.57.87,11.94,2.39,23.64-.87,35-.87a66.42,66.42,0,0,1,8.25,1.17c2.14.32,4.26.7,5.7,0,.87-.43,1.32-1.54,1.8-2.87a34.59,34.59,0,0,0,1.55-7.43c1.09-9.3.63-20.83,1.39-25.41,6-36,11.05-74.77,11.29-110.94-2.75-.12-7.65-.32-8.12-.32-11,0-27.52-3.5-38.69-5.73-9.69-1.94-19.77-.66-29.92.63-10.81,1.38-21.71,2.78-32.33,1-12.91-2.15-27,.92-39.78-1.64-15.56-3.11-31.22-7-46.37-7.88Z"/><path class="cls-2" d="M2055.72,2697.8c.38.31-.62.85-.62,1.35,0,3.37-1.31,6.34-1.6,9.6-.65,7.16.4,14.47.4,21.61,0,16.94-.41,34.34.8,51.22.88,12.38-1.22,25.54,1.2,37.62,1.57,7.87-1.72,17.26.8,24.81.48,1.45-.72,5.28.4,6.4,1.42,1.42,6-2,7.6-1.6,11.64,2.91,22,3.36,34.42,4.4,18.46,1.54,37.13-.43,55.62.8,19.45,1.3,38.94,3.61,58.43,3.61,10.82,0,21.26-3.21,32-3.21,3.75,0,10.94,1,13.21-2.4,5-7.49,3.67-19.61,5.2-28,3-16.78,1.07-34.58,4.4-51.22a144.82,144.82,0,0,0,2.8-25.61c0-5.26.47-16.15,2.8-20.81,1.09-2.18.34-6.44-2-7.61-3.56-1.77-10.94.55-14.81,0-12-1.71-23.84-5.05-36-6.4-5.53-.61-11.27.62-16.8,0-21.82-2.42-44.21.43-66-2-28.3-3.14-53.51-10.4-82.44-10.4"/><path class="cls-2" d="M2052.53,2697.33a3.26,3.26,0,0,1,.68-1.55,3.21,3.21,0,0,1,4.52-.48,3.43,3.43,0,0,1,1.12,1.47c27.66.52,52.12,7.35,79.44,10.39,21.82,2.42,44.22-.42,66,2,5.53.61,11.27-.61,16.8,0,12.21,1.36,24.09,4.7,36.12,6.41,2.15.31,5.46-.41,8.49-.63a14.74,14.74,0,0,1,7.3.94,7.76,7.76,0,0,1,3.61,4.32,10.38,10.38,0,0,1-.17,7.59c-2.17,4.35-2.46,14.49-2.46,19.38a147.26,147.26,0,0,1-2.87,26.24c-3.32,16.62-1.34,34.4-4.39,51.16-.91,5-.8,11.35-1.63,17.22a29.06,29.06,0,0,1-4.06,12c-1.37,2-3.8,3.25-6.73,3.7-3.09.47-6.77.13-9.15.13-10.75,0-21.19,3.2-32,3.2-19.56,0-39.12-2.31-58.64-3.61-18.52-1.23-37.2.73-55.68-.8-12.48-1-22.83-1.52-34.43-4.37a45.39,45.39,0,0,1-4.56,1.68,5.08,5.08,0,0,1-5-1.05,5.51,5.51,0,0,1-1.43-3.75c-.05-1.24.17-3.77.2-4.07-1.33-4.12-1.19-8.72-.86-13.37.29-4,.74-8,0-11.66-2.44-12.21-.36-25.51-1.26-38-1.21-17-.8-34.43-.8-51.45,0-7.24-1.05-14.64-.39-21.9.28-3.16,1.59-6.05,1.59-9.31a5.11,5.11,0,0,1,.64-1.82Zm5.3,5.84a50.26,50.26,0,0,0-1.13,5.87c-.64,7.06.41,14.28.41,21.32,0,16.87-.4,34.18.8,51,.87,12.24-1.25,25.27,1.14,37.22.84,4.2.43,8.82.1,13.39-.28,3.84-.53,7.65.6,11a9,9,0,0,1,.23,3.22l-.05.67.57-.23a15.2,15.2,0,0,1,2.95-1,4.87,4.87,0,0,1,2,0c11.46,2.87,21.63,3.3,33.91,4.32,18.44,1.54,37.09-.43,55.56.8,19.38,1.29,38.8,3.59,58.22,3.59,10.82,0,21.26-3.2,32-3.2,1.82,0,4.47.25,6.94.08a9.6,9.6,0,0,0,2.67-.48,1.71,1.71,0,0,0,.92-.57c2.22-3.34,2.95-7.73,3.38-12.19.49-5.11.56-10.33,1.34-14.61,3.05-16.81,1.08-34.62,4.41-51.28a140.53,140.53,0,0,0,2.74-25c0-5.62.64-17.26,3.14-22.25a3.28,3.28,0,0,0,0-2c-.12-.5-.2-1.07-.59-1.27-1.35-.68-3.43-.36-5.52-.14-3.06.32-6.17.75-8.31.44-12-1.7-23.77-5-35.91-6.38a45.06,45.06,0,0,0-7.35-.06l-2.12.11a46.09,46.09,0,0,1-7.34,0c-21.82-2.43-44.21.42-66-2-27.42-3.05-51.91-10-79.75-10.38Z"/><path class="cls-2" d="M1397,2635.86c-2.63,6.07-.38,17.75-.38,24.28,0,19.26-.53,38.39.76,57.64,1.57,23.63,2.27,46.11,2.27,69.77,0,7.53-.61,21,3.79,25.4,3.66,3.66,14.58.93,19,.38,8.64-1.08,17.49-1,26.16-1.9,10.85-1.08,22-3.75,33-2.65,24.74,2.48,49.5.5,74.32,2.28,36.6,2.61,73.46,3.5,110,6.82,23.37,2.13,47.2-2.18,70.53-.38,25.56,2,51.17,4.28,76.59,6.83,17,1.7,34.61-.61,51.57,1.51a360.84,360.84,0,0,0,46.26,3c3.9,0,13.19,2.32,17.06.38.83-.41.76-3.78.76-4.54,0-5.32.76-10.54.76-15.93,0-8.07-3.12-15.48-3.79-23.51-1.23-14.78-2.32-29.62-3.79-44.36-2.2-22,.38-45.11.38-67.12,0-4.09-.33-11.86,1.51-15.55.22-.42.82-3.51,0-3.79-7.44-2.48-17.15,1.15-24.64,1.9-18.19,1.82-38.61,2.79-56.88.76-26.62-3-53.73-1.51-80.38-4.17-25.94-2.6-52.22-4-78.12-6.83-15.79-1.75-32.57-3-48.53-1.52-37.25,3.39-75-2.34-111.86-5.68-11.86-1.08-23.81-.2-35.64-1.52-14.07-1.56-29.32-3.86-43.61-2.28a451.86,451.86,0,0,1-48.15,3"/><path class="cls-2" d="M1400.1,2634.91c14.1-.21,29.51-1.42,43.59-3,14.52-1.61,30,.69,44.31,2.28,11.82,1.31,23.74.43,35.58,1.51,36.63,3.33,74.22,9.05,111.28,5.69,16.17-1.48,33.17-.26,49.18,1.52,25.88,2.87,52.15,4.23,78.07,6.82,26.67,2.67,53.79,1.22,80.43,4.18,18,2,38.23,1,56.2-.77,4.48-.45,9.76-1.93,14.87-2.51a26,26,0,0,1,11.11.77,3.69,3.69,0,0,1,2.42,2.66,9.17,9.17,0,0,1,.08,3.18,10.58,10.58,0,0,1-.64,2.43,14.1,14.1,0,0,0-1,4.74c-.3,3.32-.18,7-.18,9.37,0,21.91-2.58,44.93-.4,66.8,1.48,14.76,2.57,29.62,3.8,44.41.68,8.12,3.8,15.61,3.8,23.78,0,5.39-.75,10.61-.75,15.93a19.91,19.91,0,0,1-.56,5.1,4.11,4.11,0,0,1-2,2.32c-1.94,1-5,1.24-8.2,1-3.81-.24-8-1.07-10.3-1.07a363.46,363.46,0,0,1-46.66-3.06c-16.93-2.12-34.47.19-51.48-1.51-25.4-2.54-51-4.85-76.53-6.82-23.35-1.79-47.19,2.5-70.57.38-36.48-3.32-73.31-4.21-109.9-6.82-24.85-1.77-49.64.19-74.41-2.28-10.81-1.08-21.7,1.59-32.35,2.65-8.64.87-17.46.81-26.08,1.89-3.21.4-9.79,1.87-14.76,1.43a10.92,10.92,0,0,1-6.87-2.73c-2.15-2.15-3.52-6-4.15-10.5-.79-5.7-.59-12.53-.59-17.17,0-23.59-.69-46-2.26-69.56-1.29-19.32-.77-38.52-.77-57.85,0-3.91-.81-9.66-.89-14.95a37.94,37.94,0,0,1,.33-6,3.06,3.06,0,0,1-.2-1.09,3.23,3.23,0,0,1,.92-2.25c.15-.46.31-.9.49-1.32a3.21,3.21,0,0,1,6,.33ZM1920.72,2657a28,28,0,0,0-8.81.34c-4.36.7-8.73,1.81-12.53,2.19-18.4,1.84-39.07,2.81-57.56.75-26.61-3-53.7-1.5-80.35-4.17-25.94-2.59-52.24-4-78.14-6.82-15.59-1.74-32.14-2.94-47.89-1.51-37.44,3.4-75.43-2.33-112.44-5.69-11.88-1.08-23.85-.21-35.7-1.53-13.84-1.53-28.85-3.83-42.9-2.27-14.65,1.63-30.73,2.87-45.33,3-.1,1.19-.12,2.46-.1,3.76.08,5.31.89,11.11.89,15,0,19.19-.53,38.25.75,57.42,1.58,23.71,2.28,46.26,2.28,70,0,4.4-.23,10.87.52,16.28.41,2.89,1,5.47,2.33,6.85a3,3,0,0,0,1.44.64,13.76,13.76,0,0,0,3.24.29c4.23-.05,9.06-1.15,11.61-1.47,8.67-1.08,17.54-1,26.24-1.91,11.06-1.1,22.4-3.77,33.63-2.65,24.71,2.47,49.44.5,74.23,2.27,36.63,2.62,73.5,3.51,110,6.83,23.35,2.12,47.17-2.18,70.49-.38,25.57,2,51.21,4.28,76.66,6.83,17.07,1.7,34.67-.6,51.65,1.53a358.22,358.22,0,0,0,45.86,3c2.39,0,6.75.84,10.71,1.09a17.61,17.61,0,0,0,3.79,0c0-.75.11-1.75.11-2,0-5.32.76-10.54.76-15.93,0-8-3.12-15.3-3.78-23.24-1.23-14.76-2.32-29.59-3.79-44.32-2.21-22.07.36-45.31.36-67.43,0-4.38-.15-12.62,1.74-16.74v0Z"/><path class="cls-2" d="M1998.4,2402.18c-.69,0-4.62,2.13-6.33,3.15-12.28,7.37-10.43,16.11-11.81,29.93-3.22,32.18-.79,65.26-.79,97.65,0,10.54-.93,22,.79,32.3.32,1.91-.23,6.85,1.18,8.26.74.74,2.7-2.42,3.15-2.75,2.53-1.9,5.09-4.06,7.87-5.91,8.42-5.61,17.15-11.62,26-16.54,8.21-4.56,16.33-9.34,24.42-13.39,3.92-2,10-2.91,13-5.9,1.83-1.83.4-13.74.4-16.15,0-15.06,1.68-30.38,3.54-45.28a259.28,259.28,0,0,0,1.57-32.69c0-1.51,1.07-9.57,0-10.63-2.06-2.07-9.68-2.49-13-3.14-6-1.2-12.42.22-18.5-.8-4.84-.8-9.1-2.76-13.79-3.93s-11-7.11-14.17-10.24c-.64-.63-4.64-4.33-4.34-4.33"/><path class="cls-2" d="M1994.78,2400.21a2.82,2.82,0,0,1,.71-.86,3.1,3.1,0,0,1,2.09-.77,4.9,4.9,0,0,1,3.9,2.68c1.07,1,2.37,2.25,2.71,2.59,2.82,2.82,8.46,8.33,12.68,9.39,4.6,1.15,8.79,3.1,13.53,3.89,6.12,1,12.6-.4,18.61.8,2.37.48,6.9.84,10.13,1.74a10.43,10.43,0,0,1,4.51,2.29,5.56,5.56,0,0,1,1.33,3.31c.28,2.75-.39,8.34-.39,9.59a261.72,261.72,0,0,1-1.6,33.08c-1.84,14.77-3.52,30-3.52,44.89,0,1.71.7,8.13.49,12.46a14.56,14.56,0,0,1-.66,4.07,5.37,5.37,0,0,1-1.16,1.89,17.24,17.24,0,0,1-5.82,3.52c-2.69,1.07-5.74,1.85-8,3-8.06,4-16.13,8.78-24.29,13.32-8.78,4.87-17.43,10.84-25.77,16.4-2.64,1.76-5.08,3.8-7.49,5.62-.25.33-1.08,1.39-1.64,2a6.44,6.44,0,0,1-1.69,1.3,3.44,3.44,0,0,1-4.26-.63,7.05,7.05,0,0,1-1.72-3.8c-.34-2-.14-4.87-.36-6.22-1.75-10.48-.83-22.11-.83-32.82,0-32.49-2.43-65.69.8-98,.56-5.59.6-10.36,1.24-14.55,1.08-7.11,3.67-12.75,12.12-17.81,1-.63,2.85-1.63,4.36-2.37Zm2.57,6c-1.25.63-2.86,1.46-3.62,1.92-6.31,3.78-8.27,8-9.08,13.27-.62,4.1-.65,8.75-1.19,14.22-3.21,32.07-.78,65.05-.78,97.33,0,10.36-.94,21.62.75,31.77a23.92,23.92,0,0,1,.16,2.77c2.28-1.76,4.6-3.65,7.09-5.31,8.49-5.66,17.29-11.72,26.21-16.68,8.25-4.58,16.41-9.38,24.54-13.45a72.74,72.74,0,0,1,7.2-2.72,14.65,14.65,0,0,0,4.65-2.3,32.1,32.1,0,0,0,.3-3.77c0-4.07-.54-8.94-.54-10.39,0-15.19,1.7-30.65,3.57-45.68a254.82,254.82,0,0,0,1.55-32.29c0-.83.31-3.63.44-6.19,0-.82,0-1.88,0-2.51a13.66,13.66,0,0,0-2.38-.6c-2.94-.62-6.46-.93-8.44-1.33-6-1.18-12.35.25-18.41-.77-4.92-.82-9.26-2.79-14-4-5.13-1.28-12.23-7.64-15.66-11.08-.31-.3-1.31-1.25-2.3-2.22Z"/><path class="cls-2" d="M1545.05,2555.11c1.67.57-4.49,2.79-4.49,2.79a32.2,32.2,0,0,0,4.6-2.45c3-2.24,6.44-3.9,9.51-6.14,9.06-6.58,155.14-130.21,166.87-138,1.48-1,9.55-8.54,11.35-6.75,2.68,2.68,1.55,12.5,1.84,15.95a224.24,224.24,0,0,1-1.84,55.21c-3.57,21.45-3.71,43.93-5.52,65.65-.49,5.79-.31,11.66-.31,17.48,0,.89,1,4.51.31,5.22-.93.93-6.67-.92-8-.92-8.54,0-17,.3-25.46.3-9.91,0-20.18-.94-30.06-1.83-7.27-.67-14.75.86-22.09.3-17.74-1.36-35.6-.88-53.37-2.15-2.75-.19-5.52-.3-8.28-.3h-6.75c-5.46,0-23,1.59-23-5.83"/><path class="cls-2" d="M1544.57,2551.93c2.67-1.8,5.58-3.3,8.21-5.22,9.06-6.59,155.24-130.28,167-138.11,1.26-.84,7.11-6.07,10.35-7.19a4.66,4.66,0,0,1,5.05.85,10.44,10.44,0,0,1,2.43,5.76c.61,4.1.13,9.73.34,12.19a227.77,227.77,0,0,1-1.87,56c-3.56,21.37-3.69,43.76-5.49,65.39-.47,5.67-.3,11.41-.3,17.13a29.19,29.19,0,0,1,.54,4.82,4.32,4.32,0,0,1-1.17,2.75,4.67,4.67,0,0,1-3.33,1.2c-2,0-5.87-1.18-6.92-1.18-8.54,0-17,.31-25.46.31-10,0-20.37-.95-30.35-1.86-7.26-.66-14.72.88-22,.31-17.74-1.36-35.59-.87-53.36-2.14-2.68-.19-5.37-.3-8-.3h-6.75c-4.05,0-14.37.7-20.2-1.5a9.47,9.47,0,0,1-5.06-3.87l-.27.19-.16.21a8.1,8.1,0,0,1-2.34,1.68,38.53,38.53,0,0,1-3.63,1.54l-.06,0a3.21,3.21,0,0,1-2.4-6s1.7-.73,3-1.47a3.19,3.19,0,0,1,2.3-1.56Zm186.5-143.85c-.27.15-.53.3-.76.45-2.85,1.88-6.1,4.83-7,5.42-11.72,7.82-157.71,131.38-166.76,138-1,.7-1.94,1.33-2.94,1.94.11.4.5.65.93.88a10.67,10.67,0,0,0,3,1c5.36,1.1,12.68.51,15.83.51h6.75c2.84,0,5.69.11,8.51.31,17.77,1.27,35.64.78,53.39,2.15,7.35.56,14.84-1,22.13-.31,9.79.89,20,1.83,29.77,1.83,8.51,0,16.92-.3,25.46-.3a46.51,46.51,0,0,1,4.66.74c-.11-.8-.2-1.55-.2-1.83,0-5.91-.17-11.87.31-17.75,1.82-21.8,2-44.37,5.56-65.9a221.28,221.28,0,0,0,1.81-54.42c-.17-2.08.16-6.46-.13-10.2a16.23,16.23,0,0,0-.33-2.47Z"/><path class="cls-2" d="M1884.38,2173.45c-4.13-1.5,7.76,3.84,11,5.8,8.54,5.12,16.26,11,24.45,16.48,2.12,1.41,3.76,3.21,5.85,4.25.43.22,4.78,1.05,4.78,1.6,0,2.88-4.6,11.13-5.31,15.41-1.93,11.58-2.06,23.46-3.72,35.08-1.11,7.76,3.23,22.78,0,29.24-3.78,7.55-14.74,11.89-21.8,15.41-11.56,5.78-22.05,15.26-33,21.8-6.16,3.7-13.53,7.37-20.2,9-2.72.68-6.91,4.78-6.91,4.78s.56-3.58,1.06-5.31a44.73,44.73,0,0,0,1.59-11.7c0-11.09,3.2-21.85,3.2-33v-62.72c0-4.86-3-18-1.07-21.79,3.84-7.68,20.19-12.49,27.64-14.36,5.64-1.4,11.79-10.1,16.48-10.1"/><path class="cls-2" d="M1880.38,2174a3.69,3.69,0,0,1,.41-2.47,3,3,0,0,1,2.36-1.51,5.37,5.37,0,0,1,2.33.44,3.78,3.78,0,0,1,.5.22,7.81,7.81,0,0,1,2.52-.47,3.21,3.21,0,0,1,3.21,3.21,2.53,2.53,0,0,1,0,.28c2.16,1.08,4.31,2.18,5.37,2.81,8.57,5.16,16.34,11.08,24.58,16.57,1.92,1.28,3.41,2.94,5.29,3.94.46.11,2.31.57,3.32.89a7.07,7.07,0,0,1,2,1,3.34,3.34,0,0,1,1.4,2.74,21.61,21.61,0,0,1-1.91,6.65c-1.3,3.19-3,6.89-3.46,9.29-1.92,11.55-2,23.41-3.7,35-.64,4.49.67,11.48,1.1,17.71.34,5,.08,9.52-1.41,12.51a24.86,24.86,0,0,1-8.31,8.88c-4.79,3.3-10.57,5.8-14.92,8-11.49,5.74-21.91,15.18-32.74,21.67-6.43,3.86-14.11,7.66-21.07,9.4a8.21,8.21,0,0,0-2.48,1.45,32.65,32.65,0,0,0-3.14,2.67,3.21,3.21,0,0,1-5.25-2.95s.62-3.83,1.15-5.7a41.38,41.38,0,0,0,1.47-10.81c0-11.09,3.19-21.85,3.19-33v-62.72c0-3.38-1.45-10.78-1.66-16.21a15.63,15.63,0,0,1,.94-7c1.78-3.58,5.79-6.75,10.64-9.25a93.57,93.57,0,0,1,19.09-6.78c3-.76,6.1-4,9.06-6.35l.08-.06Zm5.4,4c-1,.7-2,1.55-3.11,2.44-3.22,2.67-6.66,5.42-9.87,6.22a87.58,87.58,0,0,0-17.7,6.26c-3.49,1.8-6.57,3.85-7.85,6.41a5.4,5.4,0,0,0-.27,1.95,33.54,33.54,0,0,0,.16,4.24c.45,5.17,1.52,11.19,1.52,14.17v62.72c0,11.11-3.19,21.87-3.19,33a49.27,49.27,0,0,1-1,9.56,7.31,7.31,0,0,1,1.25-.45c6.39-1.6,13.42-5.14,19.32-8.68,11-6.58,21.54-16.09,33.18-21.91,3.46-1.73,7.88-3.65,11.9-6.07,3.55-2.14,6.82-4.64,8.45-7.91,1.09-2.18,1-5.54.75-9.18-.46-6.71-1.74-14.24-1-19.07,1.66-11.65,1.8-23.55,3.73-35.15.45-2.75,2.36-7,3.84-10.67.33-.79.64-1.53.89-2.19-1.09-.32-2.28-.66-2.46-.75-2.22-1.11-4-3-6.2-4.46-8.15-5.43-15.83-11.3-24.32-16.4-1.58-.94-5.15-2.67-8-4Z"/><path class="cls-2" d="M1673.82,1969c.26-1.14-1.83-3-1.83-3v10.31c0,5.82-.46,11.56-.94,17.34-1.68,20.2-2.31,40.51-5.16,60.47-.85,6-1.36,11.91-2.34,17.81-.11.66-1.88,6.08-1.41,6.56,2.34,2.34,11.11-1.77,13.13-2.35a124.81,124.81,0,0,0,35.15-15.93c7.35-4.9,19.58-8.8,24.85-14.06,3.57-3.58,2-16.47,2.81-21.1,3.11-18.67,3-37.78,6.09-56.24,1.56-9.35,1.88-19.53,1.88-29.06,0-1.25,2.1-7.27,1.4-8s-5.13,3.34-5.62,3.76c-4.49,3.73-9.72,8.13-15,10.78-12.53,6.26-26.85,7.79-39.38,14.05-4.55,2.28-10.85,6.57-15.93,6.57"/><path class="cls-2" d="M1673.86,1963.42a24.33,24.33,0,0,0,4.41-1.77c2.77-1.35,5.48-3,7.75-4.12,12.52-6.26,26.84-7.8,39.37-14.06,5.07-2.54,10.07-6.79,14.38-10.37.46-.39,3.8-3.43,5.56-4.19a3.81,3.81,0,0,1,4.39.63,4.42,4.42,0,0,1,1,3.55,64.63,64.63,0,0,1-1.52,6.8c0,9.67-.33,20-1.91,29.48-3.08,18.46-3,37.57-6.1,56.24-.53,3.23.06,10.5-.76,15.8-.48,3.08-1.49,5.59-2.94,7a39.64,39.64,0,0,1-9.72,6.4c-5.25,2.68-11.3,5.19-15.61,8.06a128.06,128.06,0,0,1-36.06,16.35c-1.49.43-6.44,2.62-10.12,3.08-2.69.34-4.9-.29-6.16-1.55a4.2,4.2,0,0,1-1-3.49c.22-1.68,1.38-5.33,1.47-5.87,1-5.88,1.49-11.8,2.33-17.74,2.85-19.89,3.46-40.15,5.14-60.27.47-5.69.92-11.35.92-17.08v-7.7a3.28,3.28,0,0,1-.47-1.67,3.17,3.17,0,0,1,.62-1.89,3.21,3.21,0,0,1,4.94-1.66Zm69.12-24.64c-4.46,3.71-9.57,7.86-14.72,10.44-12.52,6.26-26.85,7.8-39.37,14.06-2.78,1.39-6.2,3.51-9.6,5-.75.33-1.5.62-2.25.88a4.08,4.08,0,0,1-.09.61,3.21,3.21,0,0,1-1.75,2.18v4.41c0,5.91-.46,11.74-1,17.61-1.68,20.25-2.32,40.63-5.17,60.65-.86,6-1.37,12-2.36,17.88,0,.29-.46,1.92-.84,3.36l.6-.1a81.13,81.13,0,0,0,7.91-2.66,121.61,121.61,0,0,0,34.25-15.52c3.78-2.51,8.81-4.79,13.59-7.11,4.26-2.07,8.33-4.12,10.76-6.54a3.92,3.92,0,0,0,.77-1.72,21.61,21.61,0,0,0,.62-3.92c.41-5,.06-10.88.53-13.71,3.11-18.68,3-37.79,6.09-56.25,1.53-9.18,1.83-19.17,1.83-28.53a6,6,0,0,1,.15-1Z"/><path class="cls-2" d="M3196.52,1982.76c.1,4.56-.36,32.88-1.15,64.57-1.13,45.16-2.86,97.09-2.86,97.09a1.77,1.77,0,1,0,3.54.16l9.47-161.82a4.5,4.5,0,1,0-9,0Z"/><path class="cls-2" d="M3236.89,2088.82c-1.29,40.38-1.77,95.95-1.83,152.2-.11,112.72,1.45,227.95,1.45,227.95a1.9,1.9,0,0,0,3.79,0s4-115.1,9.64-227.6c2.79-56,6-111.23,9.2-151.34a11.14,11.14,0,1,0-22.25-1.25Z"/><path class="cls-2" d="M3112.38,2452.87c0,21.42-3.83,254.8-3.83,254.8a3.21,3.21,0,0,0,6.42.1s3.84-233.47,3.84-254.9a3.22,3.22,0,0,0-6.43,0Z"/><path class="cls-2" d="M3150.75,2324.75l-.47,260.6a2.23,2.23,0,0,0,4.46,0c.28-25.53,1.14-64.28,2.42-104.19,2.3-71.27,5.62-146.22,5.8-156.41a6.11,6.11,0,1,0-12.21,0Z"/><path class="cls-2" d="M1498.25,1882.9s1.53,24.57,3.19,56.5c.91,17.58,1.86,37.37,2.63,56.53,1.26,30.8,2.07,59.94,2.13,75.4a.65.65,0,0,0,1.29,0c0-8.86-.26-22.19-.59-37.74-.49-22.72-1.22-50.2-1.83-75.45-1-40.61-1.68-75.45-1.68-75.45a2.57,2.57,0,0,0-5.14.21Z"/><path class="cls-2" d="M1474.37,2295.34c0-3.36-.1-7.75-.2-13-.28-14.9-.71-36.82-1.41-62.24-.52-19.25-1.19-40.49-2-62.24-.76-20.74-1.62-41.91-2.54-62.23-1-22.39-2.16-43.69-3.09-62.21a6.75,6.75,0,0,1,13.49-.24c-.27,18.55-.69,39.88-1,62.29-.23,20.34-.39,41.53-.48,62.29-.08,21.75-.08,43,0,62.27.09,25.43.31,47.35.43,62.26.09,9.88.18,16.68.19,19.39a8,8,0,0,1,0,.88h0a2.6,2.6,0,0,1-.3,1.34c-.84,2.13-3,.93-3.09-1.19,0-.81-.09-3-.16-6.68a1.6,1.6,0,0,1,.13-.69Z"/><path class="cls-2" d="M3006,571.52c15,23,40,62.5,66.6,104.92,22.48,35.89,46.12,73.82,66.49,105.12,13.63,21,25.7,39,35.07,51.43a1.35,1.35,0,0,0,1.88.27,1.33,1.33,0,0,0,.26-1.87c-16.37-22.08-41.46-61.5-67.27-104.35-16-26.63-32.36-54.57-47.27-80.36-19-32.81-35.57-62.18-46.68-80.84a5.36,5.36,0,1,0-9.08,5.68Z"/><path class="cls-2" d="M3152.28,713.36s63.4,91.34,81.46,114.56a3.21,3.21,0,0,0,5.07-3.95c-18-23.16-81.26-114.28-81.26-114.28a3.21,3.21,0,1,0-5.27,3.67Z"/><path class="cls-2" d="M1700.47,870.72c.74-.71,5.28-5,6.15-5.88,9.92-9.93,21.86-18.37,32.29-27.85,37.95-34.51,79.69-67.49,115.29-103.09a3.21,3.21,0,1,1,4.54,4.55c-35.66,35.66-77.48,68.73-115.51,103.29-10.35,9.42-22.22,17.79-32.06,27.64-1.08,1.08-6,5.91-7.15,6.72a3.29,3.29,0,0,1-4,0,3.22,3.22,0,0,1-.59-4.51,3.12,3.12,0,0,1,1-.87Zm1.87-.36a3.24,3.24,0,0,1,1.43.53,3.14,3.14,0,0,0-1.43-.53Zm0,0h0Z"/><path class="cls-2" d="M1644.9,872.34c18.52-18.52,76.61-65.46,95.12-84a3.22,3.22,0,0,0-4.55-4.55c-18.5,18.5-76.6,65.45-95.11,84a3.21,3.21,0,0,0,4.54,4.55Z"/></g></svg>