<svg xmlns="http://www.w3.org/2000/svg" viewBox="0 0 4680 3120"><defs><style>.cls-1,.cls-4{fill:#fff;}.cls-2,.cls-3,.cls-4,.cls-5{fill-rule:evenodd;}.cls-3{fill:#ff9600;}.cls-5{fill:#0f0000;}</style></defs><g id="_09" data-name="09"><rect class="cls-1" width="4680" height="3120"/><path class="cls-2" d="M1977.63,1008.46c-1.81,11.65-7.6,76.37-12.14,133.18-3.46,43.18-6.16,81.81-5.85,89.37,2,47.32,5.6,98,14.47,146.13,9.49,51.52,25.06,100.09,50,138.83,34.82,54.12,88.07,89.31,170.32,86.89a5.79,5.79,0,0,0-.34-11.57c-77.36,2.28-127.5-30.68-160.25-81.58-24.18-37.58-38.79-84.8-48.35-134.71-9.12-47.59-13.67-97.65-16.37-144.47-.52-8.73,2.35-59.6,5.7-110.52,3.3-50.27,7.08-100.58,8.49-110.71a2.87,2.87,0,0,0-5.67-.84Z"/><path class="cls-2" d="M2831.23,1319.77c-7.75,29.41-23.09,55.19-42.26,78.44-17.13,20.77-37.39,39.44-58,57-14.17,12.06-28.46,23.64-42.22,34.79-2.79,2.34-14.21,10.26-28.54,19.83-13.76,9.2-30.15,19.91-44.55,28.31-10.61,6.19-20,11.19-26.44,13.34-2.43.82-4.17,1.52-5.15,1a2.94,2.94,0,1,0-2.67,5.23c1.75,1,5.12,1,9.67-.29,6.79-1.9,17-6.52,28.38-12.45,15-7.76,32.1-17.7,46.35-26.5,15.18-9.39,27.09-17.51,30-19.86,13.73-11.33,28.11-23,42.15-35.34,20.76-18.27,40.85-38,57.82-59.61,19.27-24.58,34.44-51.7,41.7-82.37a3.24,3.24,0,1,0-6.28-1.57Z"/><path class="cls-2" d="M2650.94,1144.68c5.88-12.39,11.72-32.46,22.44-51.5,5.68-10.07,12.75-19.86,22.08-27.92,36.13-31.23,70.9-50.23,104.35-54.32,25.53-3.13,50.2,2.58,73.94,18.11,35.07,22.94,55.22,58.51,64,97a217.1,217.1,0,0,1,5.32,47.77,221.51,221.51,0,0,1-11.37,71.32c-5.67,16.7-24.5,45.31-46.86,62.51-15.23,11.72-32.08,18.24-47.45,11.31a2.3,2.3,0,1,0-2,4.17c16.82,8.13,35.78,1.87,53-10.63,24.09-17.46,44.76-47.07,51.28-64.49a227.36,227.36,0,0,0,13.93-74.1,214.65,214.65,0,0,0-4.83-50.34c-9.1-41.36-31.21-79.38-68.86-104-26.17-17.13-53.39-23.33-81.54-19.89-35.32,4.32-72.24,24-110.4,57-10.35,8.94-18.25,19.77-24.55,30.94-10.88,19.31-16.84,39.64-22.81,52.2a5.69,5.69,0,0,0,10.27,4.88Z"/><path class="cls-2" d="M2723.93,1205.93c2.41-26.69,19.37-48.22,39.24-57.43,24.64-11.44,53.83-4.54,67.51,33.75,10.62,30.49-10.31,52-38.18,58.57-24.65,5.83-54.42-.45-70.61-21.43-16.39-21.42-19.95-47.28-14-71.21a99,99,0,0,1,42-58.84c14-8.94,40.47-13.5,62.52-9.36,16,3,29.59,10.55,34.81,23.82a2.51,2.51,0,0,1-4.66,1.87c-4.78-11.57-17.06-17.67-31.15-20.06-20.49-3.48-45,1-57.77,9.46a91.55,91.55,0,0,0-37.82,55c-4.3,18.67-2.32,38.55,8.07,55.85Zm3.54,5.35q.87,1.2,1.8,2.37c14.05,17.94,39.76,22.49,61,17.57,22.46-5.21,40.34-21.5,32.18-46.17-10.66-33.16-35.37-40.09-56.77-31-19.91,8.49-36.87,30.2-38.19,57.19Z"/><path class="cls-2" d="M2553.77,875.78c2.86,5.47,9.11,17.66,10.29,21.5,6.26,20.32,11.53,40.87,18.67,60.86,9.93,27.81,21,74.53,35.55,114.8,9.33,25.77,20,48.89,33,61.94a6.81,6.81,0,1,1-9.62,9.63c-14.15-14.15-26.1-39-36.21-66.94-14.59-40.29-25.63-87-35.57-114.85-7.21-20.18-12.55-40.93-18.86-61.43-1.54-5-10.82-21.27-11.73-24.32-2-6.54,3.36-8.8,5.35-9.14.73-.13,4.12-.63,7.5,3.37a6.71,6.71,0,0,1,1.6,4.58Z"/><path class="cls-3" d="M2395.76,1723.69c-16.68,13.9-46.35,74-59.83,102.61-38.76,82.37-98.17,199.3-111,289l.55.13,218.83,166-24.36,216,734.42,51.43c33.18-46.36,47.08-225.55,42.76-226.12l-122.33,28.67c39.58-121.75,37.5-315.2,42.73-303.83,34.51-136.4-264.21-528.12-366.17-604.47l-93.51,79.72c15.57,103.76-40.59,144.26-95.82,160.56-85.7,25.3-158.9,71.18-166.28,40.35Z"/><path class="cls-2" d="M2222.36,2121.58a6.79,6.79,0,0,1-4.15-7.25c12.89-90.27,72.54-208,111.56-290.93,9.53-20.25,27.07-56,42.5-80.46,7-11.15,13.76-20,19.13-24.47a6.8,6.8,0,0,1,11,3.64,5.89,5.89,0,0,0,4.89,4.69,29.73,29.73,0,0,0,10.43-.17c29.28-4.48,82.79-32.21,142.42-49.82,26.27-7.76,52.86-21.14,71-45.06s27.48-58.45,20-108a6.81,6.81,0,0,1,2.32-6.19l93.52-79.72a6.8,6.8,0,0,1,8.49-.26c71.8,53.75,240.69,262.86,323.59,430.6,36.22,73.31,55.72,139,45.1,181a6.69,6.69,0,0,1-1.32,2.62c-.29,2.37-.79,6.82-1.14,11.74-3.3,46-8.16,181.06-36.86,278.46l110.77-26a7.15,7.15,0,0,1,2.44-.12,6.8,6.8,0,0,1,4.14,2.1,7.53,7.53,0,0,1,1.77,3,27,27,0,0,1,.75,6.69c.42,21.13-6.47,101.42-21,162.15-6.42,26.8-14.45,49.83-23.77,62.85a6.79,6.79,0,0,1-6,2.83l-734.41-51.44a6.79,6.79,0,0,1-6.29-7.55l23.92-212.14-214.76-162.89Zm529.23-669.75-86.47,73.7c7.09,52.24-3.79,88.76-23.19,114.43-19.92,26.34-49,41.36-78,49.91-60.35,17.82-114.58,45.68-144.21,50.21-11.68,1.79-20.21.15-25.43-5a165.09,165.09,0,0,0-10.54,15.15c-15.16,24-32.35,59.12-41.7,79-37.91,80.55-95.84,194.33-109.77,282.85L2448.43,2276a6.8,6.8,0,0,1,2.65,6.18l-23.56,208.94,723.39,50.67c6.71-10.86,12.46-27.47,17.45-46.68,13.32-51.16,20.71-120.38,22.38-153.44.19-3.84.25-7.56.24-10.51L3076.36,2358a6.79,6.79,0,0,1-8-8.72c35.5-109.2,37.26-276.28,41.08-300.34a13.58,13.58,0,0,1,2.07-5.86l.15-.19c8.41-39.94-11.24-100.69-44.8-168.61-80.31-162.52-242.06-364.49-315.25-422.43Z"/><path class="cls-2" d="M2784.5,2077.43a2.74,2.74,0,0,1-.49,1.35,2.44,2.44,0,0,1-3.66.67,2.54,2.54,0,0,1-1.18-2.5c0-.08,0-.28.09-.58s.23-1,.47-2c.78-3.28,2.45-10.15,4.65-18.86,1.52-6,3.2-12.88,5.14-20,1.19-4.36,2.43-8.83,3.8-13.25,1.55-5,3.25-10,4.87-14.71,6.45-18.85,12.08-34.12,12.08-34.12a2.7,2.7,0,0,1,5.16,1.57s-3.58,14.62-8.36,32.88c-1.18,4.52-2.39,9.27-3.78,14-1.81,6.22-3.83,12.49-5.82,18.47-3.57,10.74-7.18,20.5-9.6,27.44-1.52,4.37-2.64,7.57-3.15,9.12a3.39,3.39,0,0,1-.22.5Z"/><path class="cls-2" d="M2746.77,1720.56c-4.18,46,22.31,219.83,22.31,219.83a6.81,6.81,0,0,0,13.46-2.05s-26.33-171.28-22.22-216.55a6.8,6.8,0,1,0-13.55-1.23Z"/><path class="cls-2" d="M2775.57,1944.1c1.29.22,4.06,2.32,8.3,5.55,15,11.47,44.41,37.87,78.47,67.77,11.25,9.86,23,20.13,34.94,30.27,7.85,6.64,15.83,13.2,23.77,19.63,40.68,33,80.2,62.9,103.71,76.65A4.06,4.06,0,0,0,3029,2137c-19.7-12.54-50.52-38-84.11-66.31-11.52-9.73-23.34-19.84-35.24-29.79-10.61-8.88-21.28-17.63-31.66-26.11-17.19-14-33.67-27.19-48.05-38.63-28.28-22.51-49.07-37.87-53.41-38.41a3.2,3.2,0,1,0-.95,6.32Z"/><path class="cls-2" d="M2980.27,1771.17c17.78,55.76,29.91,86.82,38.7,126.75,5.2,23.59,9.25,50.28,12.55,87.09,1.54,15.11,1.43,36.91.78,59.16-1.26,43.86-4.86,89.42-4.86,89.42a4.21,4.21,0,1,0,8.38.76s4.71-45.73,6.47-89.84c.91-22.74.95-45-.55-60.52-4.07-37.23-8.66-64.21-14.47-88-9.76-39.94-22.87-70.83-42.22-126.42a2.52,2.52,0,1,0-4.78,1.6Z"/><path class="cls-2" d="M2562,1682.7c10,.19,27.26-5.48,43.5-14.8,14.08-8.07,27.31-18.9,34.64-30.84,6.83-11.33,11.43-27,13.78-44.1a242,242,0,0,0,2-27.15c.32-14.2-.4-28.2-1-40.52a2.09,2.09,0,0,0-4.18,0c-.67,14.13-1.83,30.45-3.64,46.65-.58,5.15-1.21,10.28-1.9,15.33s-1.47,10.26-2.4,15.15c-2.22,11.64-5.23,22.22-9.87,30.4-6.27,11.24-18.14,21.57-30.76,29.5-14.86,9.34-30.76,15.43-40.15,15.61a2.39,2.39,0,1,0,0,4.77Z"/><path class="cls-2" d="M2753.45,1456.19c1.39,3.36,6.23,9.06,13,15.5,13.63,12.88,35.35,30.13,43.95,38.73,48.13,48.12,92,103.88,132.44,158.73,83.76,113.68,159.54,235.47,168.78,352.94a6.81,6.81,0,1,0,13.57-1.06c-9.41-119.71-86-244.11-171.39-360-40.81-55.38-85.17-111.67-133.77-160.28-8.66-8.65-30.51-26-44.23-39-4.91-4.65-8.81-8.4-9.81-10.83a6.81,6.81,0,0,0-12.57,5.22Z"/><path class="cls-2" d="M2440,2056.93c.37.36-.06,2.12.11,3.89,1,10.8,4.93,36.27,5.87,45.36,1.41,13.48,2.36,27,3,40.57,1,20.25,1.4,40.55,1.69,60.84.38,28.12,1.06,56.06.7,83.87q-.22,18.06-1.15,36.05a696.67,696.67,0,0,1-8.3,80c-3.33,20-10.41,42-14.51,62.9a138.5,138.5,0,0,0-3,26.2,6.13,6.13,0,0,1-12.26,0,150,150,0,0,1,3.22-28.56c4.08-20.77,11.14-42.67,14.45-62.55a704.7,704.7,0,0,0,8.14-78.6c.64-11.87,1-23.76,1.38-35.67.81-27.72,1.14-55.58,1.51-83.62.29-20.18.5-40.39.06-60.55-.3-13.44-.89-26.85-1.92-40.23-.71-9.12-4-34.67-4.74-45.5a33,33,0,0,1-.11-5.17,3.1,3.1,0,0,1,2-2.69,2.74,2.74,0,0,1,2.93.55,2.82,2.82,0,0,1,.88,2.93Zm-4.34,1.59a2.56,2.56,0,0,0,1.49.49,2.84,2.84,0,0,1-1.49-.49Zm0,0-.21-.17.21.17Z"/><path class="cls-4" d="M2994.32,2120.62l-175.94-148.19L2778.21,2079s-12.2-21-19-32.7c-65.17-112.34-169-293.39-180-312.62-7.05-12.34-24.11-53.76-24.11-53.76,23.8-23.81,44.21-76.45,37.44-110.29-3.39-17-27.23-34.23-49.21-19.48-10.79,7.24-25.34,19.24-31.78,22.56-32.6,16.76-25.4,25.33-104.37,13.08-30.7-4.77-94.9-53.28-121.09-59.82-38.18-9.55-76,31.26-84,63.39-5.72,22.9,12.66,50.85,29.32,64.19,52.89,42.3,70,47.6,133.13,63.38,18.87,4.72,52.16,5.29,61.8,24.57v1.15c6.32,14.35,166.26,445,234.34,543.62,66.62,96.48,130.8,64,158.47,58.49,60.94-12.19,175.16-169.34,175.16-224.18Z"/><path class="cls-2" d="M2419.78,1743.26c-3.46-5.73-9.87-9-17-11.43-13.11-4.44-28.89-5.73-39.79-8.45-32.52-8.13-53-13.57-72.34-22.51-18.88-8.75-36.66-20.82-63.3-42.14a98.22,98.22,0,0,1-28.1-38c-4.36-10.93-6-22.41-3.38-32.92,5.18-20.6,21.73-44.55,43-58.19,14.79-9.49,31.79-14,48.81-9.74,20.43,5.15,63.78,35.45,96.75,51.35,9,4.35,17.18,7.6,23.73,8.63,34,5.35,51.57,6.82,63.37,5.26,14.61-1.92,20.05-8.63,37.44-17.52a56.52,56.52,0,0,0,5.9-3.76c7.33-5.13,17.38-13,25.36-18.38,12.06-8,24.56-7.93,34.91-3.53,11.87,5.06,20.76,16,22.87,26.64,3.51,17.76,0,40.45-7.6,61.8-7.07,19.74-17.64,38.31-29.11,50.73,2.33,5.63,7.44,17.86,12.48,29.25,3.75,8.48,7.46,16.48,9.92,20.82C2591,1744.11,2640,1830,2691,1919.11c25,43.67,50.51,88.11,71.86,125.1l14.57,25.2,37.31-98.35a3.89,3.89,0,0,1,6.14-1.6L2996.5,2118l3.83,2.6c0,28.42-29.3,83.89-66.89,133.22-37,48.56-82,90.9-113.05,97.15-18.64,3.74-53.22,18.8-94.12,2-22.24-9.13-46.47-27.68-70.91-63-20.63-29.85-49.72-89.91-80.37-159.76-70.76-161.25-150.26-374.85-154.68-384.88a6.63,6.63,0,0,1-.53-2.09Zm400.31,235.68-38,101.56a4.15,4.15,0,0,1-7.46.63l-19.09-32.67-180.73-312.21c-2.6-4.52-6.52-12.85-10.48-21.68-7-15.53-14-32.62-14-32.62a5.23,5.23,0,0,1,1.14-5.69c11.41-11.47,21.92-29.89,28.82-49.47,6.83-19.39,10.17-40,6.92-56-1.53-7.52-8-15-16.42-18.5-7.2-3-15.88-3-24.23,2.65-7.9,5.33-17.82,13.23-25.07,18.36a67.8,67.8,0,0,1-7.24,4.61c-19,9.84-25.15,16.73-41.14,18.92-12.43,1.7-31,.46-66.78-5-7.48-1.14-16.85-4.65-27.15-9.57-32.26-15.4-74.57-45.13-94.55-50.09-17-4.22-33.81,3.05-47.39,14.63-14.26,12.15-25.05,29.19-28.79,44.23-2.48,10,.55,21,5.76,31.06a85.3,85.3,0,0,0,21.4,26.4c25.52,20.42,42.5,32.08,60.6,40.45,18.68,8.65,38.53,13.83,70,21.69,13.21,3.3,33.29,4.75,47.88,11.55,8,3.74,14.51,9,18.23,16.47a6.4,6.4,0,0,1,.69,2.81c8.44,21,85.45,226.9,154.08,383.55,30.18,68.89,58.67,128.22,79,157.68,22.5,32.65,44.6,50.08,65.12,58.54,37.69,15.56,69.58.87,86.78-2.56,10.65-2.11,23-9.11,36.07-19.19,22.77-17.49,47.57-44.24,69.63-73.07,35.76-46.72,64.65-98.78,64.68-125.73l3.83,2.59-172-144.27Z"/><path class="cls-2" d="M2238,1155c-1.31-1.4-1.94-3.66-2.45-6.19A46.35,46.35,0,0,1,2235,1137c.52-7.5,2.13-15.12,5.47-18.45a8.51,8.51,0,1,0-12-12c-5.39,5.39-9.56,17.18-10.42,29.29-.87,12.46,1.89,24.84,7.55,30.9A8.51,8.51,0,1,0,2238,1155Z"/><path class="cls-2" d="M2228.66,1112.07a64.79,64.79,0,0,1,2.32-6.52,149,149,0,0,1,13.29-21.07,320.83,320.83,0,0,1,52.42-54.56c41.1-33.63,85.73-62.68,134.21-83.46,5.26-2.25,20.74-10.19,32.4-13.36,7.37-2,13.74-1.8,17.43,0,8.57,4.29,14.16,11.82,18,20.78,4.55,10.65,6.4,23.48,10,32.59a8.51,8.51,0,1,1-15.8,6.32c-3.07-7.68-4.89-18-8.07-27.41-2.33-6.92-5.21-13.54-11.34-16.83a17.07,17.07,0,0,0-2.17.13,49,49,0,0,0-8.07,2.19c-10.1,3.52-21.44,9.36-25.71,11.19-47,20.16-90.27,48.37-130.13,81a303.08,303.08,0,0,0-49.58,51.59,130.2,130.2,0,0,0-11.69,18.48c-.69,1.39-1.49,4.79-2.06,6.4a12.22,12.22,0,0,1-1.68,3.3,8.11,8.11,0,0,1-8,3.35c-1.43-.19-7.2-1.14-7.5-8.67a8.45,8.45,0,0,1,1.71-5.47Zm15.22,4,0,.27v-.11l0-.16Zm-.17-.9.09.41v.06l-.12-.55,0,.08Zm-.19-.65.06.2,0-.13,0-.07Z"/><path class="cls-2" d="M2486.63,998.18a8.51,8.51,0,0,1,16.5,2.94c0,2.31-1.25,6.14-5.11,9.8-6.82,6.46-24.43,16.23-29.85,18-21.38,7.13-77.25,40.89-97.06,53.26-34.21,21.39-71.13,39.4-102,65.86-3.59,3.08-18.67,19.66-27.45,25.57-4.76,3.21-9.07,3.78-11.54,3.25a8.51,8.51,0,0,1,1-16.79,122,122,0,0,0,9.64-7.82c7.32-6.9,14.89-15.07,17.29-17.13,31.52-27,69.14-45.53,104.07-67.37,20.52-12.82,78.53-47.59,100.69-55,2.93-1,10.27-5,16.44-9a84.72,84.72,0,0,0,7.4-5.66Z"/><path class="cls-2" d="M1979.41,1056a19.68,19.68,0,0,1,1.95-.61,11.67,11.67,0,0,1,5-.16c5.08,1,9.54,3.67,14.28,5.77,13.2,5.87,24.65,13.52,36.65,21.51,39.94,26.63,70.34,54.9,97.07,95a8.51,8.51,0,1,1-14.16,9.44c-25.41-38.12-54.37-65-92.35-90.27-11.18-7.45-21.82-14.65-34.12-20.12-3.13-1.39-6-3.3-9.26-4.27-1,.38-2.65,1-3.35,1.12a10,10,0,0,1-4,0,8.95,8.95,0,0,1-7-10.47,8.51,8.51,0,0,1,9.36-7Zm7.46,9.52-.06.4.06-.4Zm0-.37v0Z"/><path class="cls-2" d="M1987.31,1149.09c11,3.32,28.21,7.73,33.33,9.44,29.15,9.72,55.89,29,84.72,36.24,5,1.26,10.47,1.15,14.65-.81a8,8,0,0,0,5-7.59,8.51,8.51,0,0,1,17,0c0,20.94-21.44,29.73-40.75,24.91-29.23-7.31-56.41-26.76-86-36.61-6-2-28.56-7.72-38.51-11.11-4.37-1.48-7.12-3.22-7.92-4-3.88-3.87-3.09-7.73-1.49-10.53a8.49,8.49,0,0,1,5.25-4.11c1-.29,3.51-.65,8-.26a8.46,8.46,0,0,1,6.76,4.46Z"/><path class="cls-2" d="M2615.32,1233.32c-6.45-37.83-31.28-61-63.29-74.52-45.91-19.46-106.7-19-144.56-15.73s-87.7,18.2-124.59,46c-24.69,18.62-43.65,42.91-49.59,73.22-3.08,15.6-2.82,37.1,1.89,57.48,4.63,20.07,13.59,39,27.76,50.32,10.75,8.63,20.24,15.29,30.46,20.27s21.45,8.36,35.38,10.14c28.61,3.74,78.26,1.61,122.69-6.79,31.69-6,60.73-15.23,77.9-27.86,10.94-8,50.69-30,72.32-66.45,10.89-18.38,17.25-40.36,13.63-66.09Zm-13.24,2.09c3.94,22.49-1,42-10.12,58.44-19.63,35.53-57.5,57.19-67.77,65.11-16.2,12.38-43.87,21.59-74.1,27.76-43.58,8.91-92.41,11.43-120.59,8.07-13.24-1.62-23.82-4.68-33.67-9.43s-19.06-11.23-29.47-19.53c-13.26-10.63-21.47-28.49-25.74-47.3-4.44-19.54-4.61-40.15-1.59-55.08,5.87-28.75,24.12-51.68,47.76-69.12,36-26.58,84.54-40.45,121.31-43s95.55-2.2,139.52,17.59c27.88,12.54,49.61,33.12,54.46,66.52Z"/><path class="cls-2" d="M2365.39,1288.83a81.54,81.54,0,0,1,14,2.41c8.58,2.49,16.42,7.35,20.85,16.22,3.25,6.49,2.61,20.87.47,27.31-.94,2.8,0,7.1-.21,10.89-.25,5.39-1.82,10.1-5,13.25-7.1,7.1-19,8.21-31.72,4.44-15.76-4.68-32.51-16.3-38.35-24.08-8.14-10.86-11.87-31.06-14.07-44.3-6.25-37.49,5.5-69.88,28-90.28s56.05-29,94.06-18.17c12.28,3.51,36.29,12.1,53.27,24.28,13.4,9.61,22.19,21.72,21.56,34.69a8.5,8.5,0,0,1-17-.82c.38-7.86-6.37-14.23-14.49-20.05-15.29-11-37-18.58-48-21.74-31.46-9-59.32-2.45-78,14.43a69,69,0,0,0-9,10,40.84,40.84,0,0,1,14.06,4.57,214.4,214.4,0,0,1,19.5,14.25c3.77,3.12,6.61,6,7.62,7.62,3.41,5.36,1.1,9.45-1,11.53-1.51,1.51-10.67,14.87-16.6,23.59Zm-32.82-45c-5.6,14-7.38,30.53-4.41,48.37,1.83,11,4.17,27.9,10.91,36.89,4.46,6,17.53,14.41,29.58,18a29.6,29.6,0,0,0,10.17,1.5,7.45,7.45,0,0,0,4.36-1.39,12.09,12.09,0,0,0,.27-1.65,47.21,47.21,0,0,0,0-4.77c-.08-4.23.06-8.32,1.06-11.34a32.37,32.37,0,0,0,1.11-9.83,11.92,11.92,0,0,0-.64-4.49c-2.45-4.88-7.33-6.81-12.09-7.93-6.68-1.58-13.54-1.46-17.65-1.83a19.05,19.05,0,0,1-6.39-1.5,9.45,9.45,0,0,1-4.46-4.35,9.84,9.84,0,0,1-.89-6,22.57,22.57,0,0,1,2.46-6.73c3.77-7.24,12.9-19.7,18.82-27.29l-.33-.29a198,198,0,0,0-16.26-12.13c-5.64-2.82-9.06-3.22-15.66-3.26Zm36.91,9.93a6.93,6.93,0,0,1,.48-.52c-.17.17-.33.34-.48.52Z"/><path class="cls-2" d="M2121.74,1237c-22.69-3.09-53.44-4.9-85.65-.64-27.47,3.64-56,11.72-81.55,27.15-14.85,9-27.63,27-36.33,46-10.39,22.71-14.71,46.75-11,58.23,6,18.22,20.35,31.73,38.22,41.66,24.62,13.7,55.89,20.58,79.18,24.55,13.79,2.31,56.84,1.34,95.88-13.56,20.7-7.91,40.22-19.73,53.88-36.74,20.7-25.82,24.2-59.93,14.58-89-10-30.14-34-54.7-67.1-58.93l-.16,1.27Zm-1,7.72c29.36,4,50.38,26.12,59.1,53,8.45,26,5.36,56.57-13.29,79.57-15.8,19.53-40.17,31.27-64.29,38.26-32.44,9.41-64.58,10.17-75.9,8.3-22.37-3.65-52.46-9.95-76.2-22.91-15.78-8.6-28.77-20.12-34.18-36.09-3.45-10.19,1.07-31.46,10.13-51.76,7.81-17.48,19.13-34.28,32.66-42.63,24.47-15.11,51.89-23.1,78.33-26.85,31.48-4.47,61.59-2.93,83.81-.11l-.17,1.27Z"/><path class="cls-2" d="M2193.2,1301.59c2.78-2.27,6.93-3.54,11.67-4.66a148.43,148.43,0,0,1,16.31-2.37c5.69-.64,11.44-1.48,16.94-1.84a4.64,4.64,0,1,0,0-9.27,140.31,140.31,0,0,0-18.5-.37,78.53,78.53,0,0,0-12.43,1.93c-8.64,2-15.89,5.29-20.27,9.65a4.68,4.68,0,1,0,6.28,6.93Z"/><path class="cls-2" d="M2077,1327.64a40.27,40.27,0,0,1,6.1-.83c7.79-.39,13.73,2.56,16.44,8,4,8.1,5.83,31.69,1,46.87-2.74,8.69-7.78,14.69-13.9,16.73-8.94,3-17.94,1.6-26.37-3.3-10.57-6.15-20.37-18.32-27.35-33.38-10.06-21.71-14.31-49.26-8-71.09,4.55-15.87,14.42-28.88,31-35.53,8.88-3.55,21.57-3.82,34.82-1.69,18.58,3,38.24,10.49,48.66,17.43,4.82,3.22,14.29,10.17,19.58,17.08,3.06,4,4.8,8.18,5.06,11.92a8.47,8.47,0,0,1-1.46,7.79c-3,3.79-6.12,3.59-7.46,3.53a8.2,8.2,0,0,1-6.71-3.79,8.49,8.49,0,0,1-1.2-2.67,31.88,31.88,0,0,1-.1-4.74s-.05.66-.05.84c0-.5-.48-.93-.84-1.48a24.09,24.09,0,0,0-2.48-3.08A81.47,81.47,0,0,0,2130,1285c-9-6-25.95-12.21-41.93-14.79-9.81-1.58-19.22-1.94-25.8.69a34.87,34.87,0,0,0-6.2,3.22,34.6,34.6,0,0,1,6.85,4.1c7.89,6,16.89,16.33,20.12,19.55a9.39,9.39,0,0,1,1.7,9.77c-1,2.9-4.47,12-7.73,20.1Zm-32.84-39.85a51.38,51.38,0,0,0-4.7,16.6c-2,16.4,1.88,35,8.93,50.18,4.51,9.74,10.32,18.11,16.91,23.37,5,4,10.46,6.16,16,4.32.78-.26,1.1-1.18,1.58-2.08a30.1,30.1,0,0,0,2.69-8.6c1.78-9.78,1.4-21.81-.62-27.68a25.66,25.66,0,0,0-3.91.26,72.66,72.66,0,0,0-15.31,5.13,8.52,8.52,0,0,1-12.13-7.78,23,23,0,0,1,.67-4.91,12.1,12.1,0,0,1,2.13-4.23l.06-.11c2.43-4.47,8-18.84,10.8-26.45a162.4,162.4,0,0,0-11.75-11.7,60.14,60.14,0,0,0-6.77-4.71,8.4,8.4,0,0,1-4.56-1.61Zm107.87,7a7.14,7.14,0,0,0-2.42,1.88,8.37,8.37,0,0,1,2.42-1.88Z"/><path class="cls-2" d="M2368.28,1255.67l-.32.24a8.51,8.51,0,1,0,10.17,13.64l.32-.24a8.51,8.51,0,1,0-10.17-13.64Z"/><path class="cls-2" d="M2331.76,1243.8c2.23-4.88,6.1-7.18,10.74-7.18a15.78,15.78,0,0,1,13.61,7.08,17.6,17.6,0,0,1,4.83,2.12,7.69,7.69,0,0,1,3.72,2.74c3.49,2.84,7.29,6.34,8.44,10.94,1.49,6-.62,8.92-1.35,9.84a8.45,8.45,0,0,1-5.92,3.25,9,9,0,0,1-2.24,0,12.48,12.48,0,0,1-2.6,2.63,16.35,16.35,0,0,1-1,2.69c-1.67,3.35-3.95,4.69-6.24,5.11a78.06,78.06,0,0,1-2.12,14.52,8.47,8.47,0,0,1,5.22,4.64,7.91,7.91,0,0,1,6.35-2.42,8.55,8.55,0,0,1,3.83,1c3.34-1.8,7-1.45,10.72.78,4,2.41,8.36,9.22,9.19,10.88,1.36,2.7,2.95,8.05,3.91,13.94a41.71,41.71,0,0,1,1.66,14.41c-.67,6.52-3.7,11.45-8.72,14l-.58.26c-.24.14-.49.27-.73.39a12.58,12.58,0,0,1-14.44-1.69,9.46,9.46,0,0,1-6.42.25,15.28,15.28,0,0,1-6.13-4.1c-.36-.37-.71-.77-1-1.18a9.15,9.15,0,0,1-2.61-.26,12,12,0,0,1-6.14-4.34,58.35,58.35,0,0,1-4.17-6.61,30.77,30.77,0,0,1-6.22-7.52,49.52,49.52,0,0,1-7.49-24.63,41.66,41.66,0,0,1-1.68-6.89,98,98,0,0,1-1.07-12.87c-1-8.29-2-22.71,1.09-32.2a22.78,22.78,0,0,1,5.63-9.45Z"/><path class="cls-2" d="M2031.23,1308a67.76,67.76,0,0,1-.78-12.77c.36-7,2.51-12.94,6.25-16.68a12.31,12.31,0,0,1,9.39-4c3.63.12,7.49,2.06,10.38,6.4a20.52,20.52,0,0,1,5.71,3.79c5,4.55,10,12.68,12.59,18.85a24.54,24.54,0,0,1,2.09,8.6c0-.42-.14-1.41-.14-1.41s-.84,9.13-4.56,11a10.5,10.5,0,0,1-1,.42,18.2,18.2,0,0,1-1.8,7,8.84,8.84,0,0,1-5,4.53,26.12,26.12,0,0,0,4.67,1.95c3.13,1,6.28,1.73,9.19,2.66,5.27,1.67,9.84,4.07,13.23,8.16s5.73,9.77,5.73,19c0,2.29.22,5.38,0,8.18a18.33,18.33,0,0,1-2.7,8.37,15,15,0,0,1-7.08,6c-2.7,3.46-7.16,5-12.74,3.34-5.15-1.57-12-7-13-8-4.1-4.1-16-18.66-19.61-30.17a28,28,0,0,1-1.19-5.74,116.51,116.51,0,0,1-8.34-24.09,57.79,57.79,0,0,1-1.31-15.27Z"/><path class="cls-2" d="M2465.13,942.92a9.24,9.24,0,0,1,7-1c2.51.56,7.41,4.18,8,4.63a20.73,20.73,0,0,1,5.48,7.74,8.53,8.53,0,0,1,4.77,3.7s2.82,4.66,4,7.1a65.36,65.36,0,0,1,5,13.48l.41.09c2.71.67,6.32,2.7,6.77,8.23a20.64,20.64,0,0,1-.4,4.78c.31,1.38.61,2.87.74,3.93a16.71,16.71,0,0,1-.24,5.92,10.83,10.83,0,0,1-3.63,5.83,10.69,10.69,0,0,1-2.69,1.62,9.7,9.7,0,0,1-15.3,1.68,12,12,0,0,1-5.78,4.25,16.08,16.08,0,0,1-5.9.87,15.17,15.17,0,0,1-3.84,3.54,11,11,0,0,1-9.52,1.14,14.73,14.73,0,0,1-2.53-1.12c-.22.15-.44.28-.65.4a11.79,11.79,0,0,1-9.34,1.35,23.77,23.77,0,0,1-6.69,5.43,14.72,14.72,0,0,1-7.19,1.73c-.45.56-.9,1.09-1.34,1.58-6.11,6.78-12.65,8-17.13,6.18a18.54,18.54,0,0,1-4-2.18c-3.57,5.29-7.29,9.46-10.83,11.85a19.94,19.94,0,0,1-6.36,2.92,65.52,65.52,0,0,1-4.78,5.14c-3.66,3.48-7.16,5.38-9.77,6a29.42,29.42,0,0,1-8.77,6.7,17.21,17.21,0,0,1-4.72,1.39c-1.55,2.16-3.14,4.28-4.8,6.35-2.5,3.13-11.7,11.65-19.39,14a17.08,17.08,0,0,1-7.32.73c-1.41,1.6-2.89,3.19-4.36,4.65a50.21,50.21,0,0,1-4.23,3.76c-.53.67-1.07,1.31-1.6,1.92-4.82,5.61-9.64,9.46-13.7,11.08-4.53,1.81-8.66,1.6-12.31-.37a18.36,18.36,0,0,1-5.38,4.36,11.23,11.23,0,0,1-3.1,1c-.53.66-1.08,1.3-1.64,1.9-2,3.24-3.94,6.47-5.89,9.72-2.29,3.82-6.88,8.77-11.08,10.16a16.51,16.51,0,0,1-9.58.67c-7.14,14-14.85,26.88-21.32,33.36a9.12,9.12,0,0,1-8.09,2.81,9.25,9.25,0,0,1-2.49-.7,10.34,10.34,0,0,1-7.93-3c-2-2-4.15-6.47-5-12.62-1.31-9.49-.64-24.21,1.49-34,1.22-5.65,3.19-9.94,5.06-12.09a12.07,12.07,0,0,1,2.13-2c2.95-5.77,7.32-10.87,11.26-16.12,1.35-1.81,4.29-5.91,5.93-7.77a12.49,12.49,0,0,1,3.24-2.7,8.65,8.65,0,0,1,4.41-1.12c3.93-4.56,7.9-9.09,12.19-13.38,1-1,11.63-11.23,17.09-14.07,4-2.08,7.36-1.79,9.79-.72a52.31,52.31,0,0,1,5.87-9,13,13,0,0,1,4.68-3.38,58.55,58.55,0,0,1,5.8-9.45,186.47,186.47,0,0,0,13.76-12.74,12.1,12.1,0,0,1,8.93-2,11.19,11.19,0,0,1,4.69,2l1.57-2.22a53.27,53.27,0,0,1,4.58-5.84,10.25,10.25,0,0,1,4.52-2.62,9,9,0,0,1,3.22-.25,97.85,97.85,0,0,1,10.27-11.43,28.09,28.09,0,0,1,7.6-5.2,13.66,13.66,0,0,1,4.24-1l1.18-1a8.51,8.51,0,0,1,10.35-.58,8.65,8.65,0,0,1,1.62,1.45,44.68,44.68,0,0,1,4.16-4.14l0,0c1.08-2.67,2.22-5.17,3.39-7.4,3.41-6.44,7.46-10.89,11.13-12.82a12.75,12.75,0,0,1,13.83.67c.33.22.64.45.95.7a23.27,23.27,0,0,1,3.21-1.41,11.29,11.29,0,0,1,6.95-2.89c2.23-2.71,5.47-6.48,8.11-9.3a30.35,30.35,0,0,1,5.94-5.19,8.32,8.32,0,0,1,8.44,0,9.35,9.35,0,0,1,2.19,1.64,21.28,21.28,0,0,1,4.45-5.29,10.51,10.51,0,0,1,7.76-2.36,10,10,0,0,1,2.35.55Zm15,3.64-.24-.19.31.24-.07-.05Z"/><path class="cls-2" d="M2397.72,1028.75a118.67,118.67,0,0,0,13.08-3.72c2.67-1,5.15-1.89,6.2-2.93a8.51,8.51,0,1,1,12,12c-3.75,3.75-16.47,8.75-25.05,10.78-5.07,1.2-9.11,1.14-10.49.76a8.56,8.56,0,0,1-5.64-4.58,8.26,8.26,0,0,1,.5-8.72,8.51,8.51,0,0,1,9.37-3.62Zm5.18,12.43-.22.37c.08-.12.15-.25.22-.37Zm.21-.38-.2.37.17-.32,0,0Zm.18-.37-.18.36.14-.29,0-.07Zm.14-.35-.11.28.08-.2,0-.08Zm.1-.28,0,.06,0,0v0Z"/><path class="cls-2" d="M2408.09,1045.08a8.5,8.5,0,0,1-16,.37,11.09,11.09,0,0,1-.55-6.61,11.62,11.62,0,0,1,4.83-7,25.26,25.26,0,0,1,7.62-3.31c2.78-.76,5.9-1.29,8-2a8.51,8.51,0,1,1,5.38,16.14c-2,.67-4.84,1.25-7.58,1.93-.51.12-1.12.31-1.7.49Z"/><path class="cls-2" d="M1986.71,1161.8a13.32,13.32,0,0,1-3.28-1.17c-28.09-14.05-32.57-45.81-26.74-75a42.81,42.81,0,0,1,11.2-20.76c4.69-4.56,10.42-7.36,16.57-7.36,4.51,0,8.27,1.88,10.2,4.52a10.49,10.49,0,0,1,1.32,2.43,10.3,10.3,0,0,1,6.74,1.67c1.76,1.06,6.08,5,11.28,10.64,3.92,4.27,8.48,9.57,13,15.16,1.83,1.5,3.67,3,5.48,4.47a20.54,20.54,0,0,1,6.9,1.78,10.37,10.37,0,0,1,1.57-1.43,9.46,9.46,0,0,1,8.79-1.37,13.32,13.32,0,0,1,2.22.94,12,12,0,0,1,4.17.53,36.25,36.25,0,0,1,9.23,5c10.86,7.55,28.6,23.86,41,36.21l1.37,1.2.8.71a13.4,13.4,0,0,1,3.34,2.6c.39.42.83,1,1.3,1.58,2.35,2.15,4.64,4.34,6.85,6.54.49.49,1,1,1.46,1.52a64.33,64.33,0,0,1,16.25,17.35c1.11,1.67,3.1,5.15,3.1,5.15a11,11,0,0,1-7.1,16.32,14.48,14.48,0,0,1-4.46,10.54,11.15,11.15,0,0,1-7.35,3.16c-2.74.2-7.17-.52-12.66-2.34-2.53-.83-5.36-1.89-8.41-3.14a95.76,95.76,0,0,1-12.89-4.7,236,236,0,0,1-23.19-12.24l-1.82-.93a10.58,10.58,0,0,1-.55,1.33c-2.37,4.73-6.22,6.41-11.2,5.64a19.31,19.31,0,0,1-5.83-2.15c-1.38-.73-2.79-1.72-3.92-2.17-8.55-3.42-19.21-9.88-29.2-16.64a7.69,7.69,0,0,1-7.42,4.3c-2.22,0-5.5-1-8.8-4.08a12.78,12.78,0,0,1-5.59-2.41,34.06,34.06,0,0,1-3.72-3.42Z"/><path class="cls-2" d="M1860.3,1002.84a71.42,71.42,0,0,0,10.91,6.83c9.88,4.94,30.31,5.85,41.4,4,41.17-6.86,116.85-29,152.35-50.28,75.67-45.41,117.4-119,178.78-180.34,29.16-29.16,56-45.44,80.25-44.92,24.85.54,48.46,18,69.58,60.28a8.5,8.5,0,0,1-15.21,7.61c-17.15-34.3-34.57-50.44-54.74-50.88-20.75-.44-42.88,15-67.85,40C2193.4,857.46,2150.62,931.83,2073.71,978c-36.9,22.14-115.51,45.34-158.3,52.47-13.89,2.32-39.43.63-51.81-5.56a88.14,88.14,0,0,1-14.65-9.33c-1.28-1-3.34-4.52-4.58-6.77a8.5,8.5,0,0,1-2-4.15c-1.58-8.74,6.35-10.3,7.39-10.42a8.1,8.1,0,0,1,8,3.69c.28.41,2,3.86,2.53,4.93Zm-1.1-.36a8.63,8.63,0,0,1-.09,2,7.37,7.37,0,0,0,.09-2Zm0-.36,0,.36,0-.24,0-.12Z"/><path class="cls-2" d="M1962.06,1145.21c-41.36,20.68-100.91,10.43-148.16-19.24-54-33.89-92.59-92.39-81.88-146,18-90.11,96.65-101.48,138.91-157.19,47.23-62.27,87.09-230.81,144.5-216.45,11.94,3,44.17,8.72,51,17l-8.71-5.14c-19.07-22.47,58.39-122.74,77.16-141.5,105.62-105.63,229.94-139.55,372.36-76.25,0,0,39.61,12.7,47,12.7,49.46,0,93.76,2.33,141.07,16.53C2782.82,456,2818,565,2877.09,624.15c26.29,26.29,74,39.14,102.94,10.17,5.27-5.27,6.89-13,14-16.53,31.11-15.55,9.16,59.45,7.63,63.55-5.51,14.69-12,25.32-21.61,38.13l-5.69,1.47c2.5-.82,14.38,13.32,24.75,15,9.06,1.51,24.09.68,31.78-5.09,1.14-.86,12.54-9.06,14-7.62,14.21,14.22-42,56.21-50.84,59.73,0,0,25,70.09,29.23,81.34,28.52,76.06,14.1,155.61,1.27,232.57-5.61,33.68-19.93,66.55-34.31,95.32-9.37,18.72,24.74,17.87,21.6,24.14-9.31,18.62-35.59,3.83-47,15.25-16.35,16.35,32.44,48.3,47,48.3,2.37,0,5.48,1.75,3.82,5.08-17.26,34.51-113.82,13.08-64.82,45.75,6.39,4.26,19.36,7.92,24.15,12.71,3.24,3.24-33.91,15.79-36.86,16.52-11.77,3-104.68-35.47-104.68-35.47,89.86,6,133.24-90.39,110.89-185.71-52.41-223.51-246.18-141.06-298,.75-7.16,19.61-38.75-78-62.27-156.91-8.37-28.08-44.39-80.3-40.51-115.26,7.54-67.78-74.34-79.58-95.29-38.43l-2.49-.46a84.52,84.52,0,0,1,1.19-14.34c8.28-49.66-25.09,23.81-25.09,23.81l-25.76,20.21-19.44-62.7c1-48.6-64-69.36-135.56,21.36-101.73,129-188.8,177-258.4,190.39l-20.59,138Z"/><path class="cls-2" d="M2046.39,605.05c.68-7.57,3.64-17,8.31-27.26,17.83-39.29,60.73-93.63,74.18-107.08,108.19-108.19,235.55-142.84,381.42-78.19,4.21,1.38,37.41,12.16,44,12.16,50.32,0,95.38,2.44,143.51,16.88,45.54,13.66,77.73,48.57,106,88.08,26.82,37.55,50.07,79.23,79.34,108.5,23.24,23.24,65.29,35.78,90.9,10.16,2.83-2.82,4.38-6.51,6.62-9.63a25.84,25.84,0,0,1,9.58-8.48c7.88-3.94,13.84-3.54,18.11-1.51,4.57,2.16,8,6.62,9.61,13.2,1.86,7.65,1.2,19-.6,30.1a238.84,238.84,0,0,1-7.73,32.35c-5.31,14.16-11.46,24.76-20.21,36.78.74.59,1.5,1.18,2.29,1.76,2.81,2.08,5.84,4.23,8.81,4.73,7.18,1.19,19.18,1.07,25.27-3.5,1.07-.8,9.88-7,14.19-8.62,5.36-2,9.24.11,10.91,1.78,6.71,6.71,6.13,17.66-2.09,29.41-10.37,14.8-32.31,32.09-44.4,40.06,6.32,17.68,23.42,65.52,26.84,74.63,29.06,77.5,14.76,158.55,1.7,237-5.76,34.52-20.36,68.24-35.1,97.72-.47.93-1,1.54-.77,2.12.41.88,1.46,1.28,2.44,1.81,3.25,1.76,7.2,2.88,10.21,4a21.58,21.58,0,0,1,8,4.61c3.23,3.44,3.93,7.25,1.74,11.62-6.3,12.61-17.86,15-30.27,15a116.17,116.17,0,0,0-12.48.28c-2.23.27-4.35.64-5.86,2.16-1.35,1.35-.75,3,.07,4.79,2.07,4.37,6.34,8.81,11.28,13a95.36,95.36,0,0,0,21.07,13.32c3.49,1.56,6.49,2.71,8.58,2.71,5.12,0,10.81,3.49,12.33,8.6a11.59,11.59,0,0,1-.91,8.8c-3.53,7.07-9.53,12.45-17.09,16.43-9.6,5.06-21.87,7.84-33.51,9.76-7.71,1.27-17.07,3.09-22.92,4.26a64.29,64.29,0,0,0,5.82,4.41c3.54,2.36,9.31,4.45,14.28,6.76,4.63,2.15,8.69,4.54,11.16,7a8.82,8.82,0,0,1,2.69,6.18,9.44,9.44,0,0,1-2.35,6.53c-1.51,1.81-6.06,4.77-12.14,7.45-10.86,4.78-27.06,10.15-29,10.64-3,.74-10.25,0-19.77-2.62-30.13-8.42-90.23-33.25-90.23-33.25A8.51,8.51,0,0,1,2834,1316c84.26,5.6,123-85.9,102-175.28-19.85-84.64-60.1-123.77-105.61-130.67-27-4.09-55.56,3.19-82,18.29-40.63,23.25-76.23,65-94.19,114.11-2.05,5.62-5.72,7.52-8.83,8s-8.45-.78-13-7.19c-12.72-17.78-37.4-94-56.54-158.22-5-16.66-19.83-41.89-30.05-66.88-7.49-18.31-12.44-36.56-10.75-51.75,1.8-16.18-2.13-28.68-9.46-37.43-10.89-13-28.85-17.61-44.41-14.39-10.68,2.21-20.31,8.2-25.39,18.19a8.51,8.51,0,0,1-9.13,4.5l-2.49-.45a8.52,8.52,0,0,1-7-8.37c0-1,0-2,0-2.93-4.3,8.46-7.68,15.92-7.68,15.92a8.61,8.61,0,0,1-2.5,3.17l-25.76,20.21a8.49,8.49,0,0,1-13.37-4.17L2368.48,798a8.46,8.46,0,0,1-.38-2.69c.2-9.66-2.7-18-8.32-23.85s-13.79-9.05-23.71-9c-23.46.06-54.86,17.24-88.34,59.68C2147,949.82,2060.08,999.19,1990.18,1014.37l-19.71,132.1a8.51,8.51,0,0,1-4.61,6.35c-43.65,21.83-106.61,11.68-156.48-19.64-57.08-35.84-97-98.2-85.7-154.85,9.5-47.5,34.83-74.34,63.5-96.55,26.6-20.61,56.3-36.86,77-64.11,33-43.54,62.39-139.09,96.73-187.57,17.25-24.35,36.46-37,56.62-32,6.27,1.56,18,3.9,28.89,6.94Zm954.45,19.29a16.15,16.15,0,0,0-3,1.07c-2.72,1.36-3.92,3.93-5.39,6.31a45.65,45.65,0,0,1-6.37,8.61c-32.33,32.33-85.64,19.17-115-10.16-29.88-29.88-53.77-72.3-81.16-110.63-26-36.37-55.09-69.11-97-81.69-46.48-13.94-90-16.16-138.62-16.16-7.82,0-49.62-13.11-49.62-13.11l-.86-.33c-138.82-61.7-259.95-28.46-362.9,74.49-12.82,12.82-53.72,64.63-70.71,102.08-3.36,7.4-5.77,14.16-6.64,19.86-.38,2.51-.67,4.72-.18,6.43,4.34,2.13,7.69,4.5,9.62,6.84a8.51,8.51,0,0,1-10.88,12.75l-8.7-5.14a7.32,7.32,0,0,1-1-.72c-1.85-.72-3.87-1.4-6-2.06-11.74-3.68-26-6.4-33.06-8.17-8.8-2.2-16.85,1.8-24.72,9-9.73,8.94-18.88,22.68-27.84,38.89-28.6,51.76-54.58,127.81-83.1,165.42-17.43,23-40.76,38.76-63.79,55.23-31.88,22.8-63.26,47-73.55,98.49-10.11,50.5,27.18,105.15,78.06,137.1,43.14,27.09,97.06,37.66,135.88,20.67L1974.23,1006a8.5,8.5,0,0,1,6.81-7.1c68.31-13.16,153.47-60.71,253.33-187.31,46.18-58.54,90.77-72.18,118.06-63.83,20.13,6.17,32.66,23.57,32.69,46.48l15.4,49.65L2415,832.54c2.31-5,8.8-18.66,14.75-28.7,4-6.68,8.08-11.79,10.77-13.55a10.43,10.43,0,0,1,7.17-1.79,9.41,9.41,0,0,1,6,3.18,12.33,12.33,0,0,1,2.87,6.82,39.76,39.76,0,0,1-.09,8.5,57.4,57.4,0,0,1,21.29-9c21.38-4.43,45.94,2.29,60.89,20.12,9.89,11.78,15.76,28.46,13.34,50.24-1.42,12.78,3.29,28,9.59,43.42,10.45,25.57,25.53,51.43,30.61,68.47,16.32,54.72,36.49,118.56,49.59,145.26.17.34.34.68.52,1,35.21-83.83,118.15-144.22,190.7-133.24,50.63,7.67,97.54,49.44,119.63,143.61,20.47,87.31-12.39,174.56-83,192.91,13.9,5.38,29.94,11.36,43.37,15.77a237,237,0,0,0,23.5,6.07c2.55-.74,13-4.23,21.68-7.77a84.72,84.72,0,0,1-12-6c-6.86-4.58-11.2-8.34-13.62-11.32-3.05-3.76-3.94-7.15-3.9-9.88a12.05,12.05,0,0,1,5.32-9.85c2.48-1.83,6.51-3.45,11.75-4.61,11.12-2.48,29.33-3.6,44.3-8.55,5.11-1.69,9.89-3.74,13.48-6.74a76.32,76.32,0,0,1-13.8-6c-12.11-6.61-25.35-17-31.79-27-6.63-10.31-6.91-20.4.95-28.26,6.09-6.1,15.11-7.44,24.82-7.44a92.32,92.32,0,0,0,11.93-.33c.57-.08,1.14-.17,1.69-.29l-1.83-.73c-6.42-2.69-11.92-6.81-14.12-12.33-1.7-4.21-2-9.48,1.33-16.07,14-28,28.06-60.07,33.53-92.91,12.59-75.5,27.14-153.56-.84-228.18-4.23-11.27-29.28-81.47-29.28-81.47a8.51,8.51,0,0,1,4.85-10.76c5.36-2.14,29.63-19.85,41.85-35.35-9.8,5.2-25.24,6.25-35,4.62-5.9-1-12.32-4.86-17.74-9-2.84-2.19-6.52-5.14-7.82-6.19a8.5,8.5,0,0,1-.43-16.3,3.29,3.29,0,0,1,.5-.14h0L2975,712c8.13-11.07,13.82-20.67,18.68-33.63.86-2.3,8.63-28.51,8.4-46a30.59,30.59,0,0,0-.67-6.48,10.33,10.33,0,0,0-.56-1.56Zm-24.25,104.8-.13,0a8.34,8.34,0,0,1-2.41.27,7.09,7.09,0,0,0,2.54-.3Z"/><path class="cls-4" d="M1999,1014.5c-7.52,1.49-56.16,22.78-99.45,15a74.51,74.51,0,0,1-51.65-34.8c-6.3-9.63-8.12-24.21-7.12-38.25,1.13-15.89,5.78-31.15,12.36-38.26a1.94,1.94,0,0,0-2.74-2.74c-7.71,7.13-14.2,23.13-16.77,40.21-2.42,16-1.14,32.84,5.21,44.47a80.73,80.73,0,0,0,18.87,22.44c12,9.63,26,14.59,40.31,16.59,45,6.25,94.33-18.05,102-20a2.4,2.4,0,1,0-1-4.68Z"/><path class="cls-2" d="M2458.47,832.74a7.74,7.74,0,0,1-1.42,8.23,8.13,8.13,0,0,1-8,3.08,12,12,0,0,1-5.8-3.3,9.8,9.8,0,0,1-2.52-6.28,21.7,21.7,0,0,1,3.91-11.45c4.29-6.6,12.14-13.27,16.95-16.16,14.91-8.94,41.18-10.65,55.69-1,12,8,16.22,20.57,19.34,33.93,2.26,9.68,3.63,19.86,10.64,26.87,15.91,15.92,42.91,29.55,71.28,38s57.91,11.77,79.55,6.36c36-9,65.25-41.79,86-70.77a8.51,8.51,0,1,1,13.84,9.89c-22.88,32-55.87,67.44-95.66,77.39-24.08,6-57.12,2.81-88.54-6.56s-60.9-24.72-78.46-42.28c-9.25-9.25-12.18-22.24-15.17-35-2.13-9.11-4.06-18.23-12.21-23.66-9.77-6.51-27.45-4.61-37.5,1.42a43.22,43.22,0,0,0-10.2,9.12c-.6.77-1.25,1.47-1.72,2.16Zm-15.62-1.1c-1,1.62-1.76,4.12-.1,7.56a8.44,8.44,0,0,1,.1-7.56Z"/><path class="cls-2" d="M3289.32,947.12a3.65,3.65,0,0,1,1.13-4.38,3.61,3.61,0,0,1,4.36-.29c.64.37,2.17,2.09,2.24,5.72.08,4.33-.72,13.78-2.32,27.3-5.91,50-22.05,156.66-43.36,265.88-7.72,39.58-16.23,79.47-25,117.12-16.7,71.4-34.63,134.71-50.36,172.82a4.28,4.28,0,1,1-7.94-3.19c14.83-38.09,30.71-101.35,46.44-172.34,7.88-35.59,15.69-73.12,23.29-110.42,21-103,39.5-204.45,47.5-259.06,2.65-18.08,4.22-31,4.41-37,0-.44.07-.91.12-1.31-.46-.33-.74-.67-.47-.88Zm4.89,1.83-.22.1.08,0,.14-.07Zm.31-.16-.25.14.25-.14Zm.1-.06.26-.18-.26.18Zm-4.82-.82c.06-.58.08-1-.16-.93a.87.87,0,0,0-.32.14,3.71,3.71,0,0,0,.44.74l0,0V948l.13.1.09,0h0l-.2-.24Z"/><path class="cls-2" d="M3300.71,944.41c.08-.48,1.18,0,2.08-.11a102,102,0,0,0,14.2-3.48c30.23-9,92.6-33.75,158.73-62.21,15.36-6.61,30.92-13.42,46.37-20.18,23.83-10.44,47.37-20.85,69.15-31.07,40.4-18.94,74.89-36.83,94.62-51.15,6-4.33,10.57-8.26,13.44-11.78,1.57-1.92,2.65-3.58,2.86-5.12a4,4,0,1,1,7.91.92c-.7,6.84-10,17-26.39,28.51-27.65,19.4-75.3,44.74-128.12,69.16-20.29,9.38-41.38,18.58-62.34,27.3-21.54,8.95-43,17.3-63.28,25-51.05,19.37-94.93,34.07-116.28,39.17-8.61,2.06-14.16,2.21-15.82,1.32a3.46,3.46,0,0,1,2.87-6.28Z"/><path class="cls-2" d="M3703.32,764.55c3.17,1.69,5.22,6.08,7,12.35,2.7,9.56,4,23.24,4.35,40,1,55.85-10.15,145.38-25.84,234.15-5.57,31.52-11.59,63-18,92.76-11.62,54-24.26,102.58-36.64,136.42-5.77,15.77-11.41,28.28-16.83,36.51-3.51,5.32-6.43,8.89-9.59,9.32a4.8,4.8,0,1,0,1.22,9.52c3.28-.4,6.81-2.23,10.36-5.72,4-3.9,8.2-10.1,12.5-18.32,15.48-29.64,32.86-86.76,48.23-153.54,7.65-33.28,14.91-69,21-104.81,15.35-89.63,24.58-180.23,22.62-236.53-.75-21.54-3.26-38.2-7.6-48.15-2.45-5.59-5.57-9.29-9.09-11.09a4,4,0,0,0-3.72,7.11Z"/><path class="cls-2" d="M3175.93,1533.84c.41-.42,1.45.38,2.65.38,4.68,0,12.3-1.61,22.27-4.47,36.54-10.47,103.09-38.32,172.35-69.77,24.18-11,48.75-22.28,72.43-33.58,56.77-27.08,108.53-53.93,138.1-74.9,9.09-6.44,16.06-12.24,20.36-17.27,2.7-3.16,4.39-5.77,4.33-8.07a3.41,3.41,0,0,1,6.81-.27c.17,3.13-1.23,6.94-4.34,11.2-5.31,7.26-16,16.36-30.62,26.64-24.92,17.47-61.53,38.65-102.88,60-22.69,11.73-46.77,23.63-71.16,34.87-20.46,9.44-41.15,18.39-61.25,26.77-61,25.45-116.77,45.33-147.11,52.46-9.28,2.18-16.3,3.15-20.55,2.8-4-.34-6.24-2-7-3.93a3.17,3.17,0,0,1,5.62-2.9Z"/><path class="cls-2" d="M3256.55,1158.45a8.5,8.5,0,0,1-.91,17c-1.54,0-8.49-2-18.63-5.8-34.05-12.92-112.7-45.78-130.84-51-7.38-2.11-70.83-10.12-78.43-13.18a9.44,9.44,0,0,1-4.94-4.16,8.1,8.1,0,0,1,.18-8.81,8.67,8.67,0,0,1,5.1-3.86c1.15-.36,4.1-.79,9.3-.79a8.53,8.53,0,0,1,6.78,3.37c19.53,3,61.19,9.5,66.69,11.07,18.32,5.23,97.8,38.36,132.2,51.42,6.49,2.46,12.71,4.48,13.5,4.74Z"/><path class="cls-2" d="M2837.69,569a5.64,5.64,0,0,1-9.35-6.29,11,11,0,0,1,4.68-4.12c3-1.49,7.84-2.63,13.75-3.28,10.74-1.2,25.27-1,36.51-.18,16.16,1.19,32.3,2.78,48.43,4.56,37.33,4.14,74.64,9.35,112.13,13.18q71.14,7.51,140.34,19.69,46.61,8.25,92.6,18.62c76.32,17.13,151.73,38.2,227.69,61.54,25.75,7.94,107.6,47.65,158.34,69.85,19.37,8.48,33.85,14.55,38.28,14.59a5,5,0,0,1,0,10.08c-4.87,0-21.09-5.8-42.51-14.79-50.62-21.24-132.32-59.42-158-66.9-75.9-22.22-151.31-41.76-227.39-58.25q-45.8-9.93-92-18.37c-45.81-8.33-92-15.56-139.06-21.05-37.47-4.49-74.73-10.33-112-15.14-16-2-31.9-3.93-47.89-5.41a235.75,235.75,0,0,0-24.64-1,87.31,87.31,0,0,0-16.46,1.46c-1.51.34-4,.43-3.5,1.17l0,0Zm0,0a4.14,4.14,0,0,0,.38-.55c-.09.16-.24.67-.38.55Z"/><path class="cls-2" d="M2660.56,1326.21c-1.47-2.24-8.38-7.92-16.6-13.06-6.14-3.86-13-7.43-18.72-9.12a130.72,130.72,0,0,0-26.62-4.56,172.78,172.78,0,0,0-26.92,0c-30.71,2.53-64.14,10.11-91.06,26.68-18.32,11.28-33.63,26.72-43.23,47.42-7.08,15.42-1.46,37.39,11.84,55.6,11.53,15.79,28.66,28.64,46.86,32.06a140.63,140.63,0,0,0,60.71-2.09c21.88-5.65,39.86-15.69,55.14-24.11,13.46-7.41,27.71-19.95,37.49-33.48,7.55-10.45,12.45-21.48,12.34-31.24a1.48,1.48,0,0,0-3,0c-.11,9.16-5,19.4-12.37,29a115.67,115.67,0,0,1-36.95,31.1c-15.12,7.71-32.92,16.9-54.37,21.77a133.3,133.3,0,0,1-57.4.5c-16.11-3.12-31-14.84-41.24-28.84-11.25-15.38-17.14-33.64-11.24-46.72,8.62-19.3,22.67-33.72,39.49-44.43,25.74-16.39,57.9-24.17,87.5-27.11a166.68,166.68,0,0,1,26-.47,125,125,0,0,1,25.55,3.92c5.35,1.49,11.79,4.76,17.58,8.27,7.51,4.54,14,9.42,15.32,11.42a2.33,2.33,0,1,0,3.88-2.58Z"/><path class="cls-2" d="M1993.27,1403.83c7-.81,24.8,1.6,44.07,5.14s39.6,8.22,52.53,11.78c5.74,1.58,9.8,2.74,11,3.59a99.67,99.67,0,0,1,26.46,27.08c7.53,11.54,11.38,23.37,11.06,34.66-.68,23.43-18.05,43.43-49.53,49a2.17,2.17,0,0,0,.6,4.29c36.08-3.72,56.55-26.14,59-52.64,1.21-13.36-2.08-28-10.84-41.84-6.79-10.74-17.05-20.81-30.41-29.7a26.75,26.75,0,0,0-6.88-2.6c-9.67-2.56-30-6-50.63-8.86-24.07-3.29-48.51-5.66-57-4.21a2.2,2.2,0,0,0,.63,4.36Z"/><path class="cls-2" d="M2230.62,1488.05a425.28,425.28,0,0,1,42.82.84,299.21,299.21,0,0,1,42.5,5.83,1.33,1.33,0,0,0,.64-2.58,311.92,311.92,0,0,0-34.06-6.76c-9-1.38-17.91-2.53-25.81-3.44-12-1.4-21.73-2.26-26.09-2.47a4.29,4.29,0,0,0,0,8.58Z"/><path class="cls-2" d="M3137.92,1701.11a8,8,0,0,0,.85.29,22.68,22.68,0,0,0,5.69.19c7.47-.44,19.54-2.66,35.14-6.46,58.58-14.23,166.31-50.44,268.48-93,15.09-6.29,30.06-12.71,44.77-19.15,23-10.06,45.33-20.26,66.26-30.5,48.44-23.68,89.4-47.52,113.9-70.23,17.8-16.49,27.08-31.87,22.75-45.94a3.51,3.51,0,1,1,6.67-2.16c6.65,19.58-8.19,43.12-38.22,67.55-23.23,18.89-55.41,38.76-92.72,58.12-20.54,10.67-42.62,21.21-65.6,31.34-21,9.26-42.79,18.14-64.73,26.66-103.75,40.29-211.37,72.19-266.74,83.74-17.28,3.6-29.59,5.2-35.29,4.42a7,7,0,0,1-4.64-2.1c-.28-.06-1-.23-1-.57a2.17,2.17,0,0,1-1.59-3.87,2.89,2.89,0,0,1,2.24-.58,9.38,9.38,0,0,1,3.3,1.67,2.11,2.11,0,0,1,.49.59Z"/><path class="cls-2" d="M3069.8,2349.5c.13-.14.31-.42.45-.59a11.22,11.22,0,0,0,1.06-1.59,62.32,62.32,0,0,0,4.63-12.31c1.51-5.18,3.07-11.52,4.64-18.9,6.16-28.89,12.49-73.45,18.72-125.71,3.15-26.48,6.14-55,9.25-84.34,4.86-45.93,9.77-94.13,13.64-140.76,4.74-57,8.26-111.58,9.48-156.7,1.3-48.3.18-85.57-4.93-102.82a5.24,5.24,0,0,1,10-3c8.52,27.55,8.55,105.33,3,198.08-3.72,62.24-9.64,131.29-17.15,196.25-2.8,24.2-5.94,47.83-9.15,70.33-10.21,71.67-21.43,131.89-30.39,162.85-3.6,12.45-7.08,20.34-10,22.79a4.54,4.54,0,0,1-4.93,1.05,2.43,2.43,0,0,1,1.61-4.59Zm0,0c-.12,0-.23-.05-.2,0s.11.05.2,0Zm0,0,.18.06-.18-.06Z"/><path class="cls-2" d="M3080.76,2346.2c.83,0,2-.07,3-.08,5.13,0,12.84-1.4,22.69-3.8,24.57-6,61.81-18.63,105-35.23,21.7-8.35,44.86-17.76,68.71-27.71,37.16-15.5,75.94-32.41,112.84-50.22,88.17-42.57,166-89.1,187.35-125.51a2.4,2.4,0,1,1,4.16,2.38c-24.92,44.56-130.25,106.38-238.88,157-32,14.95-64.33,28.95-95,41.12-62.13,24.72-117.15,42.35-147.8,48.44-11.93,2.37-20.49,2.85-24.79,1.64-3.05-.86-4.79-2.51-5.57-4.38a7.26,7.26,0,0,1-.08-5.34,4.31,4.31,0,0,1,8.38,1.65Zm-.26,0c-.15-.51-.45-.87-.65-.5s.12.45.65.5Z"/><path class="cls-2" d="M3697.63,1445.86c3.16,1.08,5.18,4.72,7,10,2.85,8.48,4.3,21,4.66,36.58,1.17,49.54-9,129.88-24.3,216.21-7,39.7-15.27,80.65-23.88,120.5-5.93,27.4-12.08,54.27-18.2,79.85-15.58,65.23-31.32,122-45.21,157-7,17.74-13.29,29.81-18.81,34.09a3.26,3.26,0,0,0,3.93,5.2c9.59-7.06,22.64-34.59,36.5-75.06,11.13-32.5,23.13-73.39,34.56-118.49,6.49-25.6,12.75-52.56,18.69-80.07,8.64-40,16.5-81.19,23.27-121.1,18-105.91,27.69-202.94,19.7-246.2-2.79-15.13-8.3-24.1-15.22-26.38a4.17,4.17,0,0,0-2.65,7.91Z"/><path class="cls-2" d="M3702.49,1434a3.15,3.15,0,0,1-.28,6.29c-1.8.19-11.64-3.3-24.9-10-4.56-2.29-9.49-5-14.63-8.08-6.38-3.79-13-8.16-19.71-12.5-16.6-10.71-33.43-21.91-45.63-29.36-5.59-3.41-10.15-6.06-13.18-7.52a9.77,9.77,0,0,0-2.19-1,3.54,3.54,0,0,1,0-7.08c1.3,0,4.65,1,9.4,3.3,13.49,6.4,41.23,21.92,66,36.26,5,2.88,9.82,5.66,14.31,8.47,3.29,2,6.38,4.09,9.25,6.09,7.74,5.37,13.85,10.07,18,12.77,1.69,1.1,3.29,2.92,3.65,2.33h-.28c.08,0,.35-.17.31,0l0,0Z"/><path class="cls-2" d="M3243.84,1256c-1.55-1.32-5.08-3.3-10.43-5.47-9.78-4-26.89-9.57-47.69-15.83-69.06-20.77-178.94-48.61-194.9-48.61a8.51,8.51,0,0,0,0,17c15.57,0,122.63,27.64,190,47.89,20.14,6.06,36.72,11.46,46.19,15.31,2.91,1.18,5,2,5.82,2.67a8.51,8.51,0,0,0,11-13Z"/><path class="cls-2" d="M3043.56,1817.05c29.16,7.6,68.92,32.9,86.21,50.18a8.5,8.5,0,0,0,12-12c-18.83-18.84-62.19-46.35-94-54.63a8.51,8.51,0,0,0-4.29,16.47Z"/><path class="cls-2" d="M3189.21,2336.71a8.78,8.78,0,0,1,13.47-10.94,12.4,12.4,0,0,1,3.41,7.46c.69,5.06.45,16.47.45,22.21,0,20.07-3.77,38.35-7.64,57.69-5.5,27.53-10.61,64.84-21.21,97.72-7.45,23.09-17.66,44-32.15,58.51a8.51,8.51,0,0,1-12-12c12.76-12.76,21.43-31.36,28-51.69,10.39-32.25,15.32-68.85,20.72-95.84,3.65-18.23,7.31-35.44,7.31-54.35,0-4.39-.23-14.8-.32-18.73Zm7.86,3.95a7.4,7.4,0,0,0,5.47-2.58,8.47,8.47,0,0,1-5.47,2.58Z"/><path class="cls-2" d="M2257.74,2161.67s-27.81,81-49.34,140.45c-10.26,28.36-19.06,51.81-22.7,59.08-.81,1.64-3.37,3.39-6.94,5.62-8.85,5.51-23.59,12.23-40.71,19.21-51.93,21.22-125.5,44.78-125.5,44.78a4.49,4.49,0,1,0,2.74,8.55s73.95-23.69,126.16-45c17.69-7.22,32.91-14.2,42.06-19.91,5.5-3.43,9-6.69,10.22-9.21,3.7-7.4,12.68-31.22,23.11-60,21.55-59.55,49.38-140.58,49.38-140.58a4.48,4.48,0,1,0-8.48-2.92Z"/><path class="cls-2" d="M1859.27,2564a16.36,16.36,0,0,0-1.51.87,73.12,73.12,0,0,1-10.89,6.63c-8.22,4.17-17,7.25-24.92,12-24.63,14.76-94,40.08-142,36.35-26.25-2-46.16-12.68-51-36.67-3.82-19.17,5.26-36.87,21.15-52.36,30.55-29.81,86.47-51.59,112.85-61.47,1.21-.46,22.78-6.4,39.28-11.13,7.19-2.06,13.4-3.89,16.43-4.91a4.32,4.32,0,1,1,2.76,8.19c-3.09,1-9.44,2.93-16.8,5-16.22,4.66-37.44,10.48-38.62,10.93-22.14,8.31-65.68,25.1-96.36,48.17-21.1,15.87-36.36,34.53-32.1,55.82,5.19,25.87,32.08,31.74,63.16,29.59,43.72-3,96.16-22.87,116.61-35.15,8.08-4.85,17.07-8,25.47-12.3a63.37,63.37,0,0,0,9.57-5.83,115.31,115.31,0,0,1,14.09-6.92,8.52,8.52,0,0,1,3.27-.56,4.49,4.49,0,0,1,2.88,1.34,5.17,5.17,0,0,1,1,5.44,58.38,58.38,0,0,1-4.35,8c-8.57,12.87-22.85,28.77-24.63,42.44-1,8,3.43,14.55,17.1,19.1,11.31,3.77,19.7,1.22,26.3-4.75,9.75-8.83,15.89-24.23,21.74-38.08,5-11.73,9.75-22.42,15.61-28.28,2.82-2.83,8.46-4.74,15.33-5.67,10.74-1.45,24.78-1,31.72-2.15,55.7-9.28,110.9-11.6,166.84-18.41,23.32-2.84,46.77-6.47,70.44-11.72,13.51-3,48.33-5.72,74.68-11.61,12.39-2.76,22.87-6,27.57-10.71,15.3-15.3,35-45,54.05-77,35.12-58.86,68.12-125.39,68.12-125.39a4.49,4.49,0,0,1,8.05,4s-33.16,66.86-68.46,126c-19.53,32.74-39.75,63.12-55.4,78.77-5.5,5.5-17.5,9.9-32,13.13-26.36,5.88-61.18,8.6-74.69,11.6-24,5.33-47.7,9-71.3,11.88-55.81,6.79-110.88,9.09-166.46,18.35-7,1.17-21.15.73-32,2.19-4.47.61-8.34,1.28-10.18,3.12-6.42,6.41-11.08,19.43-16.72,32.52s-12,26-21,34.12-20,11.63-35.13,6.59c-19.64-6.55-24.61-17.2-23.1-28.72,1.75-13.45,14.22-29.17,23.44-42.38Z"/><path class="cls-5" d="M1016.18,878.5c-2.31,25.39-2.7,57.62-1.46,93.69A1506.67,1506.67,0,0,0,1028,1124.67c3,21.77,6.55,43.54,10.64,64.81q2.4,12.39,5.08,24.51c2.77,12.44,5.78,24.63,9,36.48,14.88,55.48,33.45,103.69,54.77,135a1.39,1.39,0,0,0,2.32-1.53c-17.94-28.27-33-69.84-45.51-117.74-4.43-17-8.48-34.73-12.35-53q-4-18.76-7.7-38.09c-2.41-12.66-4.73-25.44-6.87-38.26-8.89-53.06-15.19-106.76-18.13-154.54-2.48-40.07-2.64-75.94-.55-103.68a1.24,1.24,0,1,0-2.47-.2Z"/><path class="cls-5" d="M1107.71,1379.67c.24.22.4.95.87,1.54a96.27,96.27,0,0,0,9.74,9.84c21.14,19.3,69.5,57.22,126.35,96.65,47.86,33.19,101.73,67.42,150.37,92.64,40.67,21.17,82.13,40.55,122.8,58.5,43.32,19.1,85.79,36.46,125.81,51.88,145.27,56,258.16,86.26,258.16,86.26a3.07,3.07,0,0,1-1.53,5.94s-113.92-28.12-260.06-83.21c-40.28-15.18-83-32.44-126.4-51.82-40.77-18.21-82.08-38.41-122.7-60.14-58.55-31.44-124.55-76.27-178.49-116.16-46.09-34.09-83.36-64.57-99.54-80.15-4.94-4.75-8-8.22-8.84-10s-.24-3.14.66-3.69a1.85,1.85,0,0,1,2.8,2Z"/><path class="cls-5" d="M1020,882.45c1,.1.83,1,.79,2.08-.12,3.78-1.73,9.27-.44,12.52a255.26,255.26,0,0,0,11.08,24.14c4,7.75,8.36,15.32,13,23.09,10.42,17.6,26,34.9,43.44,51.21,25.39,23.71,54.87,45.31,78.55,62.49,46,33.47,144.29,87.22,250.41,138.22,18.33,8.81,36.9,17.54,55.51,26,18.76,8.52,37.53,16.81,56.1,24.7,35.12,14.93,69.45,28.53,101.26,40.34,71.08,26.4,129.75,43.37,157.92,43a2.27,2.27,0,0,0,0-4.53c-27.82-.4-85.1-19.18-154.62-47-31.37-12.56-65.18-27.06-100-42.4-18.4-8.11-37.07-16.44-55.79-24.9-18.56-8.39-37.17-16.88-55.56-25.43-106.25-49.37-205.21-100.64-251.56-133.14-23.76-16.71-53.4-37.69-78.94-60.9-17.36-15.77-32.82-32.56-43.25-49.7-4.65-7.67-9-15.13-13.09-22.78a253.15,253.15,0,0,1-11.12-23.69c-1.42-3.5,1.12-9.85.46-13.16a4,4,0,0,0-3.79-3.56,1.74,1.74,0,1,0-.37,3.46Z"/><path class="cls-5" d="M1097.57,1371.83a8.37,8.37,0,0,0-1.45-.07,31.82,31.82,0,0,0-6.73,1.58c-11.25,3.62-30.3,13-50.42,24.77-10.61,6.19-21.54,13-31.7,20.11-23.44,16.42-43,34.23-44.37,49.5a2,2,0,1,1-4-.29c1-16.19,20.39-36.37,44.94-54.06A333.66,333.66,0,0,1,1036,1393c20.71-11.55,40.69-20,52.26-23.24,4-1.13,7-1.64,8.89-1.5a3.84,3.84,0,0,1,3.26,1.67,1.74,1.74,0,0,1-2.87,1.95Z"/><path class="cls-5" d="M1436.33,1194.5a8.51,8.51,0,0,1-15.38-4.8,9.26,9.26,0,0,1,2.48-6.56c1.34-1.52,5.08-4,10.83-6.49,20.4-8.75,72.35-24.07,80.21-27,82.39-30.9,183-54.49,269.88-54.49a8.51,8.51,0,0,1,0,17c-85,0-183.34,23.19-263.91,53.4-8.58,3.22-70.93,21.31-84.11,28.94Zm1.63-4.79v0Z"/><path class="cls-5" d="M1784.09,1328.12s8.46,90.55,28.68,194.17c5.27,27,11.28,54.89,18.42,82.21,4.8,18.39,10.21,36.48,15.92,54,15.46,47.35,33.65,89.9,54,119.71a2.93,2.93,0,1,0,4.9-3.21c-18.75-30.13-34.46-72.8-48-119.86-5-17.49-9.62-35.59-14.17-53.84-6.78-27.2-13.17-54.77-18.83-81.47-21.8-102.81-33.55-192.5-33.55-192.5a3.75,3.75,0,1,0-7.46.84Z"/><path class="cls-5" d="M1536.06,1066.12c-1.51-8.59-5.47-31.33-10.74-62.22-3.3-19.31-7.09-41.81-11.13-66-21.66-129.69-51-308.28-51-308.28a3,3,0,1,1,6-1s31,178.31,53.17,307.91c4.15,24.19,8,46.69,11.2,66,6.66,39.74,10.94,66.06,10.94,66.06a3.93,3.93,0,0,1-3.16,4.51,396.68,396.68,0,0,0-98.31,31,456.88,456.88,0,0,0-88.14,54.1,2.44,2.44,0,0,1-3-3.83,461.17,461.17,0,0,1,88.41-56.11,402.92,402.92,0,0,1,95.84-32.08Z"/><path class="cls-5" d="M1022.12,888c11.31-42.54,73.66-95.71,149.31-143A1118.19,1118.19,0,0,1,1283,684.27c17.75-8.43,35.25-16.32,52.24-23.26,51.23-20.92,97.45-33.76,128.13-32.59a1.78,1.78,0,1,0,.2-3.55c-35.77-2.49-93.15,12.64-155.06,38.27-12.9,5.34-26,11.15-39.07,17.39-19.07,9.08-38.17,19.05-56.89,29.58-49.48,27.84-96.23,59.71-131.84,91-34.16,30.06-58,59.82-64.43,85.37a3,3,0,0,0,5.8,1.5Z"/><path class="cls-2" d="M2285.54,2510.3l-349.22,42.64s-36,76.83-52.9,87.41c-15.23,9.55-46.62-9.11-48.36-23.91s38-64.88,38-64.88-147.22,61.79-187.53,69.44c-19.39,3.69-46.37-10.83-54.35-23.5s6.51-52.54,6.51-52.54-73.59-.08-83.84.71c-64.66,5-280.65,33.69-262.57,92.7,26.91,87.79,326.53,90.28,388.55,93.57,163.09,8.67,581.82,20.93,816.52,19.43,592.89-3.79,844.56-45,884.89-59.11,16.72-5.84,39.26-55-22.83-78.3-83-31.14-150.83-47.38-238.54-60.61-339.23-51.19-568.63-51.28-834.31-43Z"/><path class="cls-5" d="M2284.51,2501.86l-349.22,42.64a8.49,8.49,0,0,0-6.67,4.83s-17.39,37.12-33.54,63c-6.14,9.82-11.75,18.07-16.18,20.85-2.25,1.41-5.14,1.51-8.16,1.14a37.16,37.16,0,0,1-12.55-4.27,39.09,39.09,0,0,1-12.19-9.73,10.51,10.51,0,0,1-2.49-4.84c-.14-1.22.52-2.81,1.26-4.75a81.39,81.39,0,0,1,5.16-10.64c10.8-19.3,29.78-43.21,29.78-43.21a8.51,8.51,0,0,0-10-13.13s-145.87,61.34-185.83,68.93c-8.11,1.54-17.76-1-26.26-5s-16-9.42-19.29-14.71c-.92-1.46-1-3.6-1.09-6a64.56,64.56,0,0,1,1.11-12,182.79,182.79,0,0,1,7.28-27.11,8.51,8.51,0,0,0-8-11.41s-74.17-.06-84.5.74c-45.87,3.52-166.84,19-229,48.38-14.42,6.81-25.81,14.46-33,22.69-8.65,9.95-11.67,20.87-8.07,32.6,3.69,12,11.72,22.79,23.38,32.2,16,12.9,39.11,23.4,66.33,31.75,101.91,31.26,262.81,33.3,306.52,35.63,163.19,8.67,582.18,20.94,817,19.43,594.75-3.8,847.19-45.46,887.64-59.57,4.62-1.62,9.73-5.42,14-11.06,9-11.9,14.51-32.08,4.48-51.19-6.22-11.87-18.64-23.63-41.11-32.06-83.63-31.36-151.92-47.72-240.26-61-339.86-51.28-569.68-51.39-835.84-43.14l-.77.06ZM1626,2553.46c-21,0-63.93.1-71.56.69-44.65,3.44-162.51,18.2-223.07,46.8-11.89,5.62-21.47,11.67-27.37,18.46-4.4,5.07-6.48,10.49-4.65,16.46,3.52,11.47,12.64,21.05,25.35,29.43,14,9.24,32.27,16.85,53.09,23.24,100.54,30.84,259.31,32.62,302.43,34.91,163,8.66,581.46,20.91,816,19.41,591.05-3.78,841.94-44.6,882.14-58.63,3.16-1.1,6.27-4.83,8.7-9.48,4.25-8.14,5.86-19.6-.56-30.35-5.09-8.54-14.9-16.38-31.15-22.48-82.42-30.91-149.74-47-236.82-60.16-338.44-51.07-567.36-51.17-832.39-43l-344.21,42c-5.14,10.69-19.22,39.28-32.47,60.49-7.9,12.65-15.87,22.67-21.57,26.25-9.81,6.15-24.92,4.33-37.77-2.53s-22.45-18.17-23.55-27.6c-.65-5.5,2.58-15.18,8.46-25.68,3.78-6.75,8.5-14,13.13-20.76-45.12,18.4-131.57,52.76-161.11,58.37-11.28,2.15-24.82-.74-36.65-6.27s-21.84-13.68-26.49-21.06c-3.15-5-4.24-13.19-3.38-22.27a152.56,152.56,0,0,1,5.46-26.3Z"/><path class="cls-5" d="M1722.41,1919.61c10.13-3.7,71.4-23.49,127.69-40.67,35.07-10.7,68.21-20.37,85.73-24.57,29.09-7,58.73-13.61,88.64-19.8q29.55-6.1,59.39-11.61c33.11-6.16,66.36-11.76,99.5-16.31,56.68-7.78,113-12.77,167.43-13.36a2.54,2.54,0,0,0,0-5.08c-68.1-.71-139.27,4.89-210.41,15.29-27.81,4.07-55.63,8.87-83.22,14.34-41.78,8.3-83.06,18.17-123.33,28.53-17.53,4.57-50.63,15-85.68,26.38-56.07,18.23-117.14,39-127.22,42.91a2.11,2.11,0,1,0,1.48,3.95Z"/><path class="cls-2" d="M956.05,1471.82s8.49,79.53,24.56,190.43c8.26,57.06,18.52,122.42,30.66,189.53,1.09,5.93,3.71,17.25,7.71,32.13,8.39,31.2,22.65,78.29,37,125.12,23.33,76.49,47.62,152,51.28,155.5a1.82,1.82,0,0,0,2.58-2.58c-3-3.11-19.66-59.45-37.48-123.76-10.55-38.06-21.27-78.94-30.16-113.27-4.44-17.15-8.34-32.67-11.53-45.38-3.49-13.89-6.09-24.38-7.09-30-12.11-67-22.35-132.17-30.6-189.09-16-110.64-24.5-190-24.5-190a6.23,6.23,0,1,0-12.38,1.32Z"/><path class="cls-2" d="M2021.47,2489.2a2.29,2.29,0,0,1,2.64,3.71c-.54.47-2,1-4.41,1.05-4.57.06-14-1-27.33-2.93-50-7.39-155.76-27.9-266-53.64-49.38-11.52-99.69-24-146.25-36.94-55.85-15.57-106.3-31.88-143.71-46.73-36.76-14.74-86.38-41.28-136-70-97.2-56.16-194.48-120.54-194.48-120.54a2,2,0,0,1,2.2-3.37s98,63,195.88,117.58c49.66,27.69,99.29,53.21,136,67.25,37.28,14.43,87.67,29.67,143.13,45.17,46.43,13,96.42,26.14,145.51,38.29,109.73,27.15,214.83,49.8,264.6,57.95,12.94,2.11,22.08,3.26,26.52,3.25.5,0,1.11.11,1.49.09l0,0,0,0h0l.17-.18s.07-.08.13-.07l0,0-.16.1-.16.12c.23,0,.36-.06.33-.21Z"/><path class="cls-2" d="M1917.54,1967.37a2.72,2.72,0,0,1,.45-2.43,2.54,2.54,0,0,1,2.7-1,2.67,2.67,0,0,1,1.8,1.23,3.24,3.24,0,0,1,.46,1.34c0,.36.12,1.16.25,2.51.31,3.38,1,10.47,2.55,23.56,3.88,31.86,13.35,99.13,36.51,234.79,2.54,16.07,6.12,33.5,10,51.51,5.48,25.35,11.78,51.81,18.23,76.93,17.59,68.49,35.71,127.1,35.71,127.1a4.1,4.1,0,0,1-7.79,2.58s-25.81-73.33-47-152c-5.57-20.69-10.83-41.77-15.11-62-3.09-14.6-5.58-28.79-7.56-42-14.76-106.82-22.39-171.47-26.47-209.89-2.85-26.74-4-40.78-4.42-47.47-.18-2.53-1-4.62-.33-4.69Z"/><path class="cls-5" d="M962.47,1472.65a3,3,0,0,1-1.17-3.24,2.8,2.8,0,0,1,2.28-2.12,3,3,0,0,1,2.77.82,21.47,21.47,0,0,1,1.58,1.74c2,2.43,6.18,7.63,12.35,15.06a1207.83,1207.83,0,0,0,135.43,138.48c48,41.87,106.72,86.27,174.6,125.06A1552.29,1552.29,0,0,0,1470,1836.81c21.22,8.82,42,16.91,62.15,24.42q32.46,12,63,22.1c89.65,29.46,166.81,46.31,226.57,58.8,41.8,8.73,75.09,15.4,98.08,23.31a2,2,0,1,1-1.24,3.73c-63.87-20.5-206.33-29.64-390.86-95.83q-48.21-17.29-99.86-40.45a1506.48,1506.48,0,0,1-143.38-74.39c-68-40.08-126.57-85.73-174.49-128.62a1226.17,1226.17,0,0,1-134.5-141c-6.06-7.5-10.14-12.72-12.15-15.16-.34-.42-.68-.82-.86-1Zm2.84.31-.1,0h0l.08,0Zm.08,0A2.73,2.73,0,0,0,967,1471a3,3,0,0,1-1.65,1.91Z"/><path class="cls-4" d="M2785,516.25c3.48,27.79,12.2,82.76-22.62,96.7-25.93,10.36-58.78-3.54-82.3,8.22-36.27,18.14-14,63.88-19.54,91.55-3.31,16.55-10.33,28.34-19.55,42.18-5.58,8.37-73.68,35.13-85.37,38.06-13.11,3.27-28-3.09-39.09-3.09-.36,0,14.51,26.5,15.43,28.8,8.17,20.42,21.12,39.35,29.83,59.66,3.85,9,11.78,48.82,16.46,53.49,2.77,2.78,20.87-13.44,24.68-14.4,18.23-4.55,40.44-7.28,59.66-5.14,33.7,3.74,62.94,16.21,97.73,12.34,61-6.78,80.54-79.4,92.58-127.55,7.15-28.6-48.75-56.89-35.41-83.58,15.34-30.68,61.52,80.47,72,28,15.24-76.2-13.39-155.36-57.29-199.26-8.65-8.65-70.6-64-70.6-67.88"/><path class="cls-5" d="M2774.67,507.35c-9.82-9.26-18.21-17.43-21.72-21.56-4.46-5.24-5-9.88-5-11.44a13.61,13.61,0,0,1,25.73-6.19c10,11.77,60.41,56.75,68.1,64.44,46.62,46.62,77.2,130.64,61,211.56-3,15.26-10,21.57-15.88,23.87-5.13,2-10.94,1.94-17.14-.93-4.71-2.18-10.13-6.49-15.61-12.2-6.89-7.18-14.33-16.76-21.36-24.5-.59-.65-1.25-1.32-1.94-2,2.86,5.81,7.65,11.61,12.5,17.55,7.63,9.35,15.4,18.91,19.67,28.42,3.88,8.62,5.18,17.32,3,26-6.28,25.11-14.64,56.55-29.26,82.65-16.17,28.87-39.82,51.22-75,55.13-35.84,4-66-8.48-100.73-12.34-17.16-1.91-36.9.48-53.37,4.46-2.65,2-15.47,11.32-20.65,13.64-8.75,3.91-15.3.69-18.45-2.46-2.12-2.12-5.59-8.63-8.3-17.62-4-13.39-8.45-34.07-11-40.13-8.75-20.42-21.75-39.45-30-60-.8-2-12.57-22.87-14.65-27-7-14,10.82-20.44,11.86-20.44,5.2,0,11.13,1.08,17.34,2.27,6,1.16,12.47,2.72,18.45,1.22,7.86-2,42.27-15.25,64.07-25.75,5.72-2.76,12.48-6.81,14-7.72,7.84-11.81,14-22,16.81-36.22,2.6-13-1.7-30.27-2-46.42-.45-22.43,5.11-42.79,28.81-54.64,13.76-6.88,30.17-6.89,47-6.06,12.42.61,25.13,1.84,36.32-2.63,12.52-5,15.93-18.13,17.18-31.76,1.64-17.92-1.36-37.47-3-50.61a13.57,13.57,0,0,1,3.21-10.59Zm25.8,24c1.73,16.26,2.81,35.76-.82,52.47-4.11,18.9-13.89,34.45-32.26,41.79-14.74,5.9-31.41,5.36-47.78,4.55-12-.58-23.71-1.66-33.48,3.22-12.58,6.29-14,17.85-13.78,29.75.36,18.18,4.43,37.63,1.5,52.29-3.69,18.43-11.3,31.65-21.57,47.06-1.72,2.58-6.78,7-14.73,11.3-21.53,11.71-68.93,30-78.67,32.41a53,53,0,0,1-17.65,1c1.78,3.32,3.09,5.84,3.32,6.44,8.13,20.32,21,39.14,29.71,59.35,2.28,5.32,8,26,11.66,39.2l4.34-3a33.32,33.32,0,0,1,9.33-4.92c19.69-4.92,43.7-7.78,64.47-5.47,32.67,3.63,61,16.09,94.71,12.35,25.81-2.87,42.42-20.22,54.28-41.39,13.42-24,20.84-52.89,26.6-75.94,1.27-5.06-1.83-9.79-5.15-14.8-5.49-8.27-13.06-16.47-19.17-24.58-11.85-15.76-17.63-31.84-10.06-47,3.82-7.63,9.06-11,14.24-12.34s10.83-.67,16.9,2.69,13.18,10.35,20.28,18.55c6.13,7.08,12.43,15.06,18.3,20.94.37.37.78.75,1.21,1.13,14.1-71.34-12.56-145.42-53.66-186.52-2.89-2.89-11.64-10.92-22.07-20.53Z"/><path class="cls-4" d="M2433.15,849.56c.67-.37,1.45-1.58,2-3.64,1.36-5.15,2.26-16.38,2.82-29.73,1.29-30.47.81-72-.12-77.13-5.7-31.77-16.32-67.08-36.53-92-14.1-17.35-32.84-29.68-57.78-32.49-15.3-1.72-33.21,2.28-50.87,9.35-25.1,10-49.69,26.26-65.5,40.27a387.91,387.91,0,0,0-38.49,39.83c-18.87,22.35-35.87,46.38-52.89,70.41-25.22,35.61-50.46,71.28-82.81,101.08-15.22,14-37.8,32.48-61.68,42.2-16.14,6.58-32.87,9.15-48.18,3.55-7.91-2.92-14-8.91-18.5-16.24-6.77-11.06-9.86-25.14-9.89-36.54a36.72,36.72,0,0,1-.2-5.38c.1-.79.27-1.52,1.08-1.52a1.11,1.11,0,1,0,0-2.22,3,3,0,0,0-3.06,2.36c-.63,2-.07,5.21-.07,6.76,0,11.78,3.14,26.32,10,37.81,4.73,7.88,11.22,14.32,19.64,17.52,15.92,6.13,33.44,3.77,50.46-2.77,24.55-9.43,48.06-27.64,63.91-41.58a398.21,398.21,0,0,0,38.7-39.37c23.93-27.72,45-57.87,66.77-87.31,8.67-11.72,17.41-23.36,26.53-34.66,13.63-16.89,28-33.1,44.18-47.78,15.05-13.76,38.59-29.73,62.66-39.84,16.46-6.91,33.15-11.12,47.53-9.76,23.39,2.2,41.11,13.48,54.58,29.5,20.18,24,30.93,58.44,37,89.42.86,4.46,1.69,37.1,1.18,65.46-.31,16.81-1.1,32.12-2.59,39.14-.37,1.74-.58,2.91-1.06,3.18a1.2,1.2,0,1,0,1.16,2.09Z"/><path class="cls-3" d="M2382.44,1792.92a10.8,10.8,0,0,1,18.19-2.86c1.81,2.12,4.21,6.22,1.54,12.07a32.67,32.67,0,0,1-4.39,6.22c-3.18,3.72-8.37,9.23-11.63,13.59-10.78,14.36-19.89,31-29,46.56-24.17,41.44-67.68,120.82-67.68,168.8a10.81,10.81,0,1,1-21.61,0c0-50.93,45-135.7,70.63-179.69,9.48-16.24,19.07-33.62,30.33-48.64,3.7-4.93,11.57-13.8,13.58-16Zm1.41,10.74c.11.15.23.29.34.43l-.34-.43Zm-1.95-4.11a10.08,10.08,0,0,0,1.93,4.09,10.75,10.75,0,0,1-1.93-4.09Z"/><path class="cls-4" d="M2402.35,1770.18c-7.79.75-54.65,105.44-60.78,118.93-22,48.34-87.41,207.21-76.12,212.86,12.56,6.28,57.57-57.23,61.88-64.78,24.85-43.5,51.18-103.71,61-152.58,2.09-10.48,21.85-115.18,14.07-114.43Z"/><path class="cls-5" d="M1782.08,1470.73a3.42,3.42,0,0,0,3.66-3.81L1772,1354.25a3.41,3.41,0,0,0-2.63-2.91c-88.2-19.84-190.68-68.25-276.91-107.51a3.39,3.39,0,0,0-4.71,3.9l33.69,138.12a3.43,3.43,0,0,0,1.91,2.3c88.94,40,179.82,76.22,258.73,82.58ZM1496,1252.93l31.64,129.69c86.13,38.69,174,73.79,250.81,81l-12.94-106.13c-85.91-19.76-185-66-269.51-104.52Z"/><path class="cls-5" d="M1536,1456.89a3.4,3.4,0,0,0,1.62,2.07c86.9,48.37,174.4,80.55,258.52,91.25a3.41,3.41,0,0,0,3.77-4l-12-59.76a3.4,3.4,0,0,0-2.71-2.68s-84.76-15.76-121.1-27.84c-23.09-7.68-137.24-52.8-137.24-52.8a3.4,3.4,0,0,0-4.53,4.06l13.66,49.75Zm-5.3-45,11.48,41.8c84,46.63,168.63,78,250.12,89.13l-10.6-52.85c-13.76-2.61-86.66-16.65-119.73-27.65-19.87-6.61-106.94-40.84-131.27-50.43Z"/><path class="cls-2" d="M1535.86,1476.21c81,42.7,176.63,75.26,267.8,89.4,6.49,66.39,38.57,135.44,61.85,186.72a2740.63,2740.63,0,0,1-286.63-108.17l-43-168Z"/><path class="cls-5" d="M1537.44,1473.2a3.4,3.4,0,0,0-4.88,3.86l43,168a3.42,3.42,0,0,0,1.92,2.26,2743.65,2743.65,0,0,0,287,108.3,3.4,3.4,0,0,0,4.13-4.65c-23.15-51-55.11-119.63-61.57-185.64a3.4,3.4,0,0,0-2.86-3c-90.8-14.07-186.06-46.51-266.74-89Zm3.6,9.55,40.73,159a2732.65,2732.65,0,0,0,277.48,105c-22.75-50.07-51.93-115.22-58.71-178.21-88.2-14-180.41-45.08-259.5-85.81Z"/><path class="cls-5" d="M1204.46,1149.43c-.09,11,32.65,201.88,56.13,284.74,4.18,14.75,8.1,26.12,11.47,32.57,1.77,3.39,3.55,5.57,5.07,6.58a3.4,3.4,0,1,0,3.78-5.65c-1.31-.88-2.58-3.34-4.18-6.9-2.9-6.47-6.14-16.27-9.59-28.46-23.33-82.3-56-271.94-55.87-282.81a3.41,3.41,0,0,0-6.81-.07Z"/><path class="cls-5" d="M1470.87,1289.9c0,1,0,3.37.25,5.78,3.07,32.8,27.27,161,48.64,246.15,9,36.06,17.49,64.35,23.66,74a3.4,3.4,0,1,1-5.74,3.66c-6.34-9.93-15.22-38.94-24.53-76-21.45-85.51-45.72-214.24-48.8-247.18a49.52,49.52,0,0,1-.31-6.92,7.13,7.13,0,0,1,.47-2.34,3.69,3.69,0,0,1,1.67-1.89,3.51,3.51,0,0,1,2.55-.36,3.41,3.41,0,0,1,2.56,4.07,3.49,3.49,0,0,1-.42,1Zm-2.66,1.61a3.4,3.4,0,0,1-1-.07,3.42,3.42,0,0,0,1,.07Z"/><path class="cls-5" d="M1538.45,1615.24a3.4,3.4,0,0,1,4.61,4.83,5.39,5.39,0,0,1-4.7,2c-4.06,0-13.7-3.23-27-8.92-44.52-19.07-132.41-65.83-188.23-102.66-24.36-16.07-42.64-30.39-49-39.72a3.4,3.4,0,1,1,5.63-3.82c6.06,8.94,23.74,22.46,47.08,37.86,55.5,36.61,142.89,83.13,187.16,102.08,9.29,4,16.62,6.73,21.31,7.87a23.31,23.31,0,0,0,3.11.48Z"/><path class="cls-5" d="M1462.61,1283.65a3.41,3.41,0,0,1,5.14,4.14,4.35,4.35,0,0,1-2.2,2.17,8.91,8.91,0,0,1-5,.35c-8.15-1.3-29.08-10.51-55.58-23.81-60.94-30.6-152-82.7-184.41-106.31-6-4.41-10.12-7.93-11.81-10.19s-1.66-4.23-1.18-5.41a3.4,3.4,0,0,1,6.55,1.13,98.13,98.13,0,0,0,10.45,9c32.19,23.49,122.83,75.29,183.45,105.72,22.54,11.32,40.88,19.68,50.43,22.43a28.9,28.9,0,0,0,4.15.81Z"/><path class="cls-2" d="M1047.81,1024.42c18.22,28.08,133.48,110.91,132.68,100.36l12.78,97.59c-44.37-21.28-87.64-50.45-129.5-89.6,0,0-17.6-110.89-16-108.35Z"/><path class="cls-5" d="M1178.48,1122a3.4,3.4,0,0,1,5.38,2.3l12.78,97.59a3.41,3.41,0,0,1-4.85,3.52c-44.65-21.43-88.21-50.77-130.35-90.19a3.4,3.4,0,0,1-1-2s-14.27-90-15.92-106.12a23.1,23.1,0,0,1-.17-2.84,3.88,3.88,0,0,1,.44-1.58,3.14,3.14,0,0,1,3.78-1.7,3.28,3.28,0,0,1,2.14,1.5c14.42,22.24,90.38,79,119.74,95.56a61.62,61.62,0,0,0,7.25,3.62c.26.11.55.2.82.29Zm-126.11-86.63c3.51,25.66,13.13,86.54,14.57,95.68,39.54,36.83,80.33,64.72,122.13,85.45l-11.49-87.72a50.74,50.74,0,0,1-10.5-4.75c-26.54-14.94-90.2-62.24-114.71-88.66Z"/><path class="cls-2" d="M1061.65,1152c18.22,28.08,131.63,101.89,130.83,91.34l18.61,115.9c-44.36-21.28-84.83-44.39-126.7-83.55,0,0-24.38-126.23-22.74-123.69Z"/><path class="cls-5" d="M1190.25,1240.72a3.27,3.27,0,0,1,1.83-.81,3.39,3.39,0,0,1,3.75,2.84l18.62,115.9a3.4,3.4,0,0,1-4.83,3.61c-44.67-21.42-85.4-44.71-127.56-84.13a3.4,3.4,0,0,1-1-1.84s-19.77-102.37-22.53-121a15.35,15.35,0,0,1-.2-4.32,3.16,3.16,0,0,1,3.25-2.46,3.22,3.22,0,0,1,2.94,1.59c14.4,22.2,89.07,73.17,117.92,87.39a55.7,55.7,0,0,0,7.07,3c.24.08.5.15.75.21Zm-123.5-77.39c5,28.86,18.89,100.86,20.77,110.57,39.45,36.72,77.68,59.15,119.18,79.39l-17-105.77a46.35,46.35,0,0,1-10.29-3.93c-26-12.78-88-54.8-112.67-80.26Z"/><path class="cls-5" d="M1039.14,926.2c.08-.14.52-.93,1.21-2.14,7.77-13.58,51.05-86.38,107.23-123.8,112.41-74.89,179.71-108.12,276.89-108.12a3.4,3.4,0,1,1,0,6.8c-95.9,0-162.19,33.09-273.12,107-55.11,36.71-97.47,108.2-105.09,121.51-.77,1.36-1.19,2.12-1.23,2.2a3,3,0,0,1-2.32,1.64,3.14,3.14,0,0,1-3.42-1.39,3.1,3.1,0,0,1-.53-2.71,2.75,2.75,0,0,1,.29-.81l.09-.16Zm6.31,1.3a3.3,3.3,0,0,1-.35,2,2.88,2.88,0,0,0,.35-2Z"/><path class="cls-5" d="M1422.42,699.71a3.41,3.41,0,0,1-.51-4.11,3.48,3.48,0,0,1,1.61-1.44,3.37,3.37,0,0,1,2.7,0,4,4,0,0,1,2.1,2.06,66.64,66.64,0,0,1,2.9,8.81c13.75,48.81,67.5,289.21,74.71,338,.71,4.86.93,8,.75,9.19a3.64,3.64,0,0,1-2.44,3.15,3.4,3.4,0,0,1-4.33-2.09,3.36,3.36,0,0,1,0-2.32c0-.85-.26-3.74-.74-6.93-7.19-48.65-60.81-288.44-74.52-337.13-.88-3.12-1.88-6.06-2.25-7.13Zm2.86,1a3,3,0,0,0,2.5-1.64,3.4,3.4,0,0,1-2.5,1.64Z"/><path class="cls-5" d="M1339.64,1146a3.43,3.43,0,0,1-2.16,2.29,3.62,3.62,0,0,1-4.2-.94,3.39,3.39,0,0,1-.84-2.35,3.6,3.6,0,0,1,.56-1.85,11.1,11.1,0,0,1,2.06-2.2c8.16-7.1,49.22-35.73,90.82-58.78,28-15.51,56.25-28.43,75-30.85a3.4,3.4,0,1,1,.87,6.75c-18.18,2.34-45.48,15-72.59,30-40.88,22.65-81.26,50.72-89.54,57.88Z"/><path class="cls-5" d="M1439,1312.4a2259.33,2259.33,0,0,1-206-117.85,3.41,3.41,0,1,1,3.7-5.72,2249.78,2249.78,0,0,0,206.94,118.26l1.82,2.46A2635.07,2635.07,0,0,0,1507,1582a3.4,3.4,0,0,1-6.54,1.86A2636.84,2636.84,0,0,1,1439,1312.4Z"/><path class="cls-5" d="M1559,1344.82a13.24,13.24,0,0,1,8.33-1.35c4.67.65,9.78,3.43,14,7.5,6.31,6.12,10.45,15,8.67,23.28-1.21,5.58-5.06,11-13.11,15a13.61,13.61,0,0,1-10.33,1.19,15.23,15.23,0,0,1-7.62-5.69c-5.37-7.12-7.79-19.87-7.36-28.5.21-4.35,1.27-7.75,2.63-9.41a5.46,5.46,0,0,1,3.16-2,5,5,0,0,1,1.65-.07Zm.23,7.09a22,22,0,0,0-.87,4.69c-.36,7.28,1.48,18.07,6,24.07a8.41,8.41,0,0,0,4.16,3.28,7.1,7.1,0,0,0,5.32-.78c5.68-2.82,8.63-6.43,9.49-10.36,1.31-6-2.13-12.46-6.75-17a21.33,21.33,0,0,0-8.6-5.31c-2.34-.67-4.63-.67-6.39.67a3.39,3.39,0,0,1-2.36.69Z"/><path class="cls-5" d="M1632,1372.31a34.44,34.44,0,0,1,6,7.69c4.89,8.47,5.76,18.53-.6,24.89s-14.54,4.72-21.48-1.2a36.91,36.91,0,0,1-11.55-19.06c-1.15-5.18-.72-10.23,1.69-14.25,1.64-2.74,4.62-4.44,8.14-5.1a23.71,23.71,0,0,1,13.06,1.51c3,1.38,4.51,3.48,4.7,5.52Zm-15.92-.44-.16,0c-1.65.25-3.22.73-4,2-1.57,2.61-1.63,5.92-.88,9.28a29.67,29.67,0,0,0,9.31,15.35c4,3.4,8.66,5.17,12.26,1.56,4.26-4.26,2.79-11-.48-16.67-3.45-6-9.12-11.12-14.46-11.12a3.38,3.38,0,0,1-1.61-.41Z"/><path class="cls-5" d="M1748.83,1378.05c-83.57-24.93-158-54.11-231.31-89.92a3.41,3.41,0,0,1,3-6.12c73.58,36,148.31,65.18,232.37,90.14a3.4,3.4,0,0,1,2.41,2.81l9.5,70.31a3.4,3.4,0,0,1-6.74.92l-9.22-68.14Z"/><path class="cls-5" d="M2374,2069.61a2.28,2.28,0,0,1-.92-.43,2.42,2.42,0,0,1-.43-3.4c.91-1.29,2.55-1.9,4.74-.08,1.49,1.24,4.06,5,7.44,10.56,7.28,11.91,19.38,31.85,30.7,52.06,4,7.1,7.62,14.32,11.28,21,6.73,12.37,12.87,23.24,18.69,29.35a4.32,4.32,0,1,1-5.94,6.28c-6.32-5.36-13.77-14.61-21.23-25.87-3.82-5.77-7.71-12-11.29-18.61-2.32-4.25-4.48-8.65-6.54-13.06-10.07-21.53-18.16-42.88-23.38-53-1.26-2.44-3-4-3.12-4.82Z"/><path class="cls-5" d="M3315.9,985.66a3.43,3.43,0,0,0-2.18,2.91c-13.85,171.9-40.39,341.51-91.07,506.73a3.41,3.41,0,0,0,3.86,4.35c57.08-10.4,135.12-39.77,195.95-77.92l1.51-2.13c38-167.83,64.4-349.13,72.94-497.82a3.4,3.4,0,0,0-4.61-3.37l-176.4,67.25Zm173.91-59-169.48,64.62c-13.78,169.78-40,337.33-89.53,500.64,55.43-11,128.87-39.07,186.84-75.19,37.29-165.11,63.35-343.13,72.17-490.07Z"/><path class="cls-5" d="M3507.08,1058.49a3.39,3.39,0,0,0,4.58,3.59l132-50.23a3.41,3.41,0,0,0,2.1-2.39c14.64-61.3,21.79-118.15,22.86-171.37a3.4,3.4,0,0,0-5.57-2.69c-45.82,37.69-90.82,57.55-135.62,73.27a3.41,3.41,0,0,0-2.25,2.79l-18.12,147Zm154.57-213.2c-43.87,34.76-87,53.91-130,69.1l-17.18,139.32,125.05-47.58c13.57-57.32,20.55-110.7,22.08-160.84Z"/><path class="cls-5" d="M3504,1131.06a3.4,3.4,0,0,0,4.2,3.61L3632,1104.22a3.41,3.41,0,0,0,2.55-2.8l11.11-73.1a3.4,3.4,0,0,0-4.46-3.73l-129.49,43.94a3.44,3.44,0,0,0-2.3,2.92l-5.43,59.61Zm12-56.79-4.8,52.65,117-28.77,9.93-65.32L3516,1074.27Z"/><path class="cls-5" d="M3630.63,1119.13a3.39,3.39,0,0,0-.91-3.2,3.43,3.43,0,0,0-3.22-.89l-116.23,29a3.4,3.4,0,0,0-2.51,2.67l-8.61,45a3.4,3.4,0,0,0,4.11,4l113.43-26.3a3.38,3.38,0,0,0,2.54-2.52l11.4-47.66Zm-116.6,31-7.21,37.69,106.28-24.64,9.61-40.16L3514,1150.11Z"/><path class="cls-5" d="M3457.61,1393.86a3.4,3.4,0,0,0,3.77,4.15c37-5,79.38-29.75,119-62.61a3.41,3.41,0,0,0,1.15-1.86l31.85-139.2a3.41,3.41,0,0,0-4-4.09l-106.89,22.27a3.39,3.39,0,0,0-2.62,2.55l-42.22,178.79Zm117.51-63,30.41-132.9L3506,1218.74l-40.55,171.75c34.49-6.24,73.24-29.46,109.72-59.6Z"/><path class="cls-5" d="M3476.64,949.73a3.43,3.43,0,0,1,1.91-1.24,3.52,3.52,0,0,1,4.06,4.63L3462,1119.21a3.39,3.39,0,0,1-2,2.67c-45.34,20.83-90.42,36.21-135.48,50.93a3.84,3.84,0,0,1-1.29.3,3.41,3.41,0,0,1-2.33-6,100.08,100.08,0,0,0,2.6-9.88c5.93-29.35,14.8-105.87,16.5-139.9.3-6,.13-11.46,0-13.77l0,0a3.18,3.18,0,0,1-1.22-3.24,3.1,3.1,0,0,1,2-2.53s.27-.11.71-.26l.37-.11,1.19-.38c13.54-4.45,93-31,123.32-42.8,4.78-1.86,9.06-3.89,10.24-4.46Zm-1.49,8.26c-23.05,9.8-109.37,38.67-128.27,44.91a117.6,117.6,0,0,1-.05,14.75c-1.72,34.28-10.66,111.35-16.63,140.91-.43,2.12-.86,4-1.28,5.66,42.08-13.82,84.2-28.41,126.55-47.73L3475.15,958Z"/><path class="cls-2" d="M3007.16,641.44S3097,651.77,3185,666.61c42.94,7.24,85.46,15.48,116.85,24.34C3348,703.48,3394.2,718,3437,732.28c108.21,36,194.64,70.45,201.13,70.41a2.38,2.38,0,1,0,0-4.75c-6.44-.05-91.52-36.21-198.56-73.24-42.81-14.81-89.12-29.69-135.27-42.66-31.73-8.6-74.66-16.61-118-23.33-88.41-13.69-178.61-22.28-178.61-22.28a2.52,2.52,0,1,0-.53,5Z"/><path class="cls-5" d="M3646.51,1756.54,3691,1506.09a3.4,3.4,0,0,0-5.68-3.08c-112.3,105.1-299.49,169.41-497.2,228.09l-2.43,3.12-7.82,193a3.41,3.41,0,0,0,4.11,3.47c155.9-33,318.83-81.47,462.95-171.85l1.54-2.29Zm36.07-241.76c-113.19,101.29-296.46,164.6-490.15,222.15l-7.54,186.18c153.39-32.74,313.39-80.64,455.19-169.25l42.5-239.08Z"/><path class="cls-2" d="M3352.47,2027.18c13.47-39.35,7.56-73,7.77-118.26,92.08-16.59,265.92-114.31,278.53-127-5.21,48.07-17,95.35-43.15,144.43l-243.15,100.79Z"/><path class="cls-5" d="M3349.25,2026.08a3.4,3.4,0,0,0,4.52,4.24l243.15-100.79a3.47,3.47,0,0,0,1.71-1.54c26.39-49.5,38.26-97.18,43.52-145.66a3.4,3.4,0,0,0-5.79-2.77c-3.72,3.73-21.76,14.92-47.57,29.3-61,34-165,85.15-229.15,96.71a3.41,3.41,0,0,0-2.8,3.34c-.21,44.8,5.75,78.18-7.59,117.17Zm285.22-236.62c-8.36,5.69-23.28,14.71-42.36,25.34-60.63,33.78-163.53,84.33-228.47,97,0,41.54,4.73,73.53-5.72,109.49l235.27-97.53c24.13-45.58,35.74-89.63,41.28-134.25Z"/><path class="cls-2" d="M3183,1949.9c-4,115.57-22.48,235-53.22,357.6,52.1-10.89,104-22.14,145.17-51.95,22.6-113.67,37.87-225.76,39.77-335L3183,1949.9Z"/><path class="cls-5" d="M3182.27,1946.58a3.39,3.39,0,0,0-2.66,3.2c-4,115.34-22.44,234.51-53.12,356.9a3.4,3.4,0,0,0,4,4.15c52.58-11,104.91-22.45,146.47-52.52a3.39,3.39,0,0,0,1.34-2.1c22.65-113.87,37.94-226.17,39.84-335.62a3.38,3.38,0,0,0-1.25-2.69,3.42,3.42,0,0,0-2.89-.69l-131.72,29.37Zm129-21.78-124.92,27.85c-4.1,113.33-22.13,230.32-51.92,350.41,49.37-10.36,98.25-21.54,137.48-49.49,22.13-111.51,37.16-221.5,39.36-328.77Z"/><polygon class="cls-2" points="3350.16 2052.65 3460.13 2010.74 3418.58 2192.21 3304.28 2244.18 3350.16 2052.65 3350.16 2052.65"/><path class="cls-5" d="M3349,2049.48a3.42,3.42,0,0,0-2.1,2.38L3301,2243.38a3.4,3.4,0,0,0,4.71,3.89l114.31-52a3.4,3.4,0,0,0,1.9-2.34l41.56-181.47a3.41,3.41,0,0,0-4.53-3.94l-110,41.92Zm4.1,5.72-43.84,183,106.43-48.38,39.75-173.62-102.34,39Z"/><path class="cls-2" d="M3447.08,2168.67l31.42-156.91,104.89-47.91c-8.39,67.46-25.35,102.57-47.83,160.93l-88.48,43.89Z"/><path class="cls-5" d="M3443.75,2168a3.4,3.4,0,0,0,4.85,3.72l88.47-43.89a3.4,3.4,0,0,0,1.67-1.83c22.58-58.64,39.59-93.94,48-161.73a3.38,3.38,0,0,0-1.36-3.17,3.44,3.44,0,0,0-3.43-.35l-104.89,47.92a3.38,3.38,0,0,0-1.92,2.43L3443.75,2168Zm135.47-198.51-97.73,44.65-29.71,148.4,81.08-40.22c21.45-55.56,37.82-90.07,46.36-152.83Z"/><path class="cls-5" d="M3228.73,1306.3a20.71,20.71,0,0,0-2.84-2.47c-3.68-2.54-9.52-5.53-17-8.84-49.26-21.75-168-56.32-217.65-60.5-7-.59-12.61-.59-16.27.24a9.29,9.29,0,0,0-1.95.64c-.29.14-.57.21-.67.43a3.4,3.4,0,1,1-6.15-2.91,8.51,8.51,0,0,1,5.07-4.16c4-1.47,11.14-1.81,20.54-1,50.16,4.22,170.08,39.08,219.83,61.06,11.49,5.07,19.36,9.64,22.21,12.94,2.61,3,2.42,5.68.79,7.72a3.4,3.4,0,0,1-5.9-3.13Z"/><path class="cls-5" d="M2876.83,1319.42a3.39,3.39,0,0,0-3.75,3.19l-13.24,238a3.41,3.41,0,0,0,.83,2.42l100,115.25a3.45,3.45,0,0,0,2,1.12l87.46,16.06a3.39,3.39,0,0,0,4-2.89l47.28-346.51a3.39,3.39,0,0,0-3-3.85l-221.46-22.8Zm-10.12,240.2L2965,1672.93l82.78,15.2,46.32-339.5-214.41-22.08-13,233.07Z"/><path class="cls-5" d="M3076.67,1696.22l56.49,14.27a3.4,3.4,0,1,1-1.66,6.59l-59.46-15a3.41,3.41,0,0,1-2.54-3.78l51.1-357.49A3.4,3.4,0,0,1,3125,1338l94.18,29.3a3.4,3.4,0,0,1-2,6.5l-90.36-28.12-50.11,350.5Z"/><path class="cls-5" d="M3462.71,1419l-59.89,203.57a3.4,3.4,0,0,0,6.53,1.92l59.89-203.57a3.4,3.4,0,1,0-6.53-1.92Z"/><path class="cls-5" d="M2901.19,1591.9a3.42,3.42,0,0,1-1.35,3c-3.33,2.49-5.52-.12-5.92-1.06a3.73,3.73,0,0,1,0-2.85,28.39,28.39,0,0,1,3-4.9c23.57-33.42,196.79-242.06,196.79-242.06a3.41,3.41,0,0,1,5.24,4.35S2926,1556.66,2902.45,1590c-.46.65-.9,1.32-1.26,1.88Z"/><path class="cls-5" d="M1004.31,1484.7c-.1-1.6.93-3.7,2.52-6.28,3-4.88,8.19-10.88,14.82-17.33,15.82-15.42,39.77-33.31,62.69-44.56,14.83-7.29,29.18-11.85,40.48-10.78a3.41,3.41,0,1,0,.64-6.78c-12.29-1.16-28,3.52-44.12,11.45-23.56,11.56-48.18,29.95-64.44,45.79-7.11,6.93-12.64,13.41-15.87,18.63-2.56,4.15-3.68,7.73-3.5,10.31a3.4,3.4,0,1,0,6.78-.45Z"/><path class="cls-5" d="M1616.61,1967.54c1.81,9.52,5,30.69,8.86,58.73,3.72,27.14,7.88,60.71,12.68,96.28,1.83,13.53,3.7,27.36,5.72,41.23,1.19,8.16,2.44,16.35,3.73,24.49s2.68,16.37,4.05,24.45c7.27,42.69,14.85,83,21.18,113.72,4.51,21.87,8.44,38.86,11.68,48.27a1,1,0,1,0,1.93-.64c-4.38-13.7-10-43.33-16-80.76-4.39-27.38-8.69-58.95-13.43-91.45-1.9-13-3.87-26.11-5.91-39.17-2.17-13.84-4.45-27.6-6.66-41.08-5.8-35.42-11.47-68.76-15.9-95.8-4.59-28-8-49.15-10-58.65a1,1,0,0,0-1.14-.75,1,1,0,0,0-.75,1.13Z"/><path class="cls-5" d="M1885.75,2018.45c-10.91-2.17-71.65-14.31-132.43-26.33-67.09-13.27-134.21-26.41-134.21-26.41a1.11,1.11,0,1,1,.42-2.18s67.18,12.82,134.39,25.5,134.44,25.22,134.44,25.22a2.33,2.33,0,0,1,1.87,2.08s5.79,62.82,12.48,124.61c3.29,30.38,6.79,60.52,10,82.8a938.87,938.87,0,0,0,23.23,113.56c18.22,68.07,37.38,109.46,37.38,109.46a3.54,3.54,0,0,1-4,5L1696.78,2390a1.43,1.43,0,0,1,.61-2.8l266.55,56.13c-6.26-14.14-21.52-51-35.74-104a903,903,0,0,1-22.65-114.65c-2.91-22.38-6.08-52.64-9-83.15-5.37-55.87-10-112.59-10.79-123.11Z"/><polygon class="cls-2" points="1868.46 2190.66 1686.84 2155.28 1663.14 2018.22 1847.25 2052.42 1868.46 2190.66 1868.46 2190.66"/><path class="cls-5" d="M1867.81,2194a3.41,3.41,0,0,0,4-3.86l-21.22-138.24a3.41,3.41,0,0,0-2.74-2.83l-184.11-34.2a3.42,3.42,0,0,0-4,3.93l23.71,137.06a3.4,3.4,0,0,0,2.7,2.76L1867.81,2194Zm-178-41.61,174.56,34-20.11-131.08-176.93-32.86,22.48,129.93Z"/><path class="cls-5" d="M1696.59,2184.45a3.4,3.4,0,0,0-4,3.77l7.09,55.77a3.4,3.4,0,0,0,2.72,2.91l172.7,33.62a3.42,3.42,0,0,0,4-3.9l-9.38-56.27a3.43,3.43,0,0,0-2.71-2.78l-170.41-33.12Zm9.51,56.24,165.47,32.21-8.19-49.1L1699.91,2192l6.19,48.67Z"/><path class="cls-5" d="M1871.84,2298.92,1706,2269.51a3.41,3.41,0,0,1,1.19-6.71l168.12,29.83a3.4,3.4,0,0,1,2.75,2.72l10,53.59a3.4,3.4,0,0,1-3.9,4l-132.34-21.78a3.4,3.4,0,1,1,1.11-6.71l127.55,21-8.7-46.5Z"/><path class="cls-2" d="M1611.24,2102.72l-17.44-184.19s-102.71-34.59-111.66-38.69c-202.12-92.46-324.31-162-475.53-313.22-7.9,6.11,25.46,236.34,49,277.36,2.42,19.35,394.15,222.85,555.66,258.74Z"/><path class="cls-5" d="M1052.78,1845.12c-10.94-19.43-24.15-78.7-34.23-137.69-8.8-51.47-15.27-102.71-16.22-126.73-.26-6.7-.05-11.43.55-13.66a5.43,5.43,0,0,1,1.77-3l4.22.27c76.33,76.62,145.26,132.28,220.9,180.65,73.67,47.12,153.7,87.34,253.14,133.15,3,1.38,16.52,6.21,33.17,12,33,11.52,78.22,26.86,78.22,26.86a1.59,1.59,0,0,1,1.07,1.35l17.07,184.22L1611,2104c-69.52-15.25-181.67-61.35-287.18-110.53-104.38-48.64-202.28-100.27-246-128-11.75-7.47-19.65-13.3-22.89-16.9a9.63,9.63,0,0,1-2.14-3.46Zm-44.12-271.95c-.07,2.61,0,6,.24,10,1.59,29.61,10.27,93.3,21,151,9,48.37,19.28,92.5,28.31,108.31a3,3,0,0,1,.34.93,26.6,26.6,0,0,0,2.81,3.08c3.83,3.43,10.53,8.18,19.64,14,43.43,27.89,140.77,80,244.63,129,104.17,49.24,214.88,95.52,284.26,111.47l-17.55-181.34c-6.73-2.26-47.17-15.8-77.4-26.18-16.84-5.79-30.53-10.61-33.55-12-99.92-45.38-180.36-85.23-254.42-132.1-74.77-47.33-143-101.82-218.29-176.26Z"/><path class="cls-2" d="M1499.61,2087.45c-4.62,1,119.9,37.12,119.9,37.12l42.17,262.29-134.85-42.74-27.22-256.67Z"/><path class="cls-5" d="M1498.51,2088.28a1.39,1.39,0,0,1,.85-2.11,1.12,1.12,0,0,1,1,.21,1.3,1.3,0,0,1,.31.39l.32.15c1.62.75,5.35,2,10.53,3.73,30.11,9.76,108.57,32.09,108.57,32.09a1.88,1.88,0,0,1,1.35,1.53L1665,2386.32a3.39,3.39,0,0,1-4.36,3.77s-33.77-10.51-67.47-21.23-67.34-21.63-67.34-21.63a3.25,3.25,0,0,1-2.26-2.77l-25.08-256.18Zm2.57,1.57,28.76,251.78c7.74,2.4,36.64,11.37,65.49,20.49,25.74,8.14,51.44,16.39,62.17,19.84l-39.7-255.9c-9.85-2.91-79.29-23.51-107.18-32.82-4.25-1.42-7.55-2.58-9.54-3.39Z"/><path class="cls-2" d="M1355.53,2026.29c-4.62,1,122.9,53.58,122.9,53.58,13.85,72,14.06,169.81,27.11,263l-129.15-55.16-20.86-261.46Z"/><path class="cls-5" d="M1354,2026.43a1.44,1.44,0,0,1,.18-.73,1.46,1.46,0,0,1,1-.75,1.66,1.66,0,0,1,1.25.24,1.31,1.31,0,0,1,.58.79c1.62,1,5.41,2.84,10.67,5.25,30.76,14,111.43,46.95,111.43,46.95l1.1,1.34c3.19,16.29,5.7,33.89,7.81,52.47,3.72,32.78,6.24,68.59,9.18,105.48,2.75,34.61,5.87,70.17,10.81,105.09a2.51,2.51,0,0,1-3.48,2.66l-129.07-55.35a2.31,2.31,0,0,1-1.4-1.94L1354,2026.41l0,0Zm3.31,2.9,21.25,256.84,123.87,52.69c-4.5-33.61-7.42-67.76-9.91-101-2.76-36.86-5-72.63-8.52-105.4-1.93-18.11-4.24-35.31-7.21-51.25-9-3.75-81.53-34-110.29-47.38-4-1.84-7.14-3.37-9.19-4.47Z"/><path class="cls-2" d="M1200.91,1952.59l136.88,67.93s6.06,167.27,19.1,260.5l-137.76-80.86-18.22-247.57Z"/><path class="cls-5" d="M1201.44,1951.6a1.3,1.3,0,0,0-1.21.07,1.08,1.08,0,0,0-.53,1c.11,0,17.38,247.65,17.38,247.65a2.06,2.06,0,0,0,1,1.62s34.35,20.37,68.76,40.64,68.87,40.43,68.87,40.43a2.31,2.31,0,0,0,3.46-2.31c-4.22-29.69-7.73-66.9-10.59-103.82-6.12-78.89-9.2-156.42-9.2-156.42a1.59,1.59,0,0,0-.89-1.38l-137.06-67.58v.1Zm134.78,69.93-134.06-67,18.94,244.37c5.71,3.32,36.92,21.45,68.08,39.68,27.36,16,54.69,32.07,64.79,38-3.82-29-7-64.33-9.54-99.43-5.34-73.89-7.9-146.58-8.21-155.66Z"/><path class="cls-2" d="M1052.74,1879.83c-4.62,1,130.72,66.11,130.72,66.11s1.48,40.26,5,94.3c3.38,51.16,8.63,104.07,15,149.42l-87.08-46.51s-26.08-82.29-36-124.26c-19-80.23-27.66-139.06-27.66-139.06Z"/><path class="cls-5" d="M1051.74,1880a.76.76,0,0,1,0-.31,1,1,0,0,1,.75-.74,1.22,1.22,0,0,1,.82.14.92.92,0,0,1,.45.6v0l0,.22A52.86,52.86,0,0,0,1059,1883c10.83,6,34.83,18,58.94,29.73,33,16.08,66.14,31.83,66.14,31.83a1.47,1.47,0,0,1,.84,1.28s.78,18.45,2.5,47.13c.81,13.67,1.85,29.66,3.11,47.09,1.79,24.85,4,50.12,6.61,74.73,2.71,26,5.79,51.2,9.16,74.43a2.87,2.87,0,0,1-4.2,2.93s-21.83-11.53-43.6-23.15-43.5-23.33-43.5-23.33a2.85,2.85,0,0,1-1.4-1.68s-11.6-37.27-22.09-74.5c-5.13-18.18-10-36.36-13.13-50.17-5.88-25.77-10.71-49.33-14.59-69.45-8.23-42.71-12.11-69.93-12.11-69.93l0,0Zm2.46,2.31c1.25,7.77,5.34,32.25,12.55,67,4.16,20,9.37,43.47,15.64,69.1,3.35,13.71,8.48,31.72,13.83,49.76,9.85,33.21,20.49,66.46,22.58,73,4.58,2.42,23.58,12.48,42.55,22.62,15.46,8.26,30.89,16.57,38.54,20.69-2.85-21.76-5.45-45.13-7.69-69.12-2.31-24.69-4.23-50-5.73-75-1-17.46-1.89-33.48-2.54-47.17-1.2-25-1.8-42.3-1.93-46.31-8.8-4.29-86.67-42.27-117.4-58.73-4.69-2.51-8.29-4.52-10.4-5.85Z"/><polygon class="cls-4" points="1525.36 2166.96 1519.78 2119.43 1605.56 2144.08 1611.54 2192.5 1525.36 2166.96 1525.36 2166.96"/><path class="cls-5" d="M1524.44,2167.07a.91.91,0,0,0,.66.78l86.17,25.55a.92.92,0,0,0,.87-.19,1,1,0,0,0,.33-.83l-6-48.42a.92.92,0,0,0-.67-.78L1520,2118.53a.94.94,0,0,0-1.19,1l5.59,47.53Zm1.78-.83,84.21,25-5.72-46.4-83.84-24.08,5.35,45.52Z"/><polygon class="cls-4" points="1530.02 2206.46 1525.83 2181.71 1611.62 2206.36 1615.66 2232.84 1530.02 2206.46 1530.02 2206.46"/><path class="cls-5" d="M1529.22,2206.6a.8.8,0,0,0,.56.63l85.65,26.38a.81.81,0,0,0,.76-.16.83.83,0,0,0,.27-.74l-4-26.48a.81.81,0,0,0-.58-.65l-85.78-24.65a.81.81,0,0,0-.76.18.79.79,0,0,0-.26.74l4.18,24.75Zm1.51-.76,83.94,25.84L1610.9,2207l-84.06-24.15,3.89,23Z"/><path class="cls-4" d="M1533.47,2236.57l-2.43-16.94,85.78,24.65,1.64,18.16c-31.46-7.89-57.74-16.68-85-25.87Z"/><path class="cls-5" d="M1532.54,2236.7a.93.93,0,0,0,.63.76c27.27,9.2,53.58,18,85.06,25.89a1,1,0,0,0,.84-.19.94.94,0,0,0,.32-.8l-1.64-18.17a.92.92,0,0,0-.67-.81l-85.78-24.65a1,1,0,0,0-.88.19,1,1,0,0,0-.31.84l2.43,16.94Zm84.87,24.51L1616,2245l-83.78-24.07,2.14,14.94c26.67,9,52.44,17.59,83.1,25.34Z"/><polygon class="cls-4" points="1377.96 2095.76 1373.83 2055.29 1464.96 2090.54 1466.99 2129.75 1377.96 2095.76 1377.96 2095.76"/><path class="cls-5" d="M1377.28,2095.83a.66.66,0,0,0,.43.57l89,34a.69.69,0,0,0,.65-.09.68.68,0,0,0,.27-.58l-2-39.22a.68.68,0,0,0-.44-.59l-91.13-35.25a.68.68,0,0,0-.66.09.7.7,0,0,0-.27.61l4.13,40.47Zm1.31-.55,87.67,33.47-2-37.73-89.69-34.69,4,39Z"/><polygon class="cls-4" points="1222.68 2017.86 1220.32 1979.65 1327.35 2033.42 1326.97 2074.72 1222.68 2017.86 1222.68 2017.86"/><path class="cls-5" d="M1221.87,2017.9a.82.82,0,0,0,.42.66l104.29,56.87a.84.84,0,0,0,.8,0,.83.83,0,0,0,.4-.7l.37-41.29a.78.78,0,0,0-.44-.73l-107-53.77a.83.83,0,0,0-.81,0,.79.79,0,0,0-.36.73l2.35,38.2Zm1.59-.54,102.71,56,.36-39.44L1221.21,1981l2.25,36.36Z"/><path class="cls-5" d="M1232.63,2180.15a.83.83,0,0,0,.39.63l100.15,60.34a.82.82,0,0,0,.84,0,.79.79,0,0,0,.39-.74L1324.73,2090a.83.83,0,0,0-.44-.67L1222,2036.94a.79.79,0,0,0-.81,0,.8.8,0,0,0-.36.74l11.84,142.43Zm1.58-.55,98.47,59.34-9.54-148.36L1222.52,2039l11.69,140.56Z"/><polygon class="cls-4" points="1091.78 1989.99 1074.06 1913.75 1166.3 1965.02 1170.82 2029.6 1091.78 1989.99 1091.78 1989.99"/><path class="cls-5" d="M1091,1990.17a.81.81,0,0,0,.43.54l79,39.61a.81.81,0,0,0,1.17-.78l-4.52-64.58a.83.83,0,0,0-.42-.65L1074.45,1913a.81.81,0,0,0-1.18.89l17.72,76.24Zm1.49-.73,77.43,38.8-4.39-62.73-90.26-50.17,17.22,74.1Z"/><polygon class="cls-4" points="1378.49 2137.38 1376.34 2113.48 1467.47 2148.73 1468.04 2171.27 1378.49 2137.38 1378.49 2137.38"/><path class="cls-5" d="M1377.82,2137.44a.69.69,0,0,0,.43.58l89.55,33.88a.67.67,0,0,0,.63-.08.65.65,0,0,0,.29-.57l-.57-22.54a.67.67,0,0,0-.43-.61l-91.14-35.25a.68.68,0,0,0-.92.7l2.16,23.89Zm1.31-.54,88.2,33.37-.53-21.07-89.69-34.68,2,22.38Z"/><polygon class="cls-4" points="1389.59 2275.63 1387.43 2251.74 1483.36 2291.53 1484.78 2317.28 1389.59 2275.63 1389.59 2275.63"/><path class="cls-5" d="M1388.91,2275.69a.71.71,0,0,0,.4.57l95.2,41.65a.68.68,0,0,0,.66-.07.67.67,0,0,0,.29-.6l-1.42-25.75a.68.68,0,0,0-.42-.59l-95.93-39.79a.68.68,0,0,0-.66.08.67.67,0,0,0-.28.61l2.16,23.89Zm1.32-.52,93.81,41L1482.7,2292l-94.49-39.19,2,22.37Z"/><polygon class="cls-4" points="1389.07 2238.11 1380.61 2153.38 1472.87 2188.09 1480.12 2279.47 1389.07 2238.11 1389.07 2238.11"/><path class="cls-5" d="M1388.39,2238.18a.7.7,0,0,0,.4.55l91,41.35a.68.68,0,0,0,1-.67l-7.26-91.37a.69.69,0,0,0-.43-.59l-92.26-34.7a.66.66,0,0,0-.65.09.67.67,0,0,0-.26.61l8.45,84.73Zm1.32-.53,89.64,40.72-7.13-89.79-90.82-34.17,8.31,83.24Z"/><path class="cls-5" d="M1301.4,1462.74c1.44-1.62,23.25-25.67,49.24-54.06,10.67-11.65,22-24,33-35.89,13.12-14.18,25.64-27.6,35.82-38a.66.66,0,0,0,0-.94.65.65,0,0,0-.93,0c-13.42,13.28-31,31.51-48.41,50.12-7.22,7.72-14.41,15.52-21.28,23-26,28.41-47.54,52.71-49,54.34a1,1,0,0,0,.08,1.47,1.05,1.05,0,0,0,1.48-.08Z"/></g></svg>